<svg width="59" height="59" viewBox="0 0 59 59" fill="none" xmlns="http://www.w3.org/2000/svg">
<g filter="url(#filter0_d_10_668)">
<path d="M29.5 44C37.5081 44 44 37.5081 44 29.5C44 21.4919 37.5081 15 29.5 15C21.4919 15 15 21.4919 15 29.5C15 37.5081 21.4919 44 29.5 44Z" fill="white"/>
</g>
<path d="M34.8167 26.5999C34.8167 23.9306 32.6527 21.7666 29.9833 21.7666C27.314 21.7666 25.15 23.9306 25.15 26.5999C25.15 32.2388 22.7333 33.8499 22.7333 33.8499H37.2333C37.2333 33.8499 34.8167 32.2388 34.8167 26.5999" stroke="#6278E4" stroke-width="2" stroke-linecap="round" stroke-linejoin="round"/>
<path d="M31.3769 37.0722C31.0887 37.5691 30.5577 37.8749 29.9833 37.8749C29.4089 37.8749 28.8779 37.5691 28.5897 37.0722" stroke="#6278E4" stroke-width="2" stroke-linecap="round" stroke-linejoin="round"/>
<defs>
<filter id="filter0_d_10_668" x="0" y="0" width="59" height="59" filterUnits="userSpaceOnUse" color-interpolation-filters="sRGB">
<feFlood flood-opacity="0" result="BackgroundImageFix"/>
<feColorMatrix in="SourceAlpha" type="matrix" values="0 0 0 0 0 0 0 0 0 0 0 0 0 0 0 0 0 0 127 0" result="hardAlpha"/>
<feOffset/>
<feGaussianBlur stdDeviation="7.5"/>
<feColorMatrix type="matrix" values="0 0 0 0 0 0 0 0 0 0 0 0 0 0 0 0 0 0 0.160784 0"/>
<feBlend mode="normal" in2="BackgroundImageFix" result="effect1_dropShadow_10_668"/>
<feBlend mode="normal" in="SourceGraphic" in2="effect1_dropShadow_10_668" result="shape"/>
</filter>
</defs>
</svg>
