<svg width="44" height="44" viewBox="0 0 44 44" fill="none" xmlns="http://www.w3.org/2000/svg">
<mask id="path-1-inside-1_10_2129" fill="white">
<path d="M22 22C-6.98228 49.0002 49.0002 50.9823 22 22C-6.98228 49.0002 -5.00019 -6.98228 22 22C50.9823 -5.00019 -5.00019 -6.98228 22 22C50.9823 -5.00019 49.0002 50.9823 22 22Z"/>
</mask>
<path d="M22 22C-6.98228 49.0002 49.0002 50.9823 22 22C-6.98228 49.0002 -5.00019 -6.98228 22 22C50.9823 -5.00019 -5.00019 -6.98228 22 22C50.9823 -5.00019 49.0002 50.9823 22 22Z" fill="#6278E4"/>
<path d="M22 22L21.3184 21.2683C17.641 24.6942 15.2584 27.7709 13.8926 30.4922C12.5249 33.2173 12.157 35.6301 12.5919 37.6744C13.4745 41.8237 17.4649 43.8598 21.2213 43.9928C24.9777 44.1258 29.1022 42.377 30.276 38.3005C30.8544 36.2921 30.6581 33.8593 29.4865 31.0443C28.3166 28.2332 26.1575 24.9957 22.7317 21.3184L22 22L21.2683 22.6816C24.5925 26.2499 26.5903 29.2903 27.64 31.8127C28.6882 34.3312 28.7744 36.2876 28.3541 37.7471C27.5308 40.6065 24.5335 42.1088 21.2921 41.9941C18.0507 41.8793 15.1672 40.1687 14.5481 37.2583C14.2321 35.7727 14.4565 33.8273 15.6801 31.3893C16.9056 28.9474 19.1134 26.0559 22.6816 22.7317L22 22ZM22 22L21.3184 21.2683C17.7501 24.5925 14.7097 26.5903 12.1873 27.64C9.66879 28.6882 7.7124 28.7744 6.25291 28.3541C3.39353 27.5308 1.89118 24.5335 2.00595 21.2921C2.12071 18.0507 3.83127 15.1672 6.74172 14.5481C8.22727 14.2321 10.1727 14.4565 12.6107 15.6801C15.0526 16.9056 17.9441 19.1134 21.2683 22.6816L22 22L22.7317 21.3184C19.3058 17.641 16.2291 15.2584 13.5078 13.8926C10.7827 12.5249 8.36993 12.157 6.3256 12.5919C2.17631 13.4745 0.140198 17.4649 0.00720042 21.2213C-0.125797 24.9777 1.623 29.1022 5.69949 30.276C7.70794 30.8544 10.1407 30.6581 12.9557 29.4865C15.7668 28.3166 19.0043 26.1575 22.6816 22.7317L22 22ZM22 22L22.7317 21.3184C19.4075 17.7501 17.4097 14.7097 16.36 12.1873C15.3118 9.66879 15.2256 7.7124 15.6459 6.25291C16.4692 3.39353 19.4665 1.89118 22.7079 2.00595C25.9493 2.12071 28.8328 3.83127 29.4519 6.74172C29.7679 8.22727 29.5435 10.1727 28.3199 12.6107C27.0944 15.0526 24.8866 17.9441 21.3184 21.2683L22 22L22.6816 22.7317C26.359 19.3058 28.7416 16.2291 30.1074 13.5078C31.4751 10.7827 31.843 8.36993 31.4081 6.3256C30.5255 2.17631 26.5351 0.140198 22.7787 0.00720042C19.0223 -0.125797 14.8978 1.623 13.724 5.69949C13.1456 7.70794 13.3419 10.1407 14.5135 12.9557C15.6834 15.7668 17.8425 19.0043 21.2683 22.6816L22 22ZM22 22L21.2683 22.6816C24.6942 26.359 27.7709 28.7416 30.4922 30.1074C33.2173 31.4751 35.6301 31.843 37.6744 31.4081C41.8237 30.5255 43.8598 26.5351 43.9928 22.7787C44.1258 19.0223 42.377 14.8978 38.3005 13.724C36.2921 13.1456 33.8593 13.3419 31.0443 14.5135C28.2332 15.6834 24.9957 17.8425 21.3184 21.2683L22 22L22.6816 22.7317C26.2499 19.4075 29.2903 17.4097 31.8127 16.36C34.3312 15.3118 36.2876 15.2256 37.7471 15.6459C40.6065 16.4692 42.1088 19.4665 41.9941 22.7079C41.8793 25.9493 40.1687 28.8328 37.2583 29.4519C35.7727 29.7679 33.8273 29.5435 31.3893 28.3199C28.9474 27.0944 26.0559 24.8866 22.7317 21.3184L22 22Z" fill="#6278E4" mask="url(#path-1-inside-1_10_2129)"/>
<path d="M22 22C-6.98228 49.0002 49.0002 50.9823 22 22C-6.98228 49.0002 -5.00019 -6.98228 22 22C50.9823 -5.00019 -5.00019 -6.98228 22 22C50.9823 -5.00019 49.0002 50.9823 22 22Z" fill="#6278E4"/>
<path d="M22 22C-6.98228 49.0002 49.0002 50.9823 22 22ZM22 22C-6.98228 49.0002 -5.00019 -6.98228 22 22ZM22 22C-5.00019 -6.98228 50.9823 -5.00019 22 22ZM22 22C49.0002 50.9823 50.9823 -5.00019 22 22Z" stroke="#6278E4" stroke-miterlimit="10"/>
</svg>
