<svg width="79" height="76" viewBox="0 0 79 76" fill="none" xmlns="http://www.w3.org/2000/svg">
<path d="M70.9654 31.3179C70.9654 44.6443 54.5225 59.6032 40.0238 59.6032C25.525 59.6032 7.34583 43.5907 7.34583 30.2791C7.34583 16.9675 25.525 11.3728 40.0238 11.3728C54.5225 11.3728 70.9654 17.9915 70.9654 31.3179Z" fill="#EED6CE"/>
<path d="M42.5169 50.8475H35.7795L31.3719 75.2595H46.9541L42.5169 50.8475Z" fill="#EED6CE"/>
<path d="M39.1629 73.909C42.8839 73.909 45.9004 71.6035 45.9004 68.7595C45.9004 65.9155 42.8839 63.61 39.1629 63.61C35.442 63.61 32.4255 65.9155 32.4255 68.7595C32.4255 71.6035 35.442 73.909 39.1629 73.909Z" fill="#EED6CE"/>
<path d="M20.3013 35.488C20.3013 39.8065 15.1666 43.3087 8.82987 43.3087C2.49314 43.3087 0 38.5302 0 34.2117C0 29.8933 2.49314 27.6672 8.82987 27.6672C15.1666 27.6672 20.3013 31.1695 20.3013 35.488Z" fill="#EED6CE"/>
<path d="M6.72248 36.6902C5.01587 37.2393 3.60605 36.1411 3.47249 35.1023C3.36861 34.2119 4.18482 33.0247 5.52043 32.6537" stroke="#C0A59B" stroke-width="0.5" stroke-miterlimit="10"/>
<path d="M4.83789 34.8054C6.57418 35.1616 7.42007 36.8534 7.12327 37.8328" stroke="#C0A59B" stroke-width="0.5" stroke-miterlimit="10"/>
<path d="M55.9768 0.450568C45.0544 -1.84965 31.639 5.00648 30.9712 13.0795C30.4518 19.4014 37.0853 26.8215 43.2439 27.1925C48.4528 27.5041 50.1891 22.6069 57.164 22.5623C57.7724 22.5623 63.7085 22.6069 67.9379 26.673C73.0874 31.6148 72.0931 38.9607 73.0874 38.9607C74.1559 38.9607 77.5098 28.2461 73.6217 17.3386C73.2952 16.4334 68.2941 3.07727 55.9619 0.480248" fill="#EF5DA2"/>
<path d="M72.8205 28.7507C72.8205 28.7507 70.6093 22.874 66.1128 20.0841C60.6368 16.6709 53.469 19.0156 53.469 19.075C53.469 19.1195 57.5203 17.8432 62.3285 19.4608C68.3091 21.4642 71.5294 26.5841 72.1972 27.6377C72.6127 28.3055 72.8353 28.7507 72.8057 28.7656L72.8205 28.7507Z" fill="#F493BA"/>
<path d="M71.5589 28.8397C71.5589 28.8397 68.205 23.5269 63.2336 21.7016C57.1788 19.4756 50.6344 23.2301 50.6492 23.2746C50.6492 23.3192 54.3592 21.2564 59.4049 21.85C65.6674 22.592 69.8671 26.955 70.7279 27.8602C71.277 28.4242 71.5738 28.8249 71.5589 28.8397Z" fill="#F493BA"/>
<path d="M57.8021 34.4938C57.8021 38.8123 62.9368 42.3146 69.2735 42.3146C75.6103 42.3146 78.1034 37.5361 78.1034 33.2176C78.1034 28.8991 75.6103 26.6731 69.2735 26.6731C62.9368 26.6731 57.8021 30.1754 57.8021 34.4938Z" fill="#EED6CE"/>
<path d="M71.5887 35.1913C73.2954 35.7404 74.7052 34.6422 74.8387 33.6034C74.9426 32.713 74.1264 31.5258 72.7908 31.1548" stroke="#C0A59B" stroke-width="0.5" stroke-miterlimit="10"/>
<path d="M73.4734 33.3065C71.7371 33.6627 70.8912 35.3545 71.188 36.3339" stroke="#C0A59B" stroke-width="0.5" stroke-miterlimit="10"/>
<path d="M35.0609 37.4229C35.4819 35.7879 32.7026 33.6589 28.8531 32.6676C25.0037 31.6764 21.5417 32.1983 21.1207 33.8333C20.6997 35.4684 23.479 37.5974 27.3285 38.5886C31.178 39.5799 34.6399 39.058 35.0609 37.4229Z" fill="#F5F1EB"/>
<path d="M27.9586 38.634C29.3519 38.634 30.4814 37.5045 30.4814 36.1112C30.4814 34.7179 29.3519 33.5884 27.9586 33.5884C26.5653 33.5884 25.4358 34.7179 25.4358 36.1112C25.4358 37.5045 26.5653 38.634 27.9586 38.634Z" fill="#223B21"/>
<path d="M35.4678 38.1148C34.9039 38.6787 32.663 35.9481 28.3149 34.7015C23.6551 33.3808 19.9153 34.7164 19.7373 33.9744C19.6185 33.4401 21.5032 32.3716 23.3434 32.0006C24.9016 31.689 26.2372 32.0006 28.8491 32.6388C31.2532 33.2324 32.4701 33.544 33.4941 34.4344C34.9335 35.681 35.8981 37.6547 35.4678 38.0999V38.1148Z" fill="#DEC3DE"/>
<path d="M53.5017 39.2096C57.3512 38.2183 60.1305 36.0893 59.7094 34.4543C59.2884 32.8192 55.8265 32.2973 51.977 33.2886C48.1276 34.2798 45.3483 36.4088 45.7693 38.0439C46.1903 39.6789 49.6522 40.2008 53.5017 39.2096Z" fill="#F5F1EB"/>
<path d="M52.8752 39.2573C54.2686 39.2573 55.3981 38.1278 55.3981 36.7345C55.3981 35.3412 54.2686 34.2117 52.8752 34.2117C51.4819 34.2117 50.3524 35.3412 50.3524 36.7345C50.3524 38.1278 51.4819 39.2573 52.8752 39.2573Z" fill="#223B21"/>
<path d="M45.3663 38.7379C45.9302 39.3019 48.1711 36.5713 52.5192 35.3247C57.179 34.0039 60.9187 35.3395 61.0968 34.5975C61.2155 34.0633 59.3309 32.9948 57.4907 32.6238C55.9325 32.3122 54.5969 32.6238 51.985 33.2619C49.5809 33.8555 48.364 34.1672 47.34 35.0576C45.9005 36.3042 44.9359 38.2779 45.3663 38.7231V38.7379Z" fill="#DEC3DE"/>
<path d="M24.9166 24.2838C19.7225 29.463 19.7671 40.0885 20.0639 40.0885C20.2568 40.0885 20.0935 35.2655 23.0616 31.8077C25.7328 28.6913 28.7156 29.3146 29.8138 26.7473C30.5261 25.0852 30.1106 22.8443 28.9679 22.3249C27.5433 21.6719 25.3766 23.8386 24.9166 24.2986V24.2838Z" fill="#EF5DA2"/>
<path d="M48.1414 48.2207C48.1414 48.8588 43.5558 51.1739 39.8161 51.1739C36.0764 51.1739 33.0638 50.6545 33.0638 50.0015C33.0638 49.3485 36.1061 49.1259 39.8161 48.8291C43.5261 48.5323 48.1414 47.5677 48.1414 48.2058V48.2207Z" stroke="#ED5CA2" stroke-miterlimit="10"/>
<path d="M70.253 40.8602C70.9906 40.8602 71.5886 40.2622 71.5886 39.5246C71.5886 38.7869 70.9906 38.189 70.253 38.189C69.5153 38.189 68.9174 38.7869 68.9174 39.5246C68.9174 40.2622 69.5153 40.8602 70.253 40.8602Z" stroke="#696A6C" stroke-miterlimit="10"/>
<path d="M73.4437 27.4002C74.5419 26.5395 75.5213 27.4002 75.4026 28.3945C75.2987 29.3443 73.9038 29.5966 73.7257 29.0178" stroke="#696A6C" stroke-width="0.5" stroke-miterlimit="10"/>
<path d="M74.5899 28.0911C74.6937 27.8325 74.303 27.4324 73.7173 27.1974C73.1316 26.9624 72.5726 26.9816 72.4689 27.2402C72.3651 27.4988 72.7558 27.899 73.3415 28.134C73.9272 28.3689 74.4862 28.3498 74.5899 28.0911Z" fill="#EED6CE"/>
<path d="M76.115 28.8249C77.4506 28.1571 78.3113 29.2701 77.9849 30.2792C77.6732 31.2587 76.1447 31.229 76.0853 30.5909" stroke="#696A6C" stroke-width="0.5" stroke-miterlimit="10"/>
<path d="M77.1103 30.1979C77.2746 30.0896 77.1335 29.5858 76.7952 29.0726C76.4569 28.5593 76.0495 28.231 75.8853 28.3393C75.721 28.4475 75.8621 28.9513 76.2004 29.4646C76.5387 29.9778 76.9461 30.3061 77.1103 30.1979Z" fill="#EED6CE"/>
<path d="M16.8141 57.4515L12.1543 52.851L8.45907 55.2848L9.27527 50.0166L4.61548 45.4162L9.77984 46.7518L10.596 41.4835L12.9705 47.5828C14.3209 47.9687 15.6565 48.3693 17.007 48.7552C16.1462 49.6159 15.3004 50.4915 14.4396 51.3522L16.8141 57.4515Z" stroke="#696A6C" stroke-width="0.5" stroke-miterlimit="10"/>
<path d="M35.3491 6.49045C39.7715 10.5121 40.1573 20.2918 35.9724 25.189C31.55 30.3533 24.2042 27.5189 19.2031 34.2266C18.4611 35.2209 16.5318 37.8773 16.5022 41.6615C16.4428 48.5473 22.6905 53.6227 22.1266 54.1272C21.4736 54.7357 11.5011 49.1113 7.0045 38.649C6.61865 37.7586 1.18717 24.5657 8.44399 14.2667C14.8698 5.13999 29.3537 1.01444 35.3491 6.47561V6.49045Z" fill="#EF5DA2"/>
<path d="M32.5742 46.915C32.8447 46.915 33.0639 46.6957 33.0639 46.4253C33.0639 46.1548 32.8447 45.9355 32.5742 45.9355C32.3037 45.9355 32.0845 46.1548 32.0845 46.4253C32.0845 46.6957 32.3037 46.915 32.5742 46.915Z" fill="#C0A59B"/>
<path d="M33.9988 6.98025C33.9988 6.74281 26.8161 4.33871 19.2625 7.27705C11.5457 10.2896 7.85048 17.1754 7.9692 17.2941C8.08792 17.398 11.5011 11.6549 18.5502 8.58298C26.4451 5.14007 33.9691 7.20285 33.9839 6.96541L33.9988 6.98025Z" fill="#F493BA"/>
<path d="M7.34596 33.9297C7.22724 33.9742 7.82084 38.0998 10.1507 42.4183C14.0537 49.6306 20.4943 53.0438 20.5685 52.9399C20.6427 52.8509 15.3299 49.8828 11.3083 43.2938C8.32541 38.4114 7.47952 33.8704 7.3608 33.9149L7.34596 33.9297Z" fill="#F493BA"/>
<path d="M20.5682 31.496C20.494 31.407 17.5112 32.7723 16.0717 35.7997C14.1128 39.8955 15.9233 45.0599 15.9381 45.0451C15.9678 45.0451 15.8639 44.6444 15.7749 43.9321C15.5523 42.27 15.3297 39.1684 16.1904 36.6752C17.3925 33.1878 20.6573 31.5702 20.5831 31.4812L20.5682 31.496Z" fill="#F493BA"/>
<path d="M35.2155 11.8626C35.2155 11.8626 30.1996 10.3489 24.2487 11.9665C18.4462 13.5395 14.8846 17.1902 14.9142 17.2347C14.9439 17.2792 18.2681 14.0441 23.7293 12.4265C29.9473 10.5864 35.2155 11.9368 35.2155 11.8626Z" fill="#F493BA"/>
<path d="M50.1745 1.90486C41.5672 2.21651 35.6608 7.3215 35.557 7.11374C35.4382 6.90598 40.8994 1.63774 48.9724 1.0293" fill="#F493BA"/>
<path d="M48.9724 1.02916C57.2384 0.405878 63.5454 5.02115 63.486 5.18439C63.4267 5.3328 57.8616 1.62277 50.1745 1.90473" fill="#F493BA"/>
<path d="M56.7336 4.76897C56.7336 4.76897 51.7176 3.25528 45.7667 4.87285C39.9643 6.44591 36.4026 10.0966 36.4323 10.1411C36.462 10.1856 39.7862 6.95047 45.2473 5.3329C51.4653 3.49272 56.7336 4.84317 56.7336 4.76897Z" fill="#F493BA"/>
<path d="M58.8855 67.4092H21.6072C16.8286 69.8875 13.2967 72.6181 10.6552 75.2596H73.6366C70.4311 70.5256 65.0145 67.4092 58.9004 67.4092H58.8855Z" fill="#8DADDB"/>
<path d="M24.234 69.7537C22.1564 65.1829 14.3653 67.1863 6.33679 75.2593H24.5011C24.8869 72.8998 24.8424 71.1041 24.234 69.7537Z" fill="#8DADDB"/>
<path d="M55.4129 69.7537C54.8044 71.1041 54.7599 72.8998 55.1457 75.2594H73.31C65.2964 67.1715 57.4905 65.1681 55.4129 69.7537Z" fill="#8DADDB"/>
<path d="M39.1633 72.9443C43.294 72.9443 46.6427 71.0706 46.6427 68.7594C46.6427 66.4481 43.294 64.5745 39.1633 64.5745C35.0325 64.5745 31.6838 66.4481 31.6838 68.7594C31.6838 71.0706 35.0325 72.9443 39.1633 72.9443Z" fill="#EED6CE"/>
</svg>
