<svg width="84" height="70" viewBox="0 0 84 70" fill="none" xmlns="http://www.w3.org/2000/svg">
<path d="M45.9299 44.0033H39.2074L34.7108 68.816L50.471 68.994L45.9299 44.0033Z" fill="#C4A29B"/>
<path d="M72.3305 19.9626C72.3305 33.289 55.8877 48.2478 41.3889 48.2478C26.8901 48.2478 8.71094 32.2353 8.71094 18.9089C8.71094 5.5825 26.9049 0.0174561 41.3889 0.0174561C55.8728 0.0174561 72.3305 6.63615 72.3305 19.9626Z" fill="#C4A29B"/>
<path d="M72.3308 17.7663C71.0248 18.9387 65.2669 9.73781 56.5112 9.87138C49.477 9.97526 48.2898 15.7332 41.0626 15.9707C33.049 16.2229 31.2236 9.15905 23.9371 9.47069C14.2762 9.87138 8.35501 22.6636 6.70776 21.5505C5.65411 20.8531 7.40524 15.2138 10.9966 10.8211C15.3892 5.43418 21.2065 3.56433 25.6141 2.15452C31.6391 0.225301 36.5067 0.10658 40.5284 0.0323795C45.2179 -0.0566612 50.4564 -0.116022 56.7041 2.06547C59.1824 2.9262 62.284 4.03921 65.4598 6.69559C70.4164 10.836 73.3547 16.8611 72.3456 17.7663H72.3308Z" fill="#312722"/>
<path d="M10.9074 25.2306C11.8721 24.637 17.6597 38.9429 26.5044 39.492C32.8263 39.8927 34.4142 32.8881 41.671 32.8436C49.4769 32.7842 51.8662 40.8721 58.1139 39.952C65.5784 38.8538 69.2885 26.2991 70.1343 26.7295C70.6389 26.9818 69.5111 31.4635 66.7063 35.6632C62.6104 41.807 56.8673 44.4337 54.3741 45.5319C47.9781 48.3664 42.2349 48.3367 39.4895 48.1586C37.5751 48.025 32.485 47.5205 26.816 44.5673C25.4953 43.8846 18.5056 40.1301 13.6232 31.9532C11.8424 28.9703 10.4474 25.5126 10.9074 25.2158V25.2306Z" fill="#312722"/>
<path d="M59.1674 23.1384C59.1674 27.4568 64.3021 30.9591 70.6388 30.9591C76.9755 30.9591 79.4686 26.1806 79.4686 21.8621C79.4686 17.5436 76.9755 15.3176 70.6388 15.3176C64.3021 15.3176 59.1674 18.8199 59.1674 23.1384Z" fill="#C4A29B"/>
<path d="M72.7607 24.088C74.4674 24.6371 75.8772 23.5389 76.0107 22.5001C76.1146 21.6097 75.2984 20.4225 73.9628 20.0515" stroke="#A2847C" stroke-width="0.5" stroke-miterlimit="10"/>
<path d="M74.6455 22.1885C72.9092 22.5446 72.0633 24.2364 72.3601 25.2159" stroke="#A2847C" stroke-width="0.5" stroke-miterlimit="10"/>
<path d="M21.6664 24.1325C21.6664 28.451 16.5317 31.9532 10.195 31.9532C3.85826 31.9532 1.36511 27.1747 1.36511 22.8563C1.36511 18.5378 3.85826 16.3118 10.195 16.3118C16.5317 16.3118 21.6664 19.814 21.6664 24.1325Z" fill="#C4A29B"/>
<path d="M7.90974 25.5869C6.20312 26.136 4.79331 25.0378 4.65975 23.999C4.55587 23.1086 5.37207 21.9214 6.70768 21.5504" stroke="#A2847C" stroke-width="0.5" stroke-miterlimit="10"/>
<path d="M6.02515 23.7021C7.76144 24.0583 8.60733 25.7501 8.31053 26.7295" stroke="#A2847C" stroke-width="0.5" stroke-miterlimit="10"/>
<path d="M41.9131 44.862C46.2918 44.6295 49.7135 42.0325 49.5557 39.0616C49.3979 36.0906 45.7204 33.8707 41.3417 34.1032C36.9631 34.3358 33.5414 36.9327 33.6991 39.9037C33.8569 42.8746 37.5345 45.0945 41.9131 44.862Z" fill="#C4A29B"/>
<path d="M34.7887 24.0852C35.0724 21.9733 33.1622 19.9737 30.5222 19.6191C27.8823 19.2645 25.5122 20.6892 25.2285 22.8011C24.9448 24.9131 26.855 26.9127 29.495 27.2673C32.1349 27.6219 34.505 26.1972 34.7887 24.0852Z" fill="#EEDAD4"/>
<path d="M57.8171 21.6099C57.6094 19.4878 55.2794 17.9889 52.6379 18.256C49.9964 18.5232 48.0078 20.4524 48.2304 22.5745" fill="#C4A29B"/>
<path d="M47.8888 38.8687C48.1411 39.3436 45.0841 40.8276 41.6708 40.8276C38.2428 40.8276 35.1857 39.3139 35.4528 38.8391C35.6161 38.5274 37.1446 38.7945 42.2348 38.7945C46.5087 38.7945 47.7553 38.6016 47.9037 38.8836L47.8888 38.8687Z" stroke="#A2847C" stroke-miterlimit="10"/>
<path d="M29.873 26.7296C31.1269 26.7296 32.1435 25.713 32.1435 24.459C32.1435 23.205 31.1269 22.1885 29.873 22.1885C28.619 22.1885 27.6024 23.205 27.6024 24.459C27.6024 25.713 28.619 26.7296 29.873 26.7296Z" fill="#261F1F"/>
<path d="M25.3912 21.7434C25.881 19.6658 28.3889 18.4934 30.9711 19.1167C33.5533 19.74 35.2599 21.9215 34.7702 23.9843" fill="#C4A29B"/>
<path d="M54.8772 27.5722C57.5172 27.2176 59.4274 25.218 59.1437 23.106C58.86 20.994 56.4899 19.5694 53.8499 19.924C51.21 20.2786 49.2998 22.2781 49.5835 24.3901C49.8671 26.5021 52.2372 27.9268 54.8772 27.5722Z" fill="#EEDAD4"/>
<path d="M54.4928 27.0411C55.7468 27.0411 56.7634 26.0245 56.7634 24.7705C56.7634 23.5166 55.7468 22.5 54.4928 22.5C53.2388 22.5 52.2223 23.5166 52.2223 24.7705C52.2223 26.0245 53.2388 27.0411 54.4928 27.0411Z" fill="#261F1F"/>
<path d="M58.9746 22.0549C58.4849 19.9773 55.9769 18.8049 53.3947 19.4282C50.8126 20.0515 49.1059 22.233 49.5957 24.2958" fill="#C4A29B"/>
<path d="M70.2382 61.9449C65.7862 59.8673 60.0133 60.55 59.583 60.6093C50.8718 61.7372 49.5511 67.6881 43.1105 67.8958C35.7201 68.1184 33.9689 60.3719 25.243 59.4073C17.9416 58.5911 11.872 63.1767 10.8035 64.0374C9.28984 65.2691 8.02843 66.7383 6.98962 68.5043L76.2336 69.3056C74.4973 64.8388 72.4939 63.0134 70.2233 61.9598L70.2382 61.9449Z" fill="#2B835B"/>
<path d="M39.2373 59.9121C38.5101 57.7306 38.1243 56.6176 37.0558 55.8459C33.3309 53.1302 25.3766 56.9144 25.4508 59.3927C25.4805 60.6244 27.4691 60.7283 31.2088 63.2066C34.3104 65.2694 36.2099 67.3618 37.501 68.8458L40.8697 68.8904C40.9884 66.5159 40.1129 62.5388 39.2373 59.9269V59.9121Z" fill="#2B835B"/>
<path d="M54.745 63.2066C58.4847 60.7135 60.4584 60.6096 60.5029 59.3927C60.5771 56.9144 52.6228 53.1302 48.8979 55.8459C47.8146 56.6324 47.4436 57.7306 46.7164 59.9121C45.8409 62.5536 44.9505 66.5605 45.084 68.9349L48.3489 68.9794C49.6548 67.4954 51.5692 65.3436 54.7598 63.2214L54.745 63.2066Z" fill="#2B835B"/>
<path d="M15.8344 62.3308C12.9554 60.6094 6.70773 63.4735 0 68.4153L19.9599 68.6379C19.0547 65.6995 17.7191 63.4438 15.8344 62.316V62.3308Z" fill="#2B835B"/>
<path d="M33.1675 67.733C28.1664 62.4944 25.6732 59.2296 25.4506 59.3928C25.2577 59.5412 26.8456 62.1382 28.7006 64.4681C30.0362 66.1451 31.4609 67.5994 32.7816 68.8014H34.2211C33.8946 68.4898 33.5533 68.1336 33.1675 67.733Z" fill="#40916C"/>
<path d="M57.2234 64.4681C59.0785 62.1382 60.6664 59.5412 60.4734 59.3928C60.2508 59.2296 57.7577 62.4944 52.7566 67.733C52.2965 68.2078 51.8959 68.6234 51.51 69.024H52.8901C54.2703 67.8072 55.7839 66.2638 57.2234 64.483V64.4681Z" fill="#40916C"/>
<path d="M65.697 62.0492C63.649 63.2661 62.2541 65.8186 61.334 69.1279L83.1638 69.3802C75.8476 63.6964 68.8134 60.1942 65.697 62.0492Z" fill="#2B835B"/>
</svg>
