<svg width="76" height="72" viewBox="0 0 76 72" fill="none" xmlns="http://www.w3.org/2000/svg">
<path d="M55.5613 63.4117H22.8092C13.2818 63.4117 5.49072 55.7245 5.49072 46.3456V43.9712C5.49072 40.647 6.02498 37.3376 7.07863 34.1767C11.9462 19.4108 15.8046 12.2133 18.6539 12.5695C20.4199 12.8069 21.8149 15.953 22.7943 22.0523H55.5464C57.4311 16.2201 59.39 13.2818 61.438 13.2224C64.7918 13.1334 68.3683 20.8057 72.1674 36.2691C72.6126 38.1093 72.85 39.994 72.85 41.8787V46.3307C72.85 55.7245 65.0589 63.3969 55.5316 63.3969L55.5613 63.4117Z" fill="#252520"/>
<path d="M54.3595 24.6492C54.3595 28.9677 59.4942 32.47 65.8309 32.47C72.1676 32.47 74.6608 27.6915 74.6608 23.373C74.6608 19.0545 72.1676 16.8285 65.8309 16.8285C59.4942 16.8285 54.3595 20.3308 54.3595 24.6492Z" fill="#CFB2A4"/>
<path d="M22.6016 24.6492C22.6016 28.9677 17.4669 32.47 11.1302 32.47C4.79343 32.47 2.30029 27.6915 2.30029 23.373C2.30029 19.0545 4.79343 16.8285 11.1302 16.8285C17.4669 16.8285 22.6016 20.3308 22.6016 24.6492Z" fill="#CFB2A4"/>
<path d="M71.0545 28.1368C71.0545 41.4633 54.6116 56.4221 40.1129 56.4221C25.6141 56.4221 7.43494 40.4096 7.43494 27.0832C7.43494 13.7568 25.6141 8.17688 40.1129 8.17688C54.6116 8.17688 71.0545 14.7956 71.0545 28.122V28.1368Z" fill="#CFB2A4"/>
<path d="M8.83 26.0888C7.12339 26.6378 5.7136 25.5397 5.58004 24.5009C5.47616 23.6105 6.29235 22.4232 7.62796 22.0522" stroke="#977C6F" stroke-width="0.5" stroke-miterlimit="10"/>
<path d="M6.94531 24.204C8.68161 24.5601 9.52748 26.2519 9.23068 27.2314" stroke="#977C6F" stroke-width="0.5" stroke-miterlimit="10"/>
<path d="M67.953 25.5993C69.6596 26.1483 71.0694 25.0502 71.203 24.0114C71.3069 23.121 70.4907 21.9337 69.155 21.5627" stroke="#977C6F" stroke-width="0.5" stroke-miterlimit="10"/>
<path d="M69.8376 23.7145C68.1014 24.0706 67.2555 25.7624 67.5523 26.7419" stroke="#977C6F" stroke-width="0.5" stroke-miterlimit="10"/>
<path d="M42.591 47.0282H35.8685L31.4313 71.6183L47.0876 71.7518L42.591 47.0282Z" fill="#CFB2A4"/>
<path d="M55.5614 63.4117H18.5354C12.3619 63.4117 6.90071 66.6024 3.71008 71.3957L70.7132 71.93C67.5671 66.8398 61.9575 63.4117 55.5614 63.4117Z" fill="#F493B9"/>
<path d="M39.1781 70.0899C42.8991 70.0899 45.9155 67.7844 45.9155 64.9404C45.9155 62.0964 42.8991 59.7909 39.1781 59.7909C35.4571 59.7909 32.4407 62.0964 32.4407 64.9404C32.4407 67.7844 35.4571 70.0899 39.1781 70.0899Z" fill="#CFB2A4"/>
<path d="M26.7121 61.3342C26.6825 61.6162 21.2362 62.5511 16.0866 59.7909C10.1951 56.6448 7.9691 50.3971 8.13234 50.2932C8.2659 50.2042 10.1061 54.6265 14.9143 57.8023C20.6425 61.5717 26.7567 61.0374 26.7121 61.3342Z" fill="#37342A"/>
<path d="M23.581 58.2327C23.5068 58.4999 17.9715 58.4553 13.3859 54.8492C8.14734 50.7088 7.04916 44.1791 7.21241 44.0901C7.36081 44.0159 8.38478 48.7054 12.5697 52.6825C17.5411 57.4017 23.6553 57.9508 23.5662 58.2327H23.581Z" fill="#37342A"/>
<path d="M47.1175 43.7782C47.3549 44.3125 45.6186 45.7519 43.8972 46.4939C41.3744 47.5773 39.0445 47.1321 38.2579 46.9688C35.7945 46.4494 33.4646 44.9803 33.6426 44.446C33.8059 43.9266 36.1655 44.8022 40.2317 44.6093C44.4611 44.4015 46.88 43.2143 47.1323 43.7782H47.1175Z" fill="#F4F0EB"/>
<path d="M31.639 42.9027C31.8171 42.5021 35.0819 44.8765 40.2166 44.6093C44.1492 44.4016 48.2154 42.7246 48.4529 43.2292C48.4529 43.2589 48.4529 43.2886 48.4529 43.3331C48.1561 44.0603 44.9209 46.776 40.5134 46.8057C35.4529 46.8354 31.4461 43.3479 31.639 42.9027Z" stroke="#F493BA" stroke-miterlimit="10"/>
<path d="M61.0077 34.3993C60.2063 35.4826 57.0899 39.6675 52.163 39.4598C47.7703 39.2669 43.6744 35.6607 43.3183 31.8171C43.2738 31.4164 43.1105 29.5169 44.268 27.929C45.5295 26.2076 47.5625 25.9108 51.6436 25.4062C61.9723 24.1151 62.6401 24.2635 63.1892 24.9016C65.0145 27.0534 62.9072 31.8468 61.0225 34.3993H61.0077Z" stroke="black" stroke-miterlimit="10"/>
<path d="M17.4965 34.5624C18.2979 35.6457 21.4143 39.8306 26.3412 39.6229C30.7339 39.4299 34.8297 35.8238 35.1859 31.9802C35.2304 31.5795 35.3937 29.68 34.2361 28.0921C32.9747 26.3706 30.9416 26.0738 26.8606 25.5693C16.5319 24.2782 15.8641 24.4266 15.315 25.0647C13.4897 27.2165 15.5969 32.0099 17.4816 34.5624H17.4965Z" stroke="black" stroke-miterlimit="10"/>
<path d="M35.4087 32.4404C35.4087 33.3605 36.9966 30.3776 39.5046 30.6151C41.9087 30.8525 42.5468 33.4495 43.0959 33.0489" stroke="black" stroke-miterlimit="10"/>
<path d="M14.8845 25.97C13.4747 24.664 12.0797 23.3729 10.6699 22.067" stroke="black" stroke-miterlimit="10"/>
<path d="M65.5191 20.5088C64.9552 22.6458 64.3764 24.7827 63.8125 26.9197" stroke="black" stroke-miterlimit="10"/>
<path d="M51.8662 18.3721C52.3856 17.1255 53.8251 22.2899 54.1516 23.3732H67.4929C67.4929 10.4623 54.6116 0 38.7179 0C22.8241 0 9.94287 10.4623 9.94287 23.3732H49.8628C50.1151 22.4086 51.1093 20.1826 51.8662 18.3721Z" fill="#252520"/>
<path d="M15.7748 23.0022C15.4929 22.9725 14.5579 17.5262 17.3182 12.3767C20.4643 6.48515 26.712 4.25914 26.8159 4.42238C26.9049 4.55594 22.4826 6.39611 19.3068 11.2043C15.5374 16.9326 16.0717 23.0467 15.7748 23.0022Z" fill="#37342A"/>
<path d="M22.8091 15.404C22.5865 15.3298 22.8091 10.7146 25.9552 7.00454C29.5613 2.76026 35.0373 2.04794 35.0967 2.19634C35.1412 2.3299 31.2234 3.02739 27.7805 6.39609C23.6846 10.4029 23.0465 15.4782 22.8091 15.3892V15.404Z" fill="#37342A"/>
<path d="M41.3295 1.58789C41.3591 1.46917 51.1981 1.52853 58.5292 8.36982C64.7472 14.1723 66.0679 21.9782 65.8899 22.0524C65.6969 22.1414 63.9903 13.9794 57.0155 8.0285C49.8625 1.92921 41.3146 1.69177 41.3443 1.58789H41.3295Z" fill="#37342A"/>
<path d="M8.93375 65.2966C7.19746 64.6733 3.81391 67.2703 0 71.3662L10.67 71.4552C10.6997 68.0717 10.1952 65.7566 8.93375 65.2966Z" fill="#F493B9"/>
<path d="M65.9493 65.2963C64.6286 65.7711 64.1537 68.2791 64.2279 71.8853L75.4322 71.9743C71.3957 67.5371 67.7747 64.6433 65.9493 65.2963Z" fill="#F493B9"/>
<path d="M52.7862 34.3846C56.7613 34.3846 59.9837 33.0159 59.9837 31.3276C59.9837 29.6392 56.7613 28.2705 52.7862 28.2705C48.8112 28.2705 45.5887 29.6392 45.5887 31.3276C45.5887 33.0159 48.8112 34.3846 52.7862 34.3846Z" fill="#F4F0EB"/>
<path d="M52.7865 34.3697C54.1798 34.3697 55.3093 33.2402 55.3093 31.8469C55.3093 30.4536 54.1798 29.3241 52.7865 29.3241C51.3932 29.3241 50.2637 30.4536 50.2637 31.8469C50.2637 33.2402 51.3932 34.3697 52.7865 34.3697Z" fill="#252520"/>
<path d="M44.6689 31.5647C45.0695 32.2622 47.9337 30.1697 52.4451 30.051C57.283 29.9323 60.5774 32.1583 60.9336 31.4905C61.1859 31.0008 59.6277 29.5019 57.9359 28.6857C56.4964 27.9882 55.1311 27.9734 52.4451 27.9437C49.9816 27.914 48.7202 27.914 47.5033 28.5225C45.7967 29.3684 44.372 31.0453 44.6837 31.5796L44.6689 31.5647Z" fill="#CFB2A4"/>
<path d="M25.5698 34.3846C29.5448 34.3846 32.7672 33.0159 32.7672 31.3276C32.7672 29.6392 29.5448 28.2705 25.5698 28.2705C21.5947 28.2705 18.3723 29.6392 18.3723 31.3276C18.3723 33.0159 21.5947 34.3846 25.5698 34.3846Z" fill="#F4F0EB"/>
<path d="M25.5696 34.3697C26.9629 34.3697 28.0924 33.2402 28.0924 31.8469C28.0924 30.4536 26.9629 29.3241 25.5696 29.3241C24.1763 29.3241 23.0468 30.4536 23.0468 31.8469C23.0468 33.2402 24.1763 34.3697 25.5696 34.3697Z" fill="#252520"/>
<path d="M33.702 31.5647C33.3013 32.2622 30.4372 30.1697 25.9258 30.051C21.0879 29.9323 17.7934 32.1583 17.4372 31.4905C17.185 31.0008 18.7432 29.5019 20.4349 28.6857C21.8744 27.9882 23.2397 27.9734 25.9258 27.9437C28.3892 27.914 29.6507 27.914 30.8675 28.5225C32.5742 29.3684 33.9988 31.0453 33.6872 31.5796L33.702 31.5647Z" fill="#CFB2A4"/>
</svg>
