<svg width="95" height="96" viewBox="0 0 95 96" fill="none" xmlns="http://www.w3.org/2000/svg">
<path d="M17.7211 66.9947C22.7289 66.9947 26.7884 62.9352 26.7884 57.9274C26.7884 52.9197 22.7289 48.8601 17.7211 48.8601C12.7134 48.8601 8.65381 52.9197 8.65381 57.9274C8.65381 62.9352 12.7134 66.9947 17.7211 66.9947Z" fill="#FDC760"/>
<path d="M30.6766 71.6991C35.6843 71.6991 39.7439 67.6395 39.7439 62.6318C39.7439 57.624 35.6843 53.5645 30.6766 53.5645C25.6688 53.5645 21.6093 57.624 21.6093 62.6318C21.6093 67.6395 25.6688 71.6991 30.6766 71.6991Z" fill="#FDC760"/>
<path d="M39.2835 66.9948C39.3577 67.1135 34.7128 72.7676 28.8954 71.6546C22.9 70.5119 20.6889 63.1512 20.8669 63.0325C21.0302 62.9138 23.8498 69.8145 29.4148 70.7791C34.6089 71.6695 39.2093 66.8909 39.2835 67.0097V66.9948Z" fill="#FAA830"/>
<path d="M59.5403 55.2265C65.3131 51.1455 74.514 50.3144 77.4671 54.5587C80.5539 58.9959 75.998 67.7813 69.3199 71.3577C64.0368 74.1922 55.8006 74.6522 53.0848 70.1557C50.3542 65.6443 54.7172 58.6101 59.5254 55.2117L59.5403 55.2265Z" fill="#FDC760"/>
<path d="M75.4341 46.0404C79.6338 40.3715 88.1224 36.706 92.2628 39.8076C96.5812 43.0576 95.0082 52.8224 89.7696 58.3132C85.6441 62.6465 77.9569 65.6591 73.9797 62.2459C69.9729 58.803 71.9318 50.7744 75.4341 46.0404Z" fill="#FDC760"/>
<path d="M90.9422 56.9332C91.0758 57.0964 83.997 65.2733 77.1261 63.7299C75.2414 63.3144 73.1934 62.1124 73.2825 61.8749C73.3715 61.6226 75.7014 62.4834 77.9274 62.6615C85.1546 63.2847 90.8383 56.7848 90.957 56.9332H90.9422Z" fill="#FAA830"/>
<path d="M68.8898 36.7358C70.2403 29.8054 76.3247 22.8454 81.4 23.8694C86.6979 24.9379 89.473 34.4356 87.1283 41.6479C85.2733 47.3465 79.634 53.3715 74.5736 51.9914C69.4834 50.6113 67.7768 42.5234 68.9046 36.7358H68.8898Z" fill="#FDC760"/>
<path d="M18.092 48.3853C17.7358 49.6022 17.4687 50.4629 16.9196 51.5611C14.7975 55.7311 9.78151 60.3761 5.6708 59.2186C2.70278 58.3875 1.33749 54.8407 0.936803 53.8168C-1.77894 46.7677 1.60461 36.0235 8.54978 34.1091C12.2747 33.0851 17.4093 34.7175 18.7449 37.7598C20.0954 40.8317 19.2198 44.6159 18.1068 48.3853H18.092Z" fill="#FDC760"/>
<path d="M81.3405 45.9366C81.3405 59.2631 64.8977 74.2219 50.3989 74.2219C35.9001 74.2219 17.7209 58.2094 17.7209 44.883C17.7209 31.5566 35.9001 25.9767 50.3989 25.9767C64.8977 25.9767 81.3405 32.5954 81.3405 45.9218V45.9366Z" fill="#957467"/>
<path d="M52.8771 65.4663H46.1545L41.3167 92.2379H57.7447L52.8771 65.4663Z" fill="#957467"/>
<path d="M49.5235 88.5278C53.2445 88.5278 56.261 86.2223 56.261 83.3783C56.261 80.5343 53.2445 78.2288 49.5235 78.2288C45.8026 78.2288 42.7861 80.5343 42.7861 83.3783C42.7861 86.2223 45.8026 88.5278 49.5235 88.5278Z" fill="#957467"/>
<path d="M15.8362 32.9517C15.8362 38.0121 22.7072 42.1228 31.1957 42.1228C39.6842 42.1228 45.5164 33.0259 45.5164 27.9654C45.5164 22.9049 39.6842 23.7953 31.1957 23.7953C22.7072 23.7953 15.8362 27.906 15.8362 32.9665V32.9517Z" fill="#FDC760"/>
<path d="M25.4527 31.9276C23.4641 37.5372 17.8546 44.0223 12.7644 42.939C7.42195 41.8111 4.63201 32.7735 6.02698 26.0064C7.62971 18.2153 15.2724 10.9437 20.5406 12.487C25.8682 14.0453 28.1239 24.4333 25.4675 31.9276H25.4527Z" fill="#FDC760"/>
<path d="M50.3674 27.8207C55.0582 21.2201 53.8621 12.3168 47.6957 7.93463C41.5294 3.55243 32.7279 5.35081 28.0371 11.9514C23.3463 18.552 24.5425 27.4553 30.7088 31.8375C36.8752 36.2197 45.6766 34.4213 50.3674 27.8207Z" fill="#FDC760"/>
<path d="M60.0302 32.9219C58.5758 32.0612 44.7003 23.6469 46.9412 16.4049C48.7072 10.7211 59.8818 7.44146 67.8361 11.3444C75.078 14.8912 79.2333 24.1663 76.7253 30.3991C76.5175 30.9185 75.1226 34.2575 71.7539 35.6228C67.5838 37.3146 63.1911 34.7918 60.0302 32.9219Z" fill="#FDC760"/>
<path d="M68.1774 49.1124C68.1774 53.4308 73.3121 56.9331 79.6488 56.9331C85.9855 56.9331 88.4786 52.1546 88.4786 47.8361C88.4786 43.5176 85.9855 41.2916 79.6488 41.2916C73.3121 41.2916 68.1774 44.7939 68.1774 49.1124Z" fill="#957467"/>
<path d="M30.6764 50.1068C30.6764 54.4252 25.5417 57.9275 19.205 57.9275C12.8683 57.9275 10.3751 53.149 10.3751 48.8305C10.3751 44.512 12.8683 42.286 19.205 42.286C25.5417 42.286 30.6764 45.7883 30.6764 50.1068Z" fill="#957467"/>
<path d="M16.905 51.5612C15.1984 52.1103 13.7885 51.0121 13.655 49.9733C13.5511 49.0829 14.3673 47.8957 15.7029 47.5247" stroke="#6D544A" stroke-width="0.5" stroke-miterlimit="10"/>
<path d="M15.0199 49.6764C16.7562 50.0326 17.6021 51.7243 17.3053 52.7038" stroke="#6D544A" stroke-width="0.5" stroke-miterlimit="10"/>
<path d="M81.7708 50.0623C83.4774 50.6114 84.8872 49.5132 85.0207 48.4744C85.1246 47.584 84.3084 46.3968 82.9728 46.0258" stroke="#6D544A" stroke-width="0.5" stroke-miterlimit="10"/>
<path d="M83.6555 48.1775C81.9192 48.5337 81.0733 50.2254 81.3702 51.2049" stroke="#6D544A" stroke-width="0.5" stroke-miterlimit="10"/>
<path d="M43.7505 33.7529C43.8989 33.9161 40.4857 39.7928 34.3419 41.7072C24.8294 44.6752 15.1833 36.0976 15.2723 35.9047C15.3614 35.7118 24.77 43.4286 34.1935 40.6238C40.2037 38.843 43.5873 33.5896 43.7357 33.7529H43.7505Z" fill="#FAA830"/>
<path d="M42.9197 31.8831C39.6845 25.6206 38.3192 17.0875 40.9162 15.5145C43.632 13.882 49.9242 20.2633 52.907 27.2233C55.2666 32.729 56.2906 40.2826 53.5007 41.5737C50.7107 42.8648 45.6057 37.1068 42.9048 31.8831H42.9197Z" fill="#FDC760"/>
<path d="M56.2905 35.6228C51.7345 31.9424 48.069 25.665 49.7756 23.3351C51.5565 20.9014 58.7094 23.4242 63.2653 27.7723C66.8715 31.2004 69.9582 36.8396 68.0141 39.0063C66.0701 41.2026 60.0895 38.6798 56.2905 35.6079V35.6228Z" fill="#FDC760"/>
<path d="M20.2142 66.6386C20.2142 66.7276 15.6732 67.7071 12.2896 65.1843C8.00083 61.9937 8.52023 55.375 8.59443 55.3601C8.68347 55.3453 8.43119 61.7117 12.5716 64.8578C15.8513 67.3361 20.2142 66.5496 20.2142 66.6386Z" fill="#FAA830"/>
<path d="M25.5862 26.1993C25.3636 26.1993 23.4344 19.729 26.4618 13.9117C29.786 7.53046 37.2209 5.55672 37.3396 5.76449C37.4583 5.95741 30.6764 8.12406 27.3374 14.5647C24.3545 20.3078 25.794 26.1993 25.5862 26.1993Z" fill="#FAA830"/>
<path d="M8.08989 38.1456C7.86729 38.205 4.3947 32.6103 5.53739 26.0954C6.59104 20.1149 11.0431 16.2416 11.236 16.3752C11.4289 16.5087 7.55564 20.3078 6.54652 26.4664C5.49287 32.9813 8.28281 38.0714 8.07505 38.1308L8.08989 38.1456Z" fill="#FAA830"/>
<path d="M54.762 40.0452C54.8511 40.1491 54.1833 41.3956 53.1593 41.7666C50.592 42.6867 46.4961 37.8785 44.6262 35.1776C42.2963 31.7941 41.2872 28.5441 41.3317 28.5293C41.3614 28.5144 42.1331 30.4882 43.7507 33.1445C45.6205 36.1868 47.1787 37.7895 48.084 38.6205C49.6719 40.0897 51.1559 41.4402 52.7438 41.1434C53.8865 40.9356 54.6582 39.9561 54.762 40.0452Z" fill="#FAA830"/>
<path d="M66.3372 39.8521C66.3076 39.9709 62.9982 39.9115 59.585 38.1307C55.7711 36.1421 53.738 32.9812 53.827 32.8921C53.9012 32.8179 55.8156 35.4892 59.585 37.5371C63.206 39.5108 66.3669 39.7334 66.3372 39.8521Z" fill="#FAA830"/>
<path d="M61.8703 9.69704C61.9445 9.48928 68.6819 9.78608 73.1785 14.5646C78.1054 19.8032 77.5266 27.4606 77.304 27.52C77.0814 27.5645 77.2595 20.4413 72.2881 15.173C67.8509 10.4687 61.8109 9.9048 61.8703 9.69704Z" fill="#FAA830"/>
<path d="M40.1741 52.1695C44.1492 52.1695 47.3716 50.8008 47.3716 49.1125C47.3716 47.4241 44.1492 46.0554 40.1741 46.0554C36.1991 46.0554 32.9767 47.4241 32.9767 49.1125C32.9767 50.8008 36.1991 52.1695 40.1741 52.1695Z" fill="#F5E7CF"/>
<path d="M62.0633 52.1695C66.0383 52.1695 69.2608 50.8008 69.2608 49.1125C69.2608 47.4241 66.0383 46.0554 62.0633 46.0554C58.0883 46.0554 54.8658 47.4241 54.8658 49.1125C54.8658 50.8008 58.0883 52.1695 62.0633 52.1695Z" fill="#F5E7CF"/>
<path d="M32.9618 49.0531C32.9618 47.3613 36.1821 45.996 40.1593 45.996C44.1364 45.996 47.3567 47.3613 47.3567 49.0531" fill="#94807A"/>
<path d="M54.8658 49.0531C54.8658 47.3613 58.0861 45.996 62.0633 45.996C66.0404 45.996 69.2608 47.3613 69.2608 49.0531" fill="#94807A"/>
<path d="M42.4448 48.9789C42.4448 50.2403 41.4208 51.2494 40.1742 51.2494C38.9277 51.2494 37.9037 50.2255 37.9037 48.9789" fill="#252520"/>
<path d="M64.6307 49.0679C64.6307 50.3293 63.6067 51.3384 62.3601 51.3384C61.1136 51.3384 60.0896 50.3144 60.0896 49.0679" fill="#252520"/>
<path d="M79.2183 43.2654C83.1277 43.2654 86.297 40.0961 86.297 36.1867C86.297 32.2772 83.1277 29.1079 79.2183 29.1079C75.3088 29.1079 72.1395 32.2772 72.1395 36.1867C72.1395 40.0961 75.3088 43.2654 79.2183 43.2654Z" fill="#FDC760"/>
<path d="M56.2607 62.6317H44.448" stroke="#252520" stroke-miterlimit="10"/>
<path d="M84.5462 87.682C78.0314 78.1843 63.2061 78.214 49.5384 78.2437C35.4403 78.2733 22.1435 78.2882 15.881 87.1181C14.486 89.0769 13.7589 91.6443 13.4324 95.1466L86.2677 93.0096C85.8818 90.561 85.3476 88.8247 84.561 87.682H84.5462Z" fill="#957467"/>
<path d="M19.7691 56.8589C20.1789 56.8589 20.5111 56.5267 20.5111 56.1169C20.5111 55.7071 20.1789 55.3749 19.7691 55.3749C19.3593 55.3749 19.0271 55.7071 19.0271 56.1169C19.0271 56.5267 19.3593 56.8589 19.7691 56.8589Z" stroke="#AFB2B2" stroke-width="0.5" stroke-miterlimit="10"/>
<path d="M35.9744 88.5276C34.4903 84.9066 37.7107 79.6978 35.8556 78.5996C35.6034 78.4512 35.4698 78.5551 32.5166 78.9854C31.3591 79.1487 29.8751 79.3713 27.8568 79.772C25.4972 80.2468 24.3249 80.4843 23.9687 80.6475C21.0897 82.0277 23.1228 87.8747 22.4847 94.8644L46.5554 94.152C41.5988 93.4397 37.1764 91.4956 35.9595 88.4979L35.9744 88.5276Z" fill="#F15849"/>
<path d="M76.0425 80.8703C75.3599 80.4993 73.9352 80.2025 71.0859 79.5941C70.5369 79.4753 68.7857 79.1192 66.4558 78.8521C65.2241 78.7037 64.6008 78.5998 64.4227 78.674C62.1819 79.5495 64.9125 86.2573 62.6716 90.0712C61.5586 91.9707 59.1842 93.2173 56.2755 93.8851L77.5266 93.2618C77.3188 87.1774 78.8473 82.4285 76.0277 80.8555L76.0425 80.8703Z" fill="#F15849"/>
<path d="M36.4791 78.5552C36.5681 82.7994 34.5202 87.3702 38.2005 90.4124C41.9847 93.5437 47.2085 93.9889 48.6034 94.0928C49.8203 94.1818 56.3797 94.7012 61.2175 91.4364C65.6844 88.4239 63.7849 82.7846 64.4378 78.6442" stroke="#2C835B" stroke-miterlimit="10"/>
<path d="M22.7223 81.2859C22.8855 85.9754 23.6275 90.5313 22.7223 95.2059" stroke="#2C835B" stroke-miterlimit="10"/>
<path d="M75.9535 81.5083C78.8028 84.7138 77.7492 89.8485 77.5711 93.7366" stroke="#2C835B" stroke-miterlimit="10"/>
</svg>
