<svg width="100" height="87" viewBox="0 0 100 87" fill="none" xmlns="http://www.w3.org/2000/svg">
<path d="M91.2521 81.1813C81.517 75.7646 67.4783 76.2098 64.9406 81.5226C64.258 82.9472 64.5993 84.3125 65.6233 85.8262H97.2624C95.6151 84.1196 93.6562 82.5169 91.267 81.1813H91.2521Z" fill="#FAA830"/>
<path d="M36.8483 82.1161C34.4293 76.744 20.4203 75.9278 10.5516 81.0921C8.01393 82.4277 5.92147 84.0602 4.18518 85.8113H36.4328C37.1896 84.5499 37.3973 83.3627 36.8334 82.1013L36.8483 82.1161Z" fill="#FAA830"/>
<path d="M50.679 72.5739C41.4336 72.5739 25.8366 72.5738 14.291 85.8261H88.5213C76.3969 72.5145 58.0693 72.5887 50.679 72.5739Z" fill="#FAA830"/>
<path d="M84.7076 83.7188C85.0193 77.3375 79.8401 72.2177 78.0592 70.4814C70.5353 63.0762 60.4737 62.9723 51.1096 62.8981C41.2261 62.8091 30.6154 62.72 23.2992 70.4814C22.0378 71.817 17.0367 77.1298 17.5264 83.7188C17.5858 84.4311 17.6897 85.1286 17.8678 85.8261H84.4108C84.5741 85.1286 84.6779 84.4311 84.7076 83.7188Z" fill="#FAA830"/>
<path d="M82.6895 42.1814C82.6895 55.5078 66.2467 70.4666 51.7479 70.4666C37.2491 70.4666 19.0699 54.4542 19.0699 41.1277C19.0699 27.8013 37.2491 22.2214 51.7479 22.2214C66.2467 22.2214 82.6895 28.8401 82.6895 42.1666V42.1814Z" fill="#EDD5CD"/>
<path d="M69.5262 45.3571C69.5262 49.6756 74.6609 53.1778 80.9977 53.1778C87.3344 53.1778 89.8275 48.3993 89.8275 44.0809C89.8275 39.7624 87.3344 37.5364 80.9977 37.5364C74.6609 37.5364 69.5262 41.0386 69.5262 45.3571Z" fill="#EDD5CD"/>
<path d="M32.025 46.3514C32.025 50.6698 26.8903 54.1721 20.5536 54.1721C14.2169 54.1721 11.7238 49.3936 11.7238 45.0751C11.7238 40.7566 14.2169 38.5306 20.5536 38.5306C26.8903 38.5306 32.025 42.0329 32.025 46.3514Z" fill="#EDD5CD"/>
<path d="M18.2535 47.8058C16.5469 48.3549 15.1371 47.2567 15.0035 46.2179C14.8996 45.3275 15.7158 44.1403 17.0514 43.7693" stroke="#BFA49B" stroke-width="0.5" stroke-miterlimit="10"/>
<path d="M16.3688 45.921C18.1051 46.2772 18.951 47.9689 18.6542 48.9484" stroke="#BFA49B" stroke-width="0.5" stroke-miterlimit="10"/>
<path d="M83.1196 46.3069C84.8262 46.856 86.2361 45.7578 86.3696 44.719C86.4735 43.8286 85.6573 42.6414 84.3217 42.2704" stroke="#BFA49B" stroke-width="0.5" stroke-miterlimit="10"/>
<path d="M85.0043 44.4221C83.268 44.7783 82.4221 46.47 82.7189 47.4495" stroke="#BFA49B" stroke-width="0.5" stroke-miterlimit="10"/>
<path d="M24.8425 35.5627C23.1062 40.549 22.9727 43.0421 21.8745 43.146C20.3311 43.2796 17.7935 38.7385 18.2535 34.4942C19.0697 27.178 28.7158 22.4292 29.9772 23.6164C30.7934 24.3733 27.7512 27.178 24.8425 35.5479V35.5627Z" fill="#252520"/>
<path d="M76.4712 35.5627C78.2075 40.549 78.3411 43.0421 79.4393 43.146C80.9826 43.2796 83.5203 38.7385 83.0603 34.4942C82.2441 27.178 72.598 22.4292 71.3366 23.6164C70.5204 24.3733 73.5626 27.178 76.4712 35.5479V35.5627Z" fill="#252520"/>
<path d="M80.849 20.4404H20.5388C18.3833 20.4404 16.6359 22.1878 16.6359 24.3434V28.6322C16.6359 30.7877 18.3833 32.5351 20.5388 32.5351H80.849C83.0046 32.5351 84.752 30.7877 84.752 28.6322V24.3434C84.752 22.1878 83.0046 20.4404 80.849 20.4404Z" fill="#8DADDB"/>
<path d="M20.9988 27.638C20.9988 12.9315 34.3697 1 50.8868 1C70.3273 1 84.0099 21.6871 80.7747 27.638C78.6378 31.5558 67.4632 32.0455 32.0398 20.4406" fill="#8DADDB"/>
<path d="M23.7296 20.4404C23.314 21.9244 22.7353 24.002 22.9134 26.4952C23.0914 29.0774 23.7444 31.0066 23.7296 32.5648" stroke="#5B74B8" stroke-width="0.75" stroke-miterlimit="10"/>
<path d="M27.4842 20.4404C27.4842 21.9541 26.7867 24.0762 26.7867 26.4952C26.7867 28.9141 27.4842 30.9027 27.4842 32.5648" stroke="#5B74B8" stroke-width="0.75" stroke-miterlimit="10"/>
<path d="M32.0253 20.4404V32.5648" stroke="#5B74B8" stroke-width="0.75" stroke-miterlimit="10"/>
<path d="M40.0239 20.4404V32.55" stroke="#5B74B8" stroke-width="0.75" stroke-miterlimit="10"/>
<path d="M44.2535 20.4404V32.55" stroke="#5B74B8" stroke-width="0.75" stroke-miterlimit="10"/>
<path d="M48.4828 20.4404V32.5648" stroke="#5B74B8" stroke-width="0.75" stroke-miterlimit="10"/>
<path d="M56.927 20.4404V32.5648" stroke="#5B74B8" stroke-width="0.75" stroke-miterlimit="10"/>
<path d="M65.3859 20.4553V32.5649" stroke="#5B74B8" stroke-width="0.75" stroke-miterlimit="10"/>
<path d="M69.615 20.4404V32.5648" stroke="#5B74B8" stroke-width="0.75" stroke-miterlimit="10"/>
<path d="M77.6288 20.4404C78.0443 21.9244 78.6231 24.002 78.445 26.4952C78.2669 29.0774 77.6139 31.0066 77.6288 32.5648" stroke="#5B74B8" stroke-width="0.75" stroke-miterlimit="10"/>
<path d="M73.8744 20.4404C73.8744 21.9541 74.5719 24.0762 74.5719 26.4952C74.5719 28.9141 73.8744 30.9027 73.8744 32.5648" stroke="#5B74B8" stroke-width="0.75" stroke-miterlimit="10"/>
<path d="M22.0971 20.4405C21.637 20.3959 19.5891 20.2624 18.1941 21.6573C17.2889 22.5774 17.1405 23.6756 16.9327 25.3674C16.7843 26.5546 16.5617 28.5432 17.6005 30.6505C18.0309 31.526 18.5355 32.1493 18.9065 32.55" stroke="#5B74B8" stroke-width="0.75" stroke-miterlimit="10"/>
<path d="M79.4542 20.4405C79.9143 20.3959 81.9622 20.2624 83.3572 21.6573C84.2624 22.5774 84.4108 23.6756 84.6186 25.3674C84.767 26.5546 84.9896 28.5432 83.9508 30.6505C83.5204 31.526 83.3423 32.3422 82.5261 32.1345" stroke="#5B74B8" stroke-width="0.75" stroke-miterlimit="10"/>
<path d="M22.0969 20.4553H79.454" stroke="#5B74B8" stroke-width="0.75" stroke-miterlimit="10"/>
<path d="M18.7137 32.1494H83.1198" stroke="#5B74B8" stroke-width="0.75" stroke-miterlimit="10"/>
<path d="M41.8049 2.26135C39.4899 3.7602 35.7502 6.6095 32.6783 11.3583C30.4374 14.8161 29.3095 18.1106 28.7159 20.4553" stroke="#5B74B8" stroke-width="0.75" stroke-miterlimit="10"/>
<path d="M79.454 20.4405C78.5339 17.9474 76.7382 14.0741 73.236 10.5125C63.3079 0.406378 44.5797 -2.23517 32.4257 6.68374C30.1848 8.331 25.4063 12.3824 22.4828 20.4405" stroke="#5B74B8" stroke-width="0.75" stroke-miterlimit="10"/>
<path d="M72.1231 20.9303C71.9599 18.7191 71.3069 13.8961 67.8937 9.17694C65.7122 6.1644 63.2042 4.30939 61.5125 3.25574" stroke="#5B74B8" stroke-width="0.75" stroke-miterlimit="10"/>
<path d="M48.4829 1.29675C46.2569 3.12209 42.903 6.37207 40.306 11.3435C38.4955 14.8309 37.6199 18.0512 37.1896 20.4405" stroke="#5B74B8" stroke-width="0.75" stroke-miterlimit="10"/>
<path d="M59.9247 20.4553C60.088 18.2441 60.0731 14.816 58.9156 10.8389C57.6097 6.31264 55.3985 3.12202 53.9293 1.31152" stroke="#5B74B8" stroke-width="0.75" stroke-miterlimit="10"/>
<path d="M39.2227 45.3274C43.1978 45.3274 46.4202 43.9587 46.4202 42.2703C46.4202 40.5819 43.1978 39.2133 39.2227 39.2133C35.2477 39.2133 32.0253 40.5819 32.0253 42.2703C32.0253 43.9587 35.2477 45.3274 39.2227 45.3274Z" fill="#F4F0EB"/>
<path d="M64.1244 45.3274C68.0995 45.3274 71.3219 43.9587 71.3219 42.2703C71.3219 40.5819 68.0995 39.2133 64.1244 39.2133C60.1494 39.2133 56.927 40.5819 56.927 42.2703C56.927 43.9587 60.1494 45.3274 64.1244 45.3274Z" fill="#F4F0EB"/>
<path d="M39.2225 44.9118C40.4437 44.9118 41.4337 43.9219 41.4337 42.7007C41.4337 41.4795 40.4437 40.4895 39.2225 40.4895C38.0013 40.4895 37.0114 41.4795 37.0114 42.7007C37.0114 43.9219 38.0013 44.9118 39.2225 44.9118Z" fill="#252520"/>
<path d="M64.5547 44.9118C65.7759 44.9118 66.7659 43.9219 66.7659 42.7007C66.7659 41.4795 65.7759 40.4895 64.5547 40.4895C63.3335 40.4895 62.3435 41.4795 62.3435 42.7007C62.3435 43.9219 63.3335 44.9118 64.5547 44.9118Z" fill="#252520"/>
<path d="M46.4349 41.5877C46.2865 42.0626 43.9863 41.2315 39.2375 41.2315C34.4887 41.2315 32.1884 42.0626 32.04 41.5877C31.8471 40.9793 35.2603 38.5306 39.2375 38.5306C43.2146 38.5306 46.6427 40.9793 46.4349 41.5877Z" fill="#EDD5CD"/>
<path d="M71.3218 41.5877C71.1734 42.0626 68.8731 41.2315 64.1243 41.2315C59.3755 41.2315 57.0753 42.0626 56.9269 41.5877C56.7339 40.9793 60.1472 38.5306 64.1243 38.5306C68.1015 38.5306 71.5295 40.9793 71.3218 41.5877Z" fill="#EDD5CD"/>
<path d="M54.2261 61.7109H47.5035L43.1405 85.8261H58.6039L54.2261 61.7109Z" fill="#EDD5CD"/>
<path d="M50.872 84.7724C54.593 84.7724 57.6094 82.4669 57.6094 79.6229C57.6094 76.7789 54.593 74.4734 50.872 74.4734C47.1511 74.4734 44.1346 76.7789 44.1346 79.6229C44.1346 82.4669 47.1511 84.7724 50.872 84.7724Z" fill="#EDD5CD"/>
<path d="M35.2604 75.0967C28.9534 75.0967 21.7559 80.172 20.5687 85.8261H49.2547C46.1234 79.9939 41.4488 75.0967 35.2604 75.0967Z" fill="#FAA830"/>
<path d="M82.5262 84.3271C81.71 78.7472 72.3607 74.9778 64.8664 75.6011C58.3961 76.1353 52.2968 80.0234 49.0765 85.8259H82.541C82.6004 85.3362 82.6004 84.8317 82.541 84.3271H82.5262Z" fill="#FAA830"/>
<path d="M57.4613 85.826C57.4613 84.9653 56.6747 84.2678 55.7101 84.2678C54.7455 84.2678 53.959 84.9653 53.959 85.826H57.4464H57.4613Z" stroke="#EC5CA1" stroke-width="0.5" stroke-miterlimit="10"/>
<path d="M44.936 85.826C44.936 84.9653 44.1494 84.2678 43.1848 84.2678C42.2202 84.2678 41.4337 84.9653 41.4337 85.826H44.9212H44.936Z" stroke="#EC5CA1" stroke-width="0.5" stroke-miterlimit="10"/>
<path d="M44.283 85.0099C43.8526 84.6834 43.3778 84.6241 43.3778 84.6241C43.3778 84.6241 42.888 84.5647 42.3686 84.7725C42.1015 84.8763 41.9234 85.277 41.775 85.8261H44.5353C44.4611 85.3809 44.3721 85.0841 44.2682 85.0099H44.283Z" fill="#ED9626"/>
<path d="M56.7043 84.9505C56.2442 84.7131 55.7842 84.624 55.7842 84.624C55.7842 84.624 55.2945 84.535 54.8048 84.624C54.4338 84.6982 54.2705 85.1583 54.2408 85.8261H57.1347C57.0011 85.3512 56.8527 85.0247 56.6895 84.9505H56.7043Z" fill="#ED9626"/>
<path d="M17.8232 79.8752C17.6896 79.9642 18.6394 82.8283 20.9396 85.826H21.8894C19.1885 82.7096 17.9568 79.7861 17.8083 79.8752H17.8232Z" fill="#ED9626"/>
<path d="M45.7969 80.6766C41.9088 76.3729 37.531 74.414 37.4716 74.4882C37.4271 74.5476 40.8255 76.18 44.5504 79.9197C47.6371 83.0065 49.314 85.8706 49.3882 85.8261C49.3882 85.8261 48.112 83.2439 45.7821 80.6766H45.7969Z" fill="#ED9626"/>
<path d="M51.9702 82.4128C57.8469 76.0167 65.9051 75.2154 65.8754 75.0966C65.8309 74.9779 57.2682 75.6606 51.5547 82.0566C50.4417 83.3032 49.5661 84.624 48.8983 85.826H49.388C50.0707 84.7427 50.9166 83.5555 51.9702 82.4128Z" fill="#ED9626"/>
<path d="M83.9209 78.8364C83.7873 78.7474 82.1104 82.4871 79.2166 85.8261H80.1663C82.6891 82.5613 84.0544 78.9254 83.9209 78.8364Z" fill="#ED9626"/>
<path d="M51.6291 59.2919C54.6862 59.2919 57.1645 58.6806 57.1645 57.9266C57.1645 57.1725 54.6862 56.5613 51.6291 56.5613C48.572 56.5613 46.0938 57.1725 46.0938 57.9266C46.0938 58.6806 48.572 59.2919 51.6291 59.2919Z" fill="#F4F0EB"/>
<path d="M57.9656 56.8582C58.2179 57.5705 55.1608 59.8707 51.7476 59.8707C48.3195 59.8707 45.2625 57.5408 45.5296 56.7988C45.6928 56.3239 47.2214 56.7246 52.3115 56.7246C56.5855 56.7246 57.8321 56.4427 57.9805 56.8582H57.9656Z" stroke="#F2B2CE" stroke-miterlimit="10"/>
<path d="M49.4326 56.7395C49.21 56.8434 48.7796 57.0214 46.7613 57.3182C44.3127 57.6892 43.0958 57.8673 42.9178 57.6002C42.4577 56.8879 44.7876 53.9644 47.9782 53.3263C49.5365 53.0146 51.6734 53.163 51.9702 53.9941C52.267 54.7954 50.7682 56.131 49.4177 56.7395H49.4326Z" fill="#262520"/>
<path d="M54.2111 56.7395C54.4337 56.8434 54.8641 57.0214 56.8824 57.3182C59.331 57.6892 60.5479 57.8673 60.7259 57.6002C61.186 56.8879 58.8561 53.9644 55.6655 53.3263C54.1073 53.0146 51.9703 53.163 51.6735 53.9941C51.3767 54.7954 52.8755 56.131 54.226 56.7395H54.2111Z" fill="#262520"/>
<path d="M10.5516 81.092C10.1212 81.0029 8.56298 80.7655 5.63948 82.0417C3.56186 82.947 1.69202 84.2381 0.000244141 85.826H16.1611C14.6326 83.2141 12.7776 81.5224 10.5367 81.1068L10.5516 81.092Z" fill="#FAA830"/>
<path d="M93.1959 81.1664C90.2724 79.905 88.7291 80.1424 88.2839 80.2166C85.8056 80.6915 83.8021 82.6949 82.1846 85.8113H99.7107C97.7964 83.8079 95.6446 82.22 93.1959 81.1515V81.1664Z" fill="#FAA830"/>
<path d="M10.1063 84.2827C10.0469 84.1491 7.83574 84.5201 5.12 85.826H6.58916C8.66678 84.8169 10.1508 84.3866 10.1063 84.2827Z" fill="#ED9626"/>
<path d="M88.1801 83.7337C88.1207 83.8672 90.3913 84.3718 93.2999 85.8113H94.8878C91.4004 83.986 88.2543 83.5704 88.1801 83.7337Z" fill="#ED9626"/>
</svg>
