<svg width="80" height="87" viewBox="0 0 80 87" fill="none" xmlns="http://www.w3.org/2000/svg">
<path d="M8.84482 7.37125C8.93386 7.47513 11.5012 4.4329 14.0982 5.02651C16.5617 5.57559 17.5708 9.04818 17.6895 8.98882C17.8231 8.91462 17.1998 4.86327 14.2614 4.16578C11.145 3.42377 8.75578 7.25253 8.84482 7.37125Z" fill="#F47E48"/>
<path d="M72.464 40.7321C72.464 54.0585 56.0212 69.0173 41.5224 69.0173C27.0236 69.0173 8.84448 53.0048 8.84448 39.6784C8.84448 26.352 27.0236 20.7721 41.5224 20.7721C56.0212 20.7721 72.464 27.3908 72.464 40.7172V40.7321Z" fill="#EED6CE"/>
<path d="M44.0008 60.2616H37.2782L32.6184 86.0092L48.6309 85.7866L44.0008 60.2616Z" fill="#EED6CE"/>
<path d="M40.6467 83.3231C44.3677 83.3231 47.3841 81.0176 47.3841 78.1736C47.3841 75.3296 44.3677 73.024 40.6467 73.024C36.9257 73.024 33.9093 75.3296 33.9093 78.1736C33.9093 81.0176 36.9257 83.3231 40.6467 83.3231Z" fill="#EED6CE"/>
<path d="M59.2864 43.9079C59.2864 48.2264 64.4211 51.7286 70.7578 51.7286C77.0945 51.7286 79.5877 46.9501 79.5877 42.6317C79.5877 38.3132 77.0945 36.0872 70.7578 36.0872C64.4211 36.0872 59.2864 39.5894 59.2864 43.9079Z" fill="#EED6CE"/>
<path d="M73.0726 44.5906C74.7792 45.1397 76.1891 44.0415 76.3226 43.0027C76.4265 42.1123 75.6103 40.9251 74.2747 40.5541" stroke="#C0A59B" stroke-width="0.5" stroke-miterlimit="10"/>
<path d="M74.9573 42.7058C73.221 43.062 72.3751 44.7537 72.6719 45.7332" stroke="#C0A59B" stroke-width="0.5" stroke-miterlimit="10"/>
<path d="M71.277 50.1407C70.5647 50.1407 69.793 52.9307 69.793 55.2754C69.793 58.1099 70.4608 60.4101 71.277 60.4101C72.0932 60.4101 72.761 57.1156 72.761 55.5425C72.761 54.3257 72.479 52.99 72.3306 51.6248" stroke="#FCB52D" stroke-width="0.5" stroke-miterlimit="10"/>
<path d="M4.77857 42.6613C5.01601 42.78 5.72833 39.1145 9.08219 37.0814C12.6438 34.9296 15.4931 36.8291 21.7854 36.7104C24.6792 36.651 31.6243 36.5175 36.7145 32.1248C39.8606 29.4091 43.5558 23.9627 41.9679 20.223C39.7122 14.8806 26.8161 13.3669 18.1644 18.1602C6.35163 24.6899 3.7546 42.2012 4.77857 42.6761V42.6613Z" fill="#F47E48"/>
<path d="M38.777 20.5196C36.6549 24.7787 39.6971 32.4065 44.6982 35.0777C49.9813 37.8973 54.8192 33.7866 61.0966 37.6302C62.0315 38.209 64.4653 39.7375 65.8009 42.6462C68.2198 47.9293 64.9995 53.4795 65.6228 53.7169C66.35 54.0137 72.3305 47.0685 72.3009 37.838C72.3009 37.0514 72.0783 25.4762 62.8032 19.4511C54.5669 14.1086 41.6709 14.7319 38.7919 20.5047L38.777 20.5196Z" fill="#F47E48"/>
<path d="M21.8001 44.9022C21.8001 49.2206 16.6654 52.7229 10.3287 52.7229C3.99194 52.7229 1.49878 47.9444 1.49878 43.6259C1.49878 39.3074 3.99194 37.0814 10.3287 37.0814C16.6654 37.0814 21.8001 40.5837 21.8001 44.9022Z" fill="#EED6CE"/>
<path d="M8.22126 46.0891C6.51465 46.6382 5.10483 45.54 4.97127 44.5012C4.86739 43.6108 5.68358 42.4236 7.01919 42.0526" stroke="#C0A59B" stroke-width="0.5" stroke-miterlimit="10"/>
<path d="M6.33667 44.2043C8.07296 44.5605 8.91884 46.2523 8.62204 47.2317" stroke="#C0A59B" stroke-width="0.5" stroke-miterlimit="10"/>
<path d="M11.0855 51.2241C11.7978 51.2241 12.5695 54.0141 12.5695 56.3588C12.5695 59.1933 11.9017 61.4935 11.0855 61.4935C10.2692 61.4935 9.60144 58.199 9.60144 56.6259C9.60144 55.409 9.88339 54.0734 10.0318 52.7081" stroke="#FCB52D" stroke-width="0.5" stroke-miterlimit="10"/>
<path d="M23.2005 25.4116C30.4328 23.3076 34.889 16.7663 33.1537 10.801C31.4184 4.83576 24.1487 1.70552 16.9164 3.80943C9.68408 5.91334 5.22793 12.4547 6.96326 18.42C8.69858 24.3852 15.9683 27.5155 23.2005 25.4116Z" fill="#F47E48"/>
<path d="M73.6398 20.3095C75.7044 14.45 71.6191 7.6708 64.5151 5.16769C57.4111 2.66458 49.9785 5.38544 47.9139 11.2449C45.8493 17.1043 49.9346 23.8835 57.0386 26.3867C64.1426 28.8898 71.5752 26.1689 73.6398 20.3095Z" fill="#F47E48"/>
<path d="M51.8958 35.642C51.8958 35.7607 58.559 34.1876 62.9962 37.868C67.5817 41.6671 67.1217 48.8497 67.2108 48.8348C67.2998 48.82 68.1605 41.2812 63.2039 37.3041C58.5441 33.5495 51.8958 35.5233 51.8958 35.6568V35.642Z" fill="#F26530"/>
<path d="M49.1803 18.2197C49.1803 18.3681 46.1381 17.5964 43.5114 19.3327C41.8047 20.4606 41.1072 22.093 40.9885 22.0188C40.855 21.9297 41.4634 19.8966 43.1255 18.7094C45.6483 16.9138 49.1951 18.0713 49.1951 18.2197H49.1803Z" fill="#F26530"/>
<path d="M50.0112 20.7867C50.0408 20.9796 47.7555 20.9648 44.8913 22.3598C42.1459 23.6954 40.7806 25.3872 40.647 25.2536C40.5135 25.1052 41.9381 22.805 44.5203 21.5436C47.1915 20.2376 49.9815 20.5938 50.0112 20.7867Z" fill="#F26530"/>
<path d="M40.2911 22.0927C40.1724 22.1818 38.8665 19.5551 35.943 18.5904C33.895 17.9226 32.1291 18.442 32.1142 18.264C32.0994 18.0859 34.0434 17.2548 36.0172 17.7594C39.0149 18.5311 40.4247 21.974 40.2911 22.0779V22.0927Z" fill="#F26530"/>
<path d="M39.8754 25.1794C39.7567 25.2982 38.2727 23.3986 35.3343 22.1075C32.6186 20.9203 30.4222 21.039 30.4371 20.8758C30.4519 20.6977 33.1232 20.2822 35.7647 21.4546C38.4953 22.6566 39.9941 25.0459 39.8754 25.1794Z" fill="#F26530"/>
<path d="M47.9189 15.9935C47.9189 15.9935 46.242 15.8897 44.0456 16.602C41.9383 17.2846 40.6769 18.368 40.6324 18.3086C40.5879 18.2492 41.8196 17.0175 43.734 16.3497C45.9155 15.578 47.904 15.9045 47.904 15.9935H47.9189Z" fill="#F26530"/>
<path d="M33.2865 15.4891C33.2865 15.4891 34.3253 15.5782 35.8241 16.0085C38.7328 16.8544 40.4691 18.4126 40.5285 18.3236C40.5878 18.2494 39.3561 16.9583 37.412 16.1718C35.3048 15.311 33.3013 15.4149 33.2865 15.4891Z" fill="#F26530"/>
<path d="M37.7089 27.9992C37.6496 27.8953 32.7672 31.4273 25.5104 32.941C16.3837 34.8405 9.18625 32.3325 9.17141 32.4364C9.15657 32.5403 17.0367 35.4638 26.4453 33.2377C33.1679 31.6499 37.7535 28.1179 37.6941 28.014L37.7089 27.9992Z" fill="#F26530"/>
<path d="M34.3547 26.7673C34.3102 26.6931 29.8879 29.2605 23.3285 30.3586C15.0774 31.7388 8.57746 29.9134 8.56262 29.9876C8.56262 30.0618 15.671 32.184 24.1744 30.5664C30.244 29.4089 34.3844 26.8415 34.3399 26.7673H34.3547Z" fill="#F26530"/>
<path d="M15.6265 36.6363C15.0626 36.5472 14.6471 33.3566 16.0718 30.6706C17.6448 27.7174 21.0135 26.1888 21.4142 26.6044C21.6962 26.916 20.2863 28.1477 18.3126 31.6055C16.4131 34.9445 16.0569 36.7105 15.6265 36.6363Z" stroke="#F494BA" stroke-miterlimit="10"/>
<path d="M9.05248 37.0813C8.38467 36.9626 7.83557 33.1784 9.45314 30.0323C11.234 26.5745 15.1369 24.8234 15.6118 25.3428C15.9531 25.7138 14.3356 27.1384 12.0947 31.1898C9.94289 35.0927 9.57187 37.1703 9.06731 37.0813H9.05248Z" stroke="#F494BA" stroke-miterlimit="10"/>
<path d="M70.2087 12.1055C70.1048 12.0759 70.0306 15.4001 67.8491 18.5907C65.5044 22.0336 62.1208 23.2505 62.1654 23.3098C62.2099 23.3692 66.3058 22.0187 68.6208 18.1603C70.3868 15.2071 70.3126 12.1352 70.2087 12.1055Z" fill="#F26530"/>
<path d="M66.9288 10.1318C66.8249 10.1318 67.5372 13.3818 66.1719 16.988C64.7028 20.8909 61.7199 22.8795 61.7644 22.924C61.8238 22.9685 65.4745 20.6831 66.8101 16.3944C67.834 13.1147 67.0327 10.1318 66.9288 10.1318Z" fill="#F26530"/>
<path d="M53.3353 18.6351C53.4392 18.6351 52.7566 15.3852 54.1515 11.779C55.6504 7.8909 58.6481 5.93201 58.6036 5.88749C58.5442 5.82813 54.8787 8.09866 53.4986 12.3726C52.4449 15.6523 53.2314 18.6351 53.3353 18.6351Z" fill="#F26530"/>
<path d="M76.5307 16.5279C76.4119 16.5873 75.6848 12.8179 72.6574 11.3784C70.0901 10.1615 67.404 11.3487 67.3298 10.9926C67.2407 10.6364 69.7932 8.98915 72.1528 9.65695C75.7441 10.6661 76.6939 16.4537 76.5455 16.5131L76.5307 16.5279Z" fill="#F47E48"/>
<path d="M74.9576 11.2446C74.8241 11.4078 73.5479 9.98317 71.0844 9.52313C68.71 9.07793 67.0033 9.86445 66.9143 9.58249C66.8253 9.28569 68.4874 8.02428 70.4166 8.09848C73.2065 8.20236 75.1209 11.022 74.9428 11.2446H74.9576Z" fill="#F47E48"/>
<path d="M17.5411 23.8292C17.6153 23.7402 14.6918 22.1671 12.8368 18.7836C10.8334 15.1329 11.2786 11.5713 11.2192 11.5713C11.145 11.5713 10.4921 15.8452 12.8813 19.6592C14.7066 22.5827 17.4817 23.9034 17.5559 23.8292H17.5411Z" fill="#F26530"/>
<path d="M28.6414 7.08949C28.5375 7.11917 30.2293 9.98331 30.0809 13.8417C29.9176 18.0118 27.7065 20.8314 27.7658 20.8611C27.84 20.8908 30.5854 17.5666 30.4964 13.0701C30.437 9.62715 28.7304 7.05981 28.6414 7.08949Z" fill="#F26530"/>
<path d="M7.36072 17.0474C7.4646 17.0622 7.39039 13.7529 9.40864 10.4584C11.5901 6.91158 14.8995 5.53146 14.8698 5.4721C14.8253 5.41274 10.8036 6.95611 8.66664 10.9184C7.03422 13.9458 7.25684 17.0177 7.36072 17.0474Z" fill="#F26530"/>
<path d="M17.2592 4.61114C17.2592 4.61114 30.8675 1.58375 34.1917 7.31204C37.1894 12.4912 29.9029 21.5289 29.7545 21.4547C29.6061 21.3805 36.5216 12.2835 33.4497 7.31204C30.1552 1.93991 17.2592 4.61114 17.2592 4.61114Z" fill="#F47E48"/>
<path d="M67.9379 8.06892C67.9379 8.06892 77.4208 18.2789 74.1559 24.0369C71.2028 29.2458 59.7165 27.5243 59.7017 27.3611C59.7017 27.1978 71.0247 28.5483 73.7849 23.3987C76.753 17.8337 67.9231 8.06892 67.9379 8.05408V8.06892Z" fill="#F47E48"/>
<path d="M50.8127 47.2766C54.7877 47.2766 58.0101 45.9079 58.0101 44.2195C58.0101 42.5312 54.7877 41.1625 50.8127 41.1625C46.8377 41.1625 43.6152 42.5312 43.6152 44.2195C43.6152 45.9079 46.8377 47.2766 50.8127 47.2766Z" fill="#F5F1EB"/>
<path d="M29.9473 46.7124C33.9224 46.7124 37.1448 45.3437 37.1448 43.6553C37.1448 41.967 33.9224 40.5983 29.9473 40.5983C25.9723 40.5983 22.7499 41.967 22.7499 43.6553C22.7499 45.3437 25.9723 46.7124 29.9473 46.7124Z" fill="#F5F1EB"/>
<path d="M41.4091 57.8199C45.0772 57.1479 47.9562 56.087 47.8396 55.4501C47.7229 54.8132 44.6547 54.8416 40.9866 55.5135C37.3185 56.1854 34.4394 57.2464 34.5561 57.8833C34.6727 58.5202 37.7409 58.4918 41.4091 57.8199Z" stroke="#ED5CA2" stroke-miterlimit="10"/>
<path d="M56.9713 76.5559H24.3082C17.3927 76.5559 11.3825 80.5627 8.42932 86.3504L72.3308 85.4451C69.2293 80.1472 63.501 76.5559 56.9565 76.5559H56.9713Z" fill="#9ACF8B"/>
<path d="M25.6436 77.684C22.913 74.5972 9.58659 77.7433 -0.00012207 86.4842L22.913 86.1577C25.4804 81.7353 26.9495 79.168 25.6436 77.684Z" fill="#9ACF8B"/>
<path d="M54.8638 77.6839C53.6024 79.1086 54.9232 81.5424 57.3124 85.6679L79.2165 85.3563C69.7633 77.4762 57.4757 74.7308 54.8638 77.6839Z" fill="#9ACF8B"/>
<path d="M29.9473 46.6682C31.3406 46.6682 32.4701 45.5387 32.4701 44.1454C32.4701 42.7521 31.3406 41.6226 29.9473 41.6226C28.554 41.6226 27.4244 42.7521 27.4244 44.1454C27.4244 45.5387 28.554 46.6682 29.9473 46.6682Z" fill="#262520"/>
<path d="M50.8125 47.2617C52.2058 47.2617 53.3353 46.1322 53.3353 44.7389C53.3353 43.3456 52.2058 42.2161 50.8125 42.2161C49.4192 42.2161 48.2897 43.3456 48.2897 44.7389C48.2897 46.1322 49.4192 47.2617 50.8125 47.2617Z" fill="#262520"/>
<path d="M37.7087 44.2193C37.308 44.9167 34.4439 42.8243 29.9325 42.7056C25.0946 42.5869 21.8001 44.8129 21.444 44.1451C21.1917 43.6553 22.7499 42.1565 24.4417 41.3403C25.8812 40.6428 27.2464 40.6279 29.9325 40.5983C32.396 40.5686 33.6574 40.5686 34.8743 41.177C36.5809 42.0229 38.0055 43.6999 37.6939 44.2341L37.7087 44.2193Z" fill="#EED6CE"/>
<path d="M42.6949 44.4569C43.0955 45.1544 45.9597 43.062 50.4711 42.9432C55.3089 42.8245 58.6034 45.0505 58.9596 44.3827C59.2119 43.893 57.6537 42.3942 55.9619 41.5779C54.5224 40.8805 53.1571 40.8656 50.4711 40.8359C48.0076 40.8063 46.7462 40.8063 45.5293 41.4147C43.8227 42.2606 42.3981 43.9375 42.7097 44.4718L42.6949 44.4569Z" fill="#EED6CE"/>
<path d="M40.6026 82.4327C44.7333 82.4327 48.082 80.5591 48.082 78.2478C48.082 75.9365 44.7333 74.0629 40.6026 74.0629C36.4718 74.0629 33.1232 75.9365 33.1232 78.2478C33.1232 80.5591 36.4718 82.4327 40.6026 82.4327Z" fill="#EED6CE"/>
<path d="M35.9427 82.5959C37.1557 82.5959 38.139 81.5262 38.139 80.2066C38.139 78.8871 37.1557 77.8174 35.9427 77.8174C34.7297 77.8174 33.7463 78.8871 33.7463 80.2066C33.7463 81.5262 34.7297 82.5959 35.9427 82.5959Z" fill="#8DADDB"/>
<path d="M40.6026 84.2136C42.0287 84.2136 43.1848 82.9578 43.1848 81.4088C43.1848 79.8597 42.0287 78.604 40.6026 78.604C39.1765 78.604 38.0204 79.8597 38.0204 81.4088C38.0204 82.9578 39.1765 84.2136 40.6026 84.2136Z" fill="#5C74B8"/>
<path d="M49.2546 79.9988C50.6806 79.9988 51.8367 78.7431 51.8367 77.1941C51.8367 75.645 50.6806 74.3893 49.2546 74.3893C47.8285 74.3893 46.6724 75.645 46.6724 77.1941C46.6724 78.7431 47.8285 79.9988 49.2546 79.9988Z" fill="#5C74B8"/>
<path d="M31.9358 80.2069C33.3619 80.2069 34.518 78.9511 34.518 77.4021C34.518 75.853 33.3619 74.5973 31.9358 74.5973C30.5097 74.5973 29.3536 75.853 29.3536 77.4021C29.3536 78.9511 30.5097 80.2069 31.9358 80.2069Z" fill="#5C74B8"/>
<path d="M45.2028 82.3884C46.4158 82.3884 47.3992 81.3187 47.3992 79.9991C47.3992 78.6796 46.4158 77.6099 45.2028 77.6099C43.9898 77.6099 43.0065 78.6796 43.0065 79.9991C43.0065 81.3187 43.9898 82.3884 45.2028 82.3884Z" fill="#8DADDB"/>
</svg>
