<svg width="93" height="49" viewBox="0 0 93 49" fill="none" xmlns="http://www.w3.org/2000/svg">
<circle cx="24.08" cy="24.08" r="24.08" fill="#F296BD"/>
<path d="M29.6844 37.1871H16.2418C12.3315 37.1871 9.13373 33.5131 9.13373 29.0305V27.8956C9.13373 26.3069 9.353 24.7252 9.78546 23.2144C11.7833 16.1571 13.3669 12.7171 14.5364 12.8874C15.2612 13.0009 15.8337 14.5045 16.2357 17.4196H29.6783C30.4518 14.6322 31.2558 13.2278 32.0964 13.1994C33.4729 13.1569 34.9408 16.8238 36.5001 24.2145C36.6828 25.094 36.7803 25.9948 36.7803 26.8956V29.0234C36.7803 33.5131 33.5826 37.1801 29.6722 37.1801L29.6844 37.1871Z" fill="#252520"/>
<path d="M29.1911 18.6612C29.1911 20.7252 31.2985 22.3991 33.8994 22.3991C36.5002 22.3991 37.5234 20.1152 37.5234 18.0512C37.5234 15.9873 36.5002 14.9233 33.8994 14.9233C31.2985 14.9233 29.1911 16.5972 29.1911 18.6612Z" fill="#CFB2A4"/>
<path d="M16.1566 18.6612C16.1566 20.7252 14.0491 22.3991 11.4483 22.3991C8.84749 22.3991 7.82422 20.1152 7.82422 18.0512C7.82422 15.9873 8.84749 14.9233 11.4483 14.9233C14.0491 14.9233 16.1566 16.5972 16.1566 18.6612Z" fill="#CFB2A4"/>
<path d="M36.0432 20.3278C36.0432 26.6971 29.2945 33.8466 23.3437 33.8466C17.3929 33.8466 9.93158 26.1935 9.93158 19.8243C9.93158 13.455 17.3929 10.7881 23.3437 10.7881C29.2945 10.7881 36.0432 13.9515 36.0432 20.3207V20.3278Z" fill="#CFB2A4"/>
<path d="M10.504 19.3492C9.80353 19.6116 9.2249 19.0867 9.17008 18.5902C9.12745 18.1647 9.46244 17.5972 10.0106 17.4199" stroke="#977C6F" stroke-width="0.5" stroke-miterlimit="10"/>
<path d="M9.73065 18.4478C10.4433 18.618 10.7905 19.4266 10.6686 19.8947" stroke="#977C6F" stroke-width="0.5" stroke-miterlimit="10"/>
<path d="M34.7701 19.1148C35.4706 19.3772 36.0492 18.8523 36.104 18.3559C36.1467 17.9303 35.8117 17.3629 35.2635 17.1855" stroke="#977C6F" stroke-width="0.5" stroke-miterlimit="10"/>
<path d="M35.5438 18.2144C34.8312 18.3846 34.484 19.1932 34.6058 19.6613" stroke="#977C6F" stroke-width="0.5" stroke-miterlimit="10"/>
<path d="M24.3607 29.3569H21.6016L19.7804 41.1096L26.2063 41.1735L24.3607 29.3569Z" fill="#CFB2A4"/>
<path d="M29.6842 37.1875H14.4875C11.9536 37.1875 9.71219 38.7124 8.40265 41.0034L35.903 41.2587C34.6117 38.8259 32.3094 37.1875 29.6842 37.1875Z" fill="#F493B9"/>
<path d="M22.9599 40.3799C24.4871 40.3799 25.7252 39.278 25.7252 37.9187C25.7252 36.5594 24.4871 35.4575 22.9599 35.4575C21.4327 35.4575 20.1946 36.5594 20.1946 37.9187C20.1946 39.278 21.4327 40.3799 22.9599 40.3799Z" fill="#CFB2A4"/>
<path d="M17.8436 36.1946C17.8314 36.3294 15.5961 36.7762 13.4825 35.457C11.0645 33.9533 10.1508 30.9673 10.2178 30.9176C10.2726 30.8751 11.0279 32.9887 13.0014 34.5066C15.3524 36.3081 17.8619 36.0528 17.8436 36.1946Z" fill="#37342A"/>
<path d="M16.5584 34.7124C16.528 34.8401 14.2561 34.8188 12.374 33.0953C10.2239 31.1164 9.7732 27.9956 9.8402 27.9531C9.90111 27.9176 10.3214 30.1589 12.039 32.0598C14.0795 34.3153 16.5889 34.5777 16.5524 34.7124H16.5584Z" fill="#37342A"/>
<path d="M26.2185 27.8034C26.316 28.0587 25.6034 28.7467 24.8968 29.1014C23.8614 29.6191 22.9051 29.4063 22.5823 29.3283C21.5712 29.0801 20.6149 28.3779 20.688 28.1226C20.755 27.8743 21.7235 28.2928 23.3924 28.2006C25.1283 28.1013 26.1211 27.5339 26.2246 27.8034H26.2185Z" fill="#F4F0EB"/>
<path d="M19.8657 27.3846C19.9387 27.1931 21.2787 28.328 23.3862 28.2003C25.0003 28.101 26.6692 27.2995 26.7666 27.5407C26.7666 27.5548 26.7666 27.569 26.7666 27.5903C26.6448 27.9379 25.317 29.2358 23.508 29.25C21.431 29.2642 19.7865 27.5974 19.8657 27.3846Z" stroke="#F493BA" stroke-miterlimit="10"/>
<path d="M31.9198 23.3208C31.5909 23.8385 30.3118 25.8387 28.2896 25.7394C26.4867 25.6472 24.8057 23.9237 24.6595 22.0866C24.6412 21.8951 24.5742 20.9873 25.0493 20.2283C25.567 19.4056 26.4015 19.2637 28.0765 19.0226C32.3157 18.4055 32.5898 18.4764 32.8152 18.7814C33.5644 19.8099 32.6995 22.1008 31.9259 23.3208H31.9198Z" stroke="black" stroke-miterlimit="10"/>
<path d="M14.0611 23.3984C14.39 23.9162 15.6691 25.9163 17.6913 25.817C19.4942 25.7248 21.1753 24.0013 21.3215 22.1643C21.3397 21.9728 21.4067 21.0649 20.9316 20.306C20.4139 19.4832 19.5795 19.3414 17.9045 19.1002C13.6652 18.4831 13.3911 18.5541 13.1658 18.859C12.4166 19.8875 13.2815 22.1785 14.055 23.3984H14.0611Z" stroke="black" stroke-miterlimit="10"/>
<path d="M21.4128 22.3847C21.4128 22.8245 22.0646 21.3988 23.0939 21.5123C24.0807 21.6258 24.3426 22.867 24.5679 22.6755" stroke="black" stroke-miterlimit="10"/>
<path d="M12.9891 19.2922C12.4105 18.668 11.838 18.0509 11.2593 17.4268" stroke="black" stroke-miterlimit="10"/>
<path d="M33.7712 16.6826C33.5397 17.704 33.3022 18.7253 33.0707 19.7467" stroke="black" stroke-miterlimit="10"/>
<path d="M28.1676 15.6607C28.3808 15.0649 28.9716 17.5332 29.1056 18.051H34.5813C34.5813 11.8803 29.2944 6.87988 22.7711 6.87988C16.2477 6.87988 10.9608 11.8803 10.9608 18.051H27.3453C27.4489 17.5899 27.8569 16.526 28.1676 15.6607Z" fill="#252520"/>
<path d="M13.3546 17.8738C13.2388 17.8597 12.8551 15.2566 13.988 12.7954C15.2793 9.97961 17.8436 8.9157 17.8862 8.99372C17.9227 9.05755 16.1077 9.93706 14.8042 12.2351C13.2571 14.9729 13.4764 17.8951 13.3546 17.8738Z" fill="#37342A"/>
<path d="M16.2416 14.2424C16.1503 14.207 16.2416 12.0011 17.5329 10.2279C19.013 8.1994 21.2605 7.85894 21.2849 7.92987C21.3032 7.99371 19.6952 8.32707 18.2821 9.93712C16.601 11.8522 16.3391 14.2779 16.2416 14.2353V14.2424Z" fill="#37342A"/>
<path d="M23.8431 7.63888C23.8553 7.58213 27.8936 7.6105 30.9025 10.8803C33.4546 13.6535 33.9967 17.3843 33.9236 17.4198C33.8444 17.4623 33.1439 13.5613 30.2812 10.7171C27.3454 7.80201 23.837 7.68853 23.8492 7.63888H23.8431Z" fill="#37342A"/>
<path d="M10.5467 38.088C9.83409 37.7901 8.44536 39.0313 6.88 40.9889L11.2594 41.0315C11.2715 39.4143 11.0644 38.3078 10.5467 38.088Z" fill="#F493B9"/>
<path d="M33.9479 38.0878C33.4058 38.3148 33.2109 39.5135 33.2413 41.237L37.84 41.2796C36.1832 39.1588 34.6971 37.7757 33.9479 38.0878Z" fill="#F493B9"/>
<path d="M28.5454 23.3138C30.1769 23.3138 31.4995 22.6597 31.4995 21.8527C31.4995 21.0458 30.1769 20.3916 28.5454 20.3916C26.9139 20.3916 25.5913 21.0458 25.5913 21.8527C25.5913 22.6597 26.9139 23.3138 28.5454 23.3138Z" fill="#F4F0EB"/>
<path d="M28.5452 23.307C29.117 23.307 29.5806 22.7672 29.5806 22.1013C29.5806 21.4353 29.117 20.8955 28.5452 20.8955C27.9733 20.8955 27.5097 21.4353 27.5097 22.1013C27.5097 22.7672 27.9733 23.307 28.5452 23.307Z" fill="#252520"/>
<path d="M25.2136 21.9663C25.3781 22.2996 26.5536 21.2995 28.4052 21.2428C30.3909 21.1861 31.743 22.25 31.8892 21.9308C31.9928 21.6967 31.3532 20.9804 30.6589 20.5903C30.0681 20.2569 29.5077 20.2498 28.4052 20.2356C27.3942 20.2214 26.8764 20.2214 26.377 20.5122C25.6765 20.9165 25.0918 21.718 25.2197 21.9734L25.2136 21.9663Z" fill="#CFB2A4"/>
<path d="M17.3746 23.3138C19.0061 23.3138 20.3287 22.6597 20.3287 21.8527C20.3287 21.0458 19.0061 20.3916 17.3746 20.3916C15.7431 20.3916 14.4205 21.0458 14.4205 21.8527C14.4205 22.6597 15.7431 23.3138 17.3746 23.3138Z" fill="#F4F0EB"/>
<path d="M17.3746 23.307C17.9465 23.307 18.4101 22.7672 18.4101 22.1013C18.4101 21.4353 17.9465 20.8955 17.3746 20.8955C16.8028 20.8955 16.3392 21.4353 16.3392 22.1013C16.3392 22.7672 16.8028 23.307 17.3746 23.307Z" fill="#252520"/>
<path d="M20.7123 21.9663C20.5479 22.2996 19.3723 21.2995 17.5207 21.2428C15.5351 21.1861 14.1829 22.25 14.0367 21.9308C13.9332 21.6967 14.5727 20.9804 15.2671 20.5903C15.8579 20.2569 16.4182 20.2498 17.5207 20.2356C18.5318 20.2214 19.0495 20.2214 19.549 20.5122C20.2494 20.9165 20.8341 21.718 20.7062 21.9734L20.7123 21.9663Z" fill="#CFB2A4"/>
<circle cx="44.72" cy="24.08" r="24.08" fill="#FCCA59"/>
<path d="M60.8251 36.145C57.272 34.168 52.1482 34.3305 51.222 36.2696C50.9728 36.7896 51.0974 37.2879 51.4711 37.8403H63.0188C62.4175 37.2174 61.7026 36.6325 60.8306 36.145H60.8251Z" fill="#FAA830"/>
<path d="M40.9689 36.4851C40.086 34.5244 34.973 34.2265 31.3711 36.1114C30.4449 36.5989 29.6812 37.1947 29.0475 37.8338H40.8172C41.0934 37.3734 41.1693 36.9401 40.9634 36.4797L40.9689 36.4851Z" fill="#FAA830"/>
<path d="M46.0167 33.0034C42.6423 33.0034 36.9498 33.0034 32.7358 37.8402H59.8284C55.4032 32.9817 48.7141 33.0088 46.0167 33.0034Z" fill="#FAA830"/>
<path d="M58.4365 37.0704C58.5503 34.7414 56.66 32.8727 56.01 32.239C53.2639 29.5363 49.5917 29.4984 46.1739 29.4713C42.5667 29.4388 38.694 29.4063 36.0237 32.239C35.5633 32.7265 33.738 34.6655 33.9168 37.0704C33.9384 37.3304 33.9763 37.585 34.0413 37.8395H58.3282C58.3878 37.585 58.4257 37.3304 58.4365 37.0704Z" fill="#FAA830"/>
<path d="M57.6998 21.911C57.6998 26.7748 51.6985 32.2345 46.4068 32.2345C41.115 32.2345 34.48 26.3903 34.48 21.5264C34.48 16.6625 41.115 14.626 46.4068 14.626C51.6985 14.626 57.6998 17.0417 57.6998 21.9055V21.911Z" fill="#EDD5CD"/>
<path d="M52.8956 23.0693C52.8956 24.6454 54.7697 25.9237 57.0825 25.9237C59.3952 25.9237 60.3052 24.1796 60.3052 22.6034C60.3052 21.0273 59.3952 20.2148 57.0825 20.2148C54.7697 20.2148 52.8956 21.4931 52.8956 23.0693Z" fill="#EDD5CD"/>
<path d="M39.2086 23.432C39.2086 25.0082 37.3345 26.2865 35.0217 26.2865C32.709 26.2865 31.799 24.5424 31.799 22.9662C31.799 21.3901 32.709 20.5776 35.0217 20.5776C37.3345 20.5776 39.2086 21.8559 39.2086 23.432Z" fill="#EDD5CD"/>
<path d="M34.1823 23.9635C33.5594 24.1639 33.0448 23.7631 32.9961 23.3839C32.9582 23.0589 33.2561 22.6256 33.7435 22.4902" stroke="#BFA49B" stroke-width="0.5" stroke-miterlimit="10"/>
<path d="M33.4943 23.2754C34.128 23.4054 34.4367 24.0228 34.3284 24.3803" stroke="#BFA49B" stroke-width="0.5" stroke-miterlimit="10"/>
<path d="M57.8568 23.4161C58.4797 23.6165 58.9942 23.2157 59.043 22.8366C59.0809 22.5116 58.783 22.0783 58.2955 21.9429" stroke="#BFA49B" stroke-width="0.5" stroke-miterlimit="10"/>
<path d="M58.5447 22.729C57.911 22.859 57.6023 23.4765 57.7106 23.8339" stroke="#BFA49B" stroke-width="0.5" stroke-miterlimit="10"/>
<path d="M36.587 19.4943C35.9533 21.3142 35.9045 22.2241 35.5037 22.2621C34.9404 22.3108 34.0142 20.6534 34.1821 19.1043C34.48 16.4341 38.0007 14.7008 38.4611 15.1342C38.759 15.4104 37.6486 16.4341 36.587 19.4889V19.4943Z" fill="#252520"/>
<path d="M55.4305 19.4943C56.0642 21.3142 56.113 22.2241 56.5138 22.2621C57.0771 22.3108 58.0033 20.6534 57.8354 19.1043C57.5375 16.4341 54.0169 14.7008 53.5565 15.1342C53.2586 15.4104 54.3689 16.4341 55.4305 19.4889V19.4943Z" fill="#252520"/>
<path d="M57.0284 13.9751H35.0164C34.2296 13.9751 33.5919 14.6129 33.5919 15.3996V16.9649C33.5919 17.7516 34.2296 18.3894 35.0164 18.3894H57.0284C57.8151 18.3894 58.4529 17.7516 58.4529 16.9649V15.3996C58.4529 14.6129 57.8151 13.9751 57.0284 13.9751Z" fill="#8DADDB"/>
<path d="M35.184 16.6022C35.184 11.2346 40.0641 6.87988 46.0925 6.87988C53.1879 6.87988 58.1818 14.4303 57.001 16.6022C56.2211 18.0321 52.1426 18.2109 39.2138 13.9753" fill="#8DADDB"/>
<path d="M36.1808 13.9751C36.0291 14.5167 35.8179 15.275 35.8829 16.185C35.9479 17.1274 36.1862 17.8315 36.1808 18.4002" stroke="#5B74B8" stroke-width="0.75" stroke-miterlimit="10"/>
<path d="M37.5512 13.9751C37.5512 14.5276 37.2966 15.3021 37.2966 16.185C37.2966 17.0678 37.5512 17.7936 37.5512 18.4002" stroke="#5B74B8" stroke-width="0.75" stroke-miterlimit="10"/>
<path d="M39.2086 13.9751V18.4002" stroke="#5B74B8" stroke-width="0.75" stroke-miterlimit="10"/>
<path d="M42.1278 13.9751V18.3948" stroke="#5B74B8" stroke-width="0.75" stroke-miterlimit="10"/>
<path d="M43.6716 13.9751V18.3948" stroke="#5B74B8" stroke-width="0.75" stroke-miterlimit="10"/>
<path d="M45.2153 13.9751V18.4002" stroke="#5B74B8" stroke-width="0.75" stroke-miterlimit="10"/>
<path d="M48.2971 13.9751V18.4002" stroke="#5B74B8" stroke-width="0.75" stroke-miterlimit="10"/>
<path d="M51.3844 13.981V18.4007" stroke="#5B74B8" stroke-width="0.75" stroke-miterlimit="10"/>
<path d="M52.928 13.9751V18.4002" stroke="#5B74B8" stroke-width="0.75" stroke-miterlimit="10"/>
<path d="M55.8528 13.9751C56.0045 14.5167 56.2157 15.275 56.1507 16.185C56.0857 17.1274 55.8474 17.8315 55.8528 18.4002" stroke="#5B74B8" stroke-width="0.75" stroke-miterlimit="10"/>
<path d="M54.4825 13.9751C54.4825 14.5276 54.7371 15.3021 54.7371 16.185C54.7371 17.0678 54.4825 17.7936 54.4825 18.4002" stroke="#5B74B8" stroke-width="0.75" stroke-miterlimit="10"/>
<path d="M35.5849 13.976C35.417 13.9597 34.6695 13.911 34.1604 14.4201C33.83 14.7559 33.7758 15.1567 33.7 15.7742C33.6459 16.2075 33.5646 16.9333 33.9438 17.7024C34.1008 18.022 34.285 18.2495 34.4204 18.3957" stroke="#5B74B8" stroke-width="0.75" stroke-miterlimit="10"/>
<path d="M56.519 13.976C56.6869 13.9597 57.4343 13.911 57.9435 14.4201C58.2739 14.7559 58.328 15.1567 58.4039 15.7742C58.458 16.2075 58.5393 16.9333 58.1601 17.7024C58.0031 18.022 57.9381 18.3199 57.6402 18.2441" stroke="#5B74B8" stroke-width="0.75" stroke-miterlimit="10"/>
<path d="M35.585 13.981H56.5192" stroke="#5B74B8" stroke-width="0.75" stroke-miterlimit="10"/>
<path d="M34.35 18.249H57.857" stroke="#5B74B8" stroke-width="0.75" stroke-miterlimit="10"/>
<path d="M42.7778 7.34033C41.9329 7.88738 40.568 8.92732 39.4468 10.6605C38.6289 11.9226 38.2173 13.125 38.0006 13.9808" stroke="#5B74B8" stroke-width="0.75" stroke-miterlimit="10"/>
<path d="M56.519 13.9747C56.1832 13.0647 55.5279 11.6511 54.2496 10.3511C50.6261 6.66261 43.7906 5.6985 39.3547 8.95372C38.5368 9.55493 36.7927 11.0336 35.7257 13.9747" stroke="#5B74B8" stroke-width="0.75" stroke-miterlimit="10"/>
<path d="M53.8434 14.154C53.7838 13.347 53.5455 11.5866 52.2997 9.86424C51.5035 8.76473 50.5882 8.08769 49.9707 7.70312" stroke="#5B74B8" stroke-width="0.75" stroke-miterlimit="10"/>
<path d="M45.2152 6.98828C44.4028 7.65449 43.1787 8.84067 42.2308 10.6551C41.57 11.928 41.2505 13.1033 41.0934 13.9754" stroke="#5B74B8" stroke-width="0.75" stroke-miterlimit="10"/>
<path d="M49.3912 13.9802C49.4508 13.1732 49.4454 11.922 49.0229 10.4705C48.5463 8.81847 47.7392 7.65396 47.203 6.99316" stroke="#5B74B8" stroke-width="0.75" stroke-miterlimit="10"/>
<path d="M41.8355 23.0587C43.2863 23.0587 44.4624 22.5591 44.4624 21.9429C44.4624 21.3267 43.2863 20.8271 41.8355 20.8271C40.3847 20.8271 39.2086 21.3267 39.2086 21.9429C39.2086 22.5591 40.3847 23.0587 41.8355 23.0587Z" fill="#F4F0EB"/>
<path d="M50.924 23.0587C52.3749 23.0587 53.551 22.5591 53.551 21.9429C53.551 21.3267 52.3749 20.8271 50.924 20.8271C49.4732 20.8271 48.2971 21.3267 48.2971 21.9429C48.2971 22.5591 49.4732 23.0587 50.924 23.0587Z" fill="#F4F0EB"/>
<path d="M41.8353 22.9065C42.281 22.9065 42.6423 22.5452 42.6423 22.0995C42.6423 21.6538 42.281 21.2925 41.8353 21.2925C41.3896 21.2925 41.0283 21.6538 41.0283 22.0995C41.0283 22.5452 41.3896 22.9065 41.8353 22.9065Z" fill="#252520"/>
<path d="M51.0811 22.9065C51.5269 22.9065 51.8882 22.5452 51.8882 22.0995C51.8882 21.6538 51.5269 21.2925 51.0811 21.2925C50.6354 21.2925 50.2741 21.6538 50.2741 22.0995C50.2741 22.5452 50.6354 22.9065 51.0811 22.9065Z" fill="#252520"/>
<path d="M44.4676 21.6934C44.4134 21.8667 43.5739 21.5634 41.8407 21.5634C40.1074 21.5634 39.2679 21.8667 39.2137 21.6934C39.1433 21.4713 40.3891 20.5776 41.8407 20.5776C43.2922 20.5776 44.5434 21.4713 44.4676 21.6934Z" fill="#EDD5CD"/>
<path d="M53.5509 21.6934C53.4967 21.8667 52.6572 21.5634 50.924 21.5634C49.1907 21.5634 48.3512 21.8667 48.297 21.6934C48.2266 21.4713 49.4724 20.5776 50.924 20.5776C52.3755 20.5776 53.6267 21.4713 53.5509 21.6934Z" fill="#EDD5CD"/>
<path d="M47.3114 29.0386H44.8578L43.2654 37.8401H48.9092L47.3114 29.0386Z" fill="#EDD5CD"/>
<path d="M46.0872 37.4552C47.4453 37.4552 48.5462 36.6138 48.5462 35.5758C48.5462 34.5378 47.4453 33.6963 46.0872 33.6963C44.7291 33.6963 43.6282 34.5378 43.6282 35.5758C43.6282 36.6138 44.7291 37.4552 46.0872 37.4552Z" fill="#EDD5CD"/>
<path d="M40.3893 33.9229C38.0874 33.9229 35.4605 35.7752 35.0272 37.8389H45.497C44.3541 35.7102 42.648 33.9229 40.3893 33.9229Z" fill="#FAA830"/>
<path d="M57.6402 37.2929C57.3423 35.2563 53.93 33.8806 51.1948 34.1081C48.8332 34.303 46.6071 35.7221 45.4318 37.8399H57.6456C57.6673 37.6612 57.6673 37.477 57.6456 37.2929H57.6402Z" fill="#FAA830"/>
<path d="M48.4922 37.8402C48.4922 37.5261 48.2051 37.2715 47.8531 37.2715C47.501 37.2715 47.2139 37.5261 47.2139 37.8402H48.4868H48.4922Z" stroke="#EC5CA1" stroke-width="0.5" stroke-miterlimit="10"/>
<path d="M43.9207 37.8402C43.9207 37.5261 43.6336 37.2715 43.2816 37.2715C42.9295 37.2715 42.6425 37.5261 42.6425 37.8402H43.9153H43.9207Z" stroke="#EC5CA1" stroke-width="0.5" stroke-miterlimit="10"/>
<path d="M43.6823 37.5421C43.5252 37.423 43.3519 37.4013 43.3519 37.4013C43.3519 37.4013 43.1731 37.3796 42.9836 37.4555C42.8861 37.4934 42.8211 37.6396 42.7669 37.84H43.7743C43.7473 37.6775 43.7148 37.5692 43.6769 37.5421H43.6823Z" fill="#ED9626"/>
<path d="M48.2159 37.5198C48.048 37.4332 47.8801 37.4007 47.8801 37.4007C47.8801 37.4007 47.7014 37.3682 47.5226 37.4007C47.3872 37.4278 47.3277 37.5957 47.3168 37.8394H48.373C48.3243 37.6661 48.2701 37.5469 48.2105 37.5198H48.2159Z" fill="#ED9626"/>
<path d="M34.0249 35.6672C33.9762 35.6997 34.3228 36.7451 35.1624 37.8392H35.509C34.5233 36.7017 34.0737 35.6347 34.0195 35.6672H34.0249Z" fill="#ED9626"/>
<path d="M44.235 35.9605C42.8159 34.3898 41.2181 33.6748 41.1964 33.7019C41.1801 33.7236 42.4205 34.3194 43.78 35.6843C44.9066 36.8109 45.5186 37.8562 45.5457 37.84C45.5457 37.84 45.0799 36.8976 44.2295 35.9605H44.235Z" fill="#ED9626"/>
<path d="M46.4879 36.5939C48.6328 34.2595 51.5738 33.967 51.563 33.9237C51.5467 33.8804 48.4215 34.1295 46.3362 36.464C45.93 36.9189 45.6104 37.401 45.3667 37.8397H45.5454C45.7946 37.4443 46.1033 37.011 46.4879 36.5939Z" fill="#ED9626"/>
<path d="M58.1494 35.2891C58.1007 35.2566 57.4886 36.6216 56.4324 37.8402H56.7791C57.6999 36.6486 58.1982 35.3216 58.1494 35.2891Z" fill="#ED9626"/>
<path d="M46.3634 28.1543C47.4792 28.1543 48.3837 27.9312 48.3837 27.656C48.3837 27.3808 47.4792 27.1577 46.3634 27.1577C45.2477 27.1577 44.3431 27.3808 44.3431 27.656C44.3431 27.9312 45.2477 28.1543 46.3634 28.1543Z" fill="#F4F0EB"/>
<path d="M48.6763 27.2675C48.7684 27.5275 47.6526 28.3671 46.4069 28.3671C45.1557 28.3671 44.0399 27.5167 44.1374 27.2459C44.197 27.0726 44.7549 27.2188 46.6127 27.2188C48.1726 27.2188 48.6276 27.1159 48.6817 27.2675H48.6763Z" stroke="#F2B2CE" stroke-miterlimit="10"/>
<path d="M45.5619 27.2236C45.4806 27.2615 45.3235 27.3265 44.5869 27.4348C43.6932 27.5702 43.2491 27.6352 43.1841 27.5377C43.0162 27.2777 43.8665 26.2107 45.0311 25.9778C45.5998 25.8641 46.3797 25.9182 46.4881 26.2216C46.5964 26.514 46.0493 27.0015 45.5564 27.2236H45.5619Z" fill="#262520"/>
<path d="M47.306 27.2236C47.3872 27.2615 47.5443 27.3265 48.2809 27.4348C49.1746 27.5702 49.6187 27.6352 49.6837 27.5377C49.8516 27.2777 49.0013 26.2107 47.8368 25.9778C47.268 25.8641 46.4881 25.9182 46.3798 26.2216C46.2714 26.514 46.8185 27.0015 47.3114 27.2236H47.306Z" fill="#262520"/>
<path d="M31.371 36.1121C31.2139 36.0796 30.6452 35.9929 29.5782 36.4587C28.8199 36.7891 28.1374 37.2603 27.52 37.8399H33.4184C32.8605 36.8866 32.1834 36.2692 31.3656 36.1175L31.371 36.1121Z" fill="#FAA830"/>
<path d="M61.5345 36.1392C60.4675 35.6788 59.9042 35.7655 59.7417 35.7925C58.8372 35.9659 58.106 36.6971 57.5156 37.8345H63.9123C63.2136 37.1033 62.4282 36.5238 61.5345 36.1338V36.1392Z" fill="#FAA830"/>
<path d="M31.2086 37.2764C31.1869 37.2277 30.3799 37.3631 29.3887 37.8397H29.9249C30.6832 37.4714 31.2248 37.3143 31.2086 37.2764Z" fill="#ED9626"/>
<path d="M59.7041 37.0758C59.6824 37.1246 60.5111 37.3087 61.5727 37.8341H62.1523C60.8794 37.1679 59.7312 37.0162 59.7041 37.0758Z" fill="#ED9626"/>
<circle cx="68.8" cy="24.08" r="24.08" fill="#267F53"/>
<path d="M58.6434 30.0671C60.6337 30.0671 62.2472 28.4536 62.2472 26.4632C62.2472 24.4729 60.6337 22.8594 58.6434 22.8594C56.653 22.8594 55.0396 24.4729 55.0396 26.4632C55.0396 28.4536 56.653 30.0671 58.6434 30.0671Z" fill="#FDC760"/>
<path d="M63.7925 31.9367C65.7829 31.9367 67.3963 30.3232 67.3963 28.3328C67.3963 26.3425 65.7829 24.729 63.7925 24.729C61.8022 24.729 60.1887 26.3425 60.1887 28.3328C60.1887 30.3232 61.8022 31.9367 63.7925 31.9367Z" fill="#FDC760"/>
<path d="M67.2136 30.0671C67.2431 30.1143 65.3969 32.3616 63.0848 31.9192C60.7019 31.465 59.823 28.5395 59.8938 28.4923C59.9587 28.4451 61.0794 31.1878 63.2912 31.5712C65.3556 31.9251 67.1841 30.0258 67.2136 30.073V30.0671Z" fill="#FAA830"/>
<path d="M75.2647 25.3904C77.5591 23.7684 81.2161 23.4381 82.3898 25.125C83.6167 26.8885 81.8059 30.3803 79.1517 31.8018C77.0519 32.9284 73.7783 33.1112 72.6989 31.324C71.6137 29.531 73.3478 26.7352 75.2588 25.3845L75.2647 25.3904Z" fill="#FDC760"/>
<path d="M81.5816 21.7386C83.2508 19.4855 86.6246 18.0286 88.2702 19.2614C89.9866 20.5531 89.3614 24.4342 87.2793 26.6165C85.6396 28.3388 82.5843 29.5362 81.0036 28.1796C79.411 26.8112 80.1896 23.6202 81.5816 21.7386Z" fill="#FDC760"/>
<path d="M87.7455 26.0679C87.7985 26.1328 84.9851 29.3827 82.2542 28.7693C81.5051 28.6041 80.6911 28.1264 80.7265 28.032C80.7619 27.9317 81.6879 28.2738 82.5727 28.3446C85.4451 28.5924 87.7042 26.0089 87.7514 26.0679H87.7455Z" fill="#FAA830"/>
<path d="M78.9806 18.041C79.5173 15.2866 81.9356 12.5203 83.9528 12.9272C86.0585 13.3519 87.1615 17.1268 86.2296 19.9934C85.4923 22.2583 83.2509 24.653 81.2396 24.1045C79.2165 23.5559 78.5382 20.3414 78.9865 18.041H78.9806Z" fill="#FDC760"/>
<path d="M58.7908 22.6706C58.6493 23.1543 58.5431 23.4964 58.3249 23.9328C57.4814 25.5903 55.4878 27.4364 53.854 26.9764C52.6743 26.646 52.1317 25.2364 51.9724 24.8294C50.893 22.0277 52.2378 17.7574 54.9982 16.9965C56.4787 16.5895 58.5195 17.2383 59.0503 18.4474C59.5871 19.6684 59.2391 21.1724 58.7967 22.6706H58.7908Z" fill="#FDC760"/>
<path d="M83.9293 21.6978C83.9293 26.9945 77.394 32.9399 71.6314 32.9399C65.8688 32.9399 58.6434 26.5757 58.6434 21.279C58.6434 15.9824 65.8688 13.7646 71.6314 13.7646C77.394 13.7646 83.9293 16.3953 83.9293 21.6919V21.6978Z" fill="#957467"/>
<path d="M72.6164 29.46H69.9445L68.0217 40.1004H74.5511L72.6164 29.46Z" fill="#957467"/>
<path d="M71.2834 38.6261C72.7623 38.6261 73.9612 37.7098 73.9612 36.5794C73.9612 35.4491 72.7623 34.5327 71.2834 34.5327C69.8045 34.5327 68.6056 35.4491 68.6056 36.5794C68.6056 37.7098 69.8045 38.6261 71.2834 38.6261Z" fill="#957467"/>
<path d="M57.8942 16.5372C57.8942 18.5485 60.6251 20.1824 63.9989 20.1824C67.3728 20.1824 69.6908 16.5667 69.6908 14.5554C69.6908 12.5441 67.3728 12.898 63.9989 12.898C60.6251 12.898 57.8942 14.5318 57.8942 16.5431V16.5372Z" fill="#FDC760"/>
<path d="M61.7163 16.13C60.9259 18.3595 58.6964 20.9371 56.6733 20.5065C54.5499 20.0582 53.441 16.4662 53.9955 13.7766C54.6325 10.68 57.6701 7.7898 59.764 8.40322C61.8815 9.02254 62.778 13.1513 61.7222 16.13H61.7163Z" fill="#FDC760"/>
<path d="M71.6187 14.4976C73.4831 11.8742 73.0077 8.33551 70.5568 6.59379C68.106 4.85207 64.6078 5.56684 62.7434 8.19028C60.8791 10.8137 61.3545 14.3524 63.8053 16.0941C66.2562 17.8358 69.7543 17.121 71.6187 14.4976Z" fill="#FDC760"/>
<path d="M75.4595 16.5247C74.8814 16.1826 69.3665 12.8383 70.2572 9.95992C70.9591 7.70089 75.4005 6.39737 78.562 7.94862C81.4403 9.3583 83.0918 13.0447 82.095 15.522C82.0124 15.7284 81.458 17.0556 80.1191 17.5982C78.4617 18.2706 76.7158 17.2679 75.4595 16.5247Z" fill="#FDC760"/>
<path d="M78.6976 22.9595C78.6976 24.6759 80.7384 26.0679 83.2569 26.0679C85.7755 26.0679 86.7664 24.1686 86.7664 22.4522C86.7664 20.7358 85.7755 19.8511 83.2569 19.8511C80.7384 19.8511 78.6976 21.2431 78.6976 22.9595Z" fill="#957467"/>
<path d="M63.7925 23.355C63.7925 25.0714 61.7517 26.4634 59.2331 26.4634C56.7145 26.4634 55.7236 24.5641 55.7236 22.8477C55.7236 21.1313 56.7145 20.2466 59.2331 20.2466C61.7517 20.2466 63.7925 21.6386 63.7925 23.355Z" fill="#957467"/>
<path d="M58.3189 23.9329C57.6406 24.1512 57.0803 23.7147 57.0272 23.3018C56.9859 22.9479 57.3103 22.4761 57.8412 22.3286" stroke="#6D544A" stroke-width="0.5" stroke-miterlimit="10"/>
<path d="M57.5698 23.1846C58.2599 23.3261 58.5961 23.9985 58.4782 24.3878" stroke="#6D544A" stroke-width="0.5" stroke-miterlimit="10"/>
<path d="M84.1003 23.3377C84.7786 23.556 85.3389 23.1195 85.392 22.7066C85.4333 22.3527 85.1089 21.8809 84.578 21.7334" stroke="#6D544A" stroke-width="0.5" stroke-miterlimit="10"/>
<path d="M84.8494 22.5884C84.1593 22.7299 83.8231 23.4023 83.9411 23.7916" stroke="#6D544A" stroke-width="0.5" stroke-miterlimit="10"/>
<path d="M68.989 16.8555C69.048 16.9204 67.6914 19.2561 65.2495 20.017C61.4687 21.1966 57.6348 17.7874 57.6702 17.7107C57.7056 17.6341 61.4451 20.7012 65.1905 19.5864C67.5793 18.8786 68.9241 16.7906 68.9831 16.8555H68.989Z" fill="#FAA830"/>
<path d="M68.6586 16.1117C67.3728 13.6226 66.8301 10.2311 67.8623 9.60591C68.9417 8.9571 71.4426 11.4934 72.6281 14.2596C73.566 16.4479 73.973 19.4501 72.8641 19.9633C71.7552 20.4764 69.7262 18.1879 68.6527 16.1117H68.6586Z" fill="#FDC760"/>
<path d="M73.973 17.5984C72.1623 16.1356 70.7054 13.6406 71.3837 12.7146C72.0915 11.7473 74.9344 12.75 76.7452 14.4782C78.1785 15.8407 79.4053 18.082 78.6327 18.9432C77.86 19.8161 75.483 18.8134 73.973 17.5925V17.5984Z" fill="#FDC760"/>
<path d="M59.6344 29.9256C59.6344 29.961 57.8295 30.3502 56.4847 29.3475C54.7801 28.0794 54.9865 25.4488 55.016 25.4429C55.0514 25.437 54.9511 27.9673 56.5967 29.2178C57.9003 30.2028 59.6344 29.8902 59.6344 29.9256Z" fill="#FAA830"/>
<path d="M61.7694 13.8528C61.6809 13.8528 60.9141 11.2812 62.1174 8.96906C63.4386 6.4328 66.3936 5.64833 66.4408 5.7309C66.488 5.80758 63.7925 6.66873 62.4654 9.22858C61.2798 11.5112 61.8519 13.8528 61.7694 13.8528Z" fill="#FAA830"/>
<path d="M54.8152 18.6009C54.7267 18.6245 53.3465 16.4008 53.8007 13.8115C54.2195 11.4345 55.989 9.89502 56.0656 9.94811C56.1423 10.0012 54.6029 11.5111 54.2018 13.9589C53.783 16.5483 54.8919 18.5714 54.8093 18.595L54.8152 18.6009Z" fill="#FAA830"/>
<path d="M73.3654 19.3559C73.4008 19.3972 73.1354 19.8926 72.7284 20.0401C71.708 20.4058 70.0801 18.4948 69.3369 17.4213C68.4109 16.0765 68.0098 14.7847 68.0275 14.7788C68.0393 14.7729 68.346 15.5574 68.9889 16.6132C69.7321 17.8224 70.3514 18.4594 70.7112 18.7897C71.3423 19.3736 71.9321 19.9103 72.5632 19.7924C73.0174 19.7098 73.3241 19.3205 73.3654 19.3559Z" fill="#FAA830"/>
<path d="M77.9663 19.2801C77.9545 19.3273 76.6392 19.3037 75.2826 18.5959C73.7667 17.8055 72.9586 16.5492 72.994 16.5138C73.0235 16.4843 73.7844 17.546 75.2826 18.3599C76.7217 19.1444 77.9781 19.2329 77.9663 19.2801Z" fill="#FAA830"/>
<path d="M76.1908 7.29398C76.2203 7.2114 78.8981 7.32937 80.6853 9.22861C82.6435 11.3107 82.4135 14.3542 82.325 14.3778C82.2365 14.3955 82.3073 11.5643 80.3314 9.47044C78.5678 7.60069 76.1672 7.37656 76.1908 7.29398Z" fill="#FAA830"/>
<path d="M67.5674 24.1752C69.1473 24.1752 70.4281 23.6312 70.4281 22.9602C70.4281 22.2891 69.1473 21.7451 67.5674 21.7451C65.9875 21.7451 64.7068 22.2891 64.7068 22.9602C64.7068 23.6312 65.9875 24.1752 67.5674 24.1752Z" fill="#F5E7CF"/>
<path d="M76.2674 24.1752C77.8473 24.1752 79.1281 23.6312 79.1281 22.9602C79.1281 22.2891 77.8473 21.7451 76.2674 21.7451C74.6875 21.7451 73.4067 22.2891 73.4067 22.9602C73.4067 23.6312 74.6875 24.1752 76.2674 24.1752Z" fill="#F5E7CF"/>
<path d="M64.7009 22.9358C64.7009 22.2634 65.9809 21.7207 67.5616 21.7207C69.1423 21.7207 70.4223 22.2634 70.4223 22.9358" fill="#94807A"/>
<path d="M73.4067 22.9358C73.4067 22.2634 74.6867 21.7207 76.2674 21.7207C77.8481 21.7207 79.1281 22.2634 79.1281 22.9358" fill="#94807A"/>
<path d="M68.4698 22.9072C68.4698 23.4086 68.0628 23.8097 67.5674 23.8097C67.0719 23.8097 66.6649 23.4027 66.6649 22.9072" fill="#252520"/>
<path d="M77.2877 22.9419C77.2877 23.4432 76.8807 23.8443 76.3853 23.8443C75.8898 23.8443 75.4828 23.4373 75.4828 22.9419" fill="#252520"/>
<path d="M83.0859 20.6357C84.6398 20.6357 85.8994 19.3761 85.8994 17.8223C85.8994 16.2684 84.6398 15.0088 83.0859 15.0088C81.5321 15.0088 80.2725 16.2684 80.2725 17.8223C80.2725 19.3761 81.5321 20.6357 83.0859 20.6357Z" fill="#FDC760"/>
<path d="M73.9611 28.3335H69.2661" stroke="#252520" stroke-miterlimit="10"/>
<path d="M85.2034 38.2892C82.6141 34.5143 76.7217 34.5261 71.2894 34.5379C65.686 34.5497 60.4012 34.5556 57.9121 38.0651C57.3577 38.8437 57.0687 39.8641 56.9389 41.2561L85.8876 40.4067C85.7343 39.4335 85.5219 38.7434 85.2093 38.2892H85.2034Z" fill="#957467"/>
<path d="M59.4587 26.0413C59.6223 26.0413 59.755 25.9087 59.755 25.745C59.755 25.5814 59.6223 25.4487 59.4587 25.4487C59.295 25.4487 59.1624 25.5814 59.1624 25.745C59.1624 25.9087 59.295 26.0413 59.4587 26.0413Z" stroke="#AFB2B2" stroke-width="0.5" stroke-miterlimit="10"/>
<path d="M65.8982 38.6256C65.3084 37.1864 66.5883 35.1161 65.851 34.6796C65.7507 34.6206 65.6976 34.6619 64.5239 34.833C64.0638 34.8979 63.474 34.9863 62.6718 35.1456C61.734 35.3343 61.268 35.4287 61.1265 35.4936C59.9822 36.0421 60.7903 38.366 60.5367 41.1441L70.1037 40.861C68.1336 40.5779 66.3759 39.8052 65.8923 38.6138L65.8982 38.6256Z" fill="#F15849"/>
<path d="M81.8237 35.5824C81.5523 35.435 80.9861 35.317 79.8536 35.0752C79.6354 35.028 78.9394 34.8864 78.0134 34.7802C77.5238 34.7213 77.2761 34.68 77.2053 34.7095C76.3147 35.0575 77.4 37.7235 76.5093 39.2393C76.0669 39.9943 75.1232 40.4898 73.9672 40.7552L82.4135 40.5075C82.3309 38.0892 82.9384 36.2017 81.8178 35.5765L81.8237 35.5824Z" fill="#F15849"/>
<path d="M66.0989 34.6621C66.1343 36.349 65.3203 38.1657 66.7831 39.3748C68.2872 40.6194 70.3634 40.7963 70.9178 40.8376C71.4015 40.873 74.0085 41.0794 75.9313 39.7818C77.7067 38.5845 76.9517 36.3431 77.2113 34.6975" stroke="#2C835B" stroke-miterlimit="10"/>
<path d="M60.631 35.7476C60.6959 37.6114 60.9908 39.4222 60.631 41.2801" stroke="#2C835B" stroke-miterlimit="10"/>
<path d="M81.7881 35.8359C82.9206 37.11 82.5018 39.1508 82.4311 40.6961" stroke="#2C835B" stroke-miterlimit="10"/>
</svg>
