<svg width="27" height="27" viewBox="0 0 27 27" fill="none" xmlns="http://www.w3.org/2000/svg">
<path d="M13.8113 5.05081C15.6672 5.02202 17.4621 5.71924 18.8192 6.99615L22.4746 3.39181C20.1294 1.17588 17.0249 -0.0392105 13.8113 0.000965447C11.4101 0.000405976 9.05612 0.673403 7.01257 1.94469C4.96902 3.21599 3.31648 5.03545 2.23975 7.1996L6.42821 10.4787C6.94035 8.90841 7.9284 7.53987 9.25303 6.56603C10.5776 5.5922 12.172 5.06221 13.8113 5.05081Z" fill="#E43E2B"/>
<path d="M26.2457 13.3525C26.2609 12.4546 26.1689 11.5582 25.9717 10.6825H13.811V15.5301H20.95C20.8146 16.3801 20.5101 17.1936 20.0548 17.9217C19.5996 18.6499 19.003 19.2778 18.3009 19.7674L22.3885 22.9599C23.6624 21.7197 24.6642 20.2238 25.3292 18.569C25.9943 16.9141 26.3077 15.1371 26.2494 13.3525H26.2457Z" fill="#3B7DED"/>
<path d="M6.4432 15.6448C6.16 14.8133 6.014 13.9406 6.01103 13.0614C6.01619 12.1837 6.15696 11.3121 6.42825 10.4781L2.23979 7.19904C1.33135 9.01771 0.858154 11.0257 0.858154 13.0621C0.858154 15.0984 1.33135 17.1064 2.23979 18.9251L6.4432 15.6448Z" fill="#F0B501"/>
<path d="M13.8112 26.1229C16.9663 26.2128 20.0357 25.0808 22.3887 22.9593L18.3011 19.7669C16.9757 20.6628 15.4062 21.1194 13.8112 21.073C12.1734 21.0632 10.5801 20.5336 9.2576 19.5593C7.93505 18.585 6.95032 17.2155 6.4431 15.6451L2.25464 18.9255C3.32847 21.0887 4.97831 22.9077 7.01939 24.1789C9.06048 25.4501 11.4122 26.1232 13.8112 26.1229Z" fill="#2BA24C"/>
</svg>
