<svg width="26" height="26" viewBox="0 0 26 26" fill="none" xmlns="http://www.w3.org/2000/svg">
<path fill-rule="evenodd" clip-rule="evenodd" d="M12.9347 2.15041C15.3646 2.16116 17.6871 3.12885 19.3859 4.82767C21.0955 6.53724 22.0524 8.84893 22.0416 11.2466V11.3004C21.9771 14.5583 20.1493 17.5581 17.8699 19.902C16.5796 21.2245 15.1496 22.3965 13.5905 23.3857C13.1712 23.7405 12.5583 23.7405 12.139 23.3857C9.82733 21.8804 7.78444 19.988 6.12863 17.7839C4.67711 15.87 3.8492 13.5691 3.76318 11.1714C3.78469 6.17167 7.89196 2.13966 12.9347 2.15041ZM12.9347 14.2572C13.6981 14.2572 14.4292 13.9669 14.9668 13.44C15.5259 12.8917 15.8388 12.1616 15.8388 11.3972C15.8388 9.80586 14.5367 8.52637 12.9347 8.52637C11.3326 8.52637 10.0424 9.80586 10.0424 11.3972C10.0424 12.968 11.3111 14.2357 12.9024 14.2572H12.9347Z" fill="#9BB5DF"/>
</svg>
