<svg width="27" height="26" viewBox="0 0 27 26" fill="none" xmlns="http://www.w3.org/2000/svg">
<path opacity="0.3" d="M13.7561 14.1121C14.4241 14.1121 14.9657 13.5705 14.9657 12.9025C14.9657 12.2344 14.4241 11.6929 13.7561 11.6929C13.088 11.6929 12.5464 12.2344 12.5464 12.9025C12.5464 13.5705 13.088 14.1121 13.7561 14.1121Z" fill="#9BB5DF"/>
<path d="M13.7561 2.41919C7.97567 2.41919 3.27283 7.12203 3.27283 12.9024C3.27283 18.6828 7.97567 23.3857 13.7561 23.3857C19.5365 23.3857 24.2393 18.6828 24.2393 12.9024C24.2393 7.12203 19.5365 2.41919 13.7561 2.41919ZM19.0516 8.13104L16.6888 14.0379C16.5266 14.4436 16.2836 14.8121 15.9747 15.1211C15.6657 15.43 15.2973 15.673 14.8916 15.8352L8.98468 18.198C8.9114 18.2273 8.83113 18.2345 8.75382 18.2186C8.6765 18.2028 8.60554 18.1646 8.54974 18.1087C8.49393 18.0529 8.45573 17.982 8.43987 17.9047C8.42401 17.8273 8.43119 17.7471 8.46051 17.6738L10.8233 11.7669C10.9855 11.3612 11.2285 10.9927 11.5374 10.6838C11.8464 10.3748 12.2149 10.1319 12.6205 9.96964L18.5274 7.60688C18.6007 7.57755 18.681 7.57037 18.7583 7.58623C18.8356 7.60209 18.9066 7.64029 18.9624 7.6961C19.0182 7.75191 19.0564 7.82287 19.0723 7.90018C19.0881 7.9775 19.0809 8.05777 19.0516 8.13104Z" fill="#9BB5DF"/>
</svg>
