<svg width="27" height="20" viewBox="0 0 27 20" fill="none" xmlns="http://www.w3.org/2000/svg">
<path d="M21.0894 8.31149C22.2651 9.22487 22.9719 9.99007 22.981 9.99997C22.9671 10.0151 18.6625 14.7138 13.4985 14.7138C13.1725 14.7138 12.8563 14.6997 12.5493 14.6797L21.0894 8.31149Z" fill="#979797"/>
<path d="M13.4983 5.28574C14.4105 5.28574 15.2954 5.43483 16.135 5.67636L13.4983 7.64316C11.8073 7.64325 10.4269 8.63323 10.342 9.87851L10.3372 9.9996L6.67896 12.7281C4.80699 11.4396 4.01587 9.9996 4.01587 9.9996C4.04048 9.95503 6.6349 5.28584 13.4983 5.28574Z" fill="#979797"/>
<rect opacity="0.3" width="17.6581" height="1.85875" transform="matrix(0.801643 -0.597803 0.801643 0.597803 6.22852 15.0561)" fill="#979797"/>
</svg>
