<svg width="24" height="18" viewBox="0 0 24 18" fill="none" xmlns="http://www.w3.org/2000/svg">
<ellipse cx="11.9875" cy="5.59907" rx="4.61474" ry="3.44132" stroke="#807A7A" stroke-width="1.5" stroke-linecap="round" stroke-linejoin="round"/>
<path fill-rule="evenodd" clip-rule="evenodd" d="M4.66774 13.8266C4.6665 13.5847 4.73905 13.3457 4.87991 13.1278C5.32194 12.4685 6.56845 12.1191 7.60279 11.9609C8.34875 11.8422 9.10502 11.7629 9.86596 11.7236C11.2748 11.6313 12.6917 11.6313 14.1006 11.7236C14.8614 11.7633 15.6177 11.8426 16.3637 11.9609C17.3981 12.1191 18.6446 12.4356 19.0866 13.1278C19.3699 13.572 19.3699 14.0878 19.0866 14.532C18.6446 15.2242 17.3981 15.5407 16.3637 15.6923C15.6186 15.8159 14.8621 15.8975 14.1006 15.9362C12.9539 16.0087 11.8019 16.0219 10.6528 15.9758C10.3875 15.9758 10.1312 15.9758 9.86596 15.9362C9.10727 15.8979 8.35362 15.8164 7.61163 15.6923C6.56845 15.5407 5.33078 15.2242 4.87991 14.532C4.73977 14.3116 4.66729 14.0706 4.66774 13.8266Z" stroke="#807A7A" stroke-width="1.5" stroke-linecap="round" stroke-linejoin="round"/>
</svg>
