<svg width="26" height="26" viewBox="0 0 26 26" fill="none" xmlns="http://www.w3.org/2000/svg">
<path d="M10.5891 16.7188C12.137 16.594 13.6925 16.594 15.2405 16.7188C16.0832 16.7679 16.9218 16.8741 17.7512 17.0352C19.5465 17.3987 20.7186 17.9917 21.2209 18.9482C21.5982 19.6948 21.5982 20.5835 21.2209 21.3301C20.7186 22.2865 19.5929 22.9179 17.7327 23.2432C16.9039 23.4103 16.0651 23.5189 15.2219 23.5684C14.4406 23.6544 13.659 23.6543 12.8684 23.6543H11.4446C11.1472 23.6161 10.8591 23.5967 10.5803 23.5967C9.73695 23.5533 8.8973 23.448 8.0686 23.2812C6.27334 22.9369 5.10117 22.3248 4.59887 21.3682C4.405 20.9977 4.30257 20.5838 4.30102 20.1631C4.29698 19.7398 4.39595 19.322 4.58911 18.9482C5.08211 17.9917 6.25474 17.37 8.0686 17.0352C8.90094 16.8718 9.74297 16.7656 10.5891 16.7188ZM12.9055 2.15039C16.0238 2.15048 18.552 4.75025 18.552 7.95703C18.5519 11.1637 16.0237 13.7636 12.9055 13.7637C9.78724 13.7637 7.25911 11.1638 7.25903 7.95703C7.25903 4.7502 9.78719 2.15039 12.9055 2.15039Z" fill="#9BB5DF"/>
</svg>
