<svg width="43" height="26" viewBox="0 0 43 26" fill="none" xmlns="http://www.w3.org/2000/svg">
<g filter="url(#filter0_d_50_6736)">
<g filter="url(#filter1_d_50_6736)">
<ellipse cx="12.9805" cy="8.7984" rx="8.98046" ry="8.7984" fill="#F296BD"/>
</g>
<path d="M15.0707 13.5874H10.0574C8.59906 13.5874 7.40649 12.245 7.40649 10.6071V10.1925C7.40649 9.61198 7.48827 9.03407 7.64955 8.48206C8.39462 5.90345 8.98522 4.64654 9.42136 4.70874C9.69168 4.75021 9.9052 5.29962 10.0551 6.36475H15.0684C15.3569 5.34627 15.6568 4.83314 15.9702 4.82277C16.4836 4.80722 17.0311 6.14706 17.6126 8.84747C17.6807 9.16883 17.7171 9.49796 17.7171 9.82708V10.6046C17.7171 12.245 16.5245 13.5849 15.0662 13.5849L15.0707 13.5874Z" fill="#252520"/>
<path d="M14.8867 6.81839C14.8867 7.57254 15.6727 8.18415 16.6426 8.18415C17.6126 8.18415 17.9942 7.34966 17.9942 6.59552C17.9942 5.84137 17.6126 5.45264 16.6426 5.45264C15.6727 5.45264 14.8867 6.06425 14.8867 6.81839Z" fill="#CFB2A4"/>
<path d="M10.0253 6.81839C10.0253 7.57254 9.23937 8.18415 8.26942 8.18415C7.29947 8.18415 6.91785 7.34966 6.91785 6.59552C6.91785 5.84137 7.29947 5.45264 8.26942 5.45264C9.23937 5.45264 10.0253 6.06425 10.0253 6.81839Z" fill="#CFB2A4"/>
<path d="M17.4419 7.42731C17.4419 9.75453 14.9251 12.3668 12.7057 12.3668C10.4864 12.3668 7.7038 9.57053 7.7038 7.2433C7.7038 4.91608 10.4864 3.94165 12.7057 3.94165C14.9251 3.94165 17.4419 5.09749 17.4419 7.42471V7.42731Z" fill="#CFB2A4"/>
<path d="M7.9174 7.0699C7.65618 7.16578 7.44038 6.97401 7.41994 6.7926C7.40404 6.6371 7.52897 6.42978 7.73341 6.36499" stroke="#977C6F" stroke-width="0.5" stroke-miterlimit="10"/>
<path d="M7.62891 6.74072C7.89468 6.80292 8.02415 7.09836 7.97872 7.2694" stroke="#977C6F" stroke-width="0.5" stroke-miterlimit="10"/>
<path d="M16.9672 6.9842C17.2285 7.08009 17.4443 6.88831 17.4647 6.70691C17.4806 6.55141 17.3557 6.34409 17.1512 6.2793" stroke="#977C6F" stroke-width="0.5" stroke-miterlimit="10"/>
<path d="M17.256 6.65527C16.9902 6.71747 16.8607 7.01291 16.9062 7.18395" stroke="#977C6F" stroke-width="0.5" stroke-miterlimit="10"/>
<path d="M13.0853 10.7263H12.0563L11.3771 15.0205L13.7736 15.0439L13.0853 10.7263Z" fill="#CFB2A4"/>
<path d="M15.0705 13.5876H9.40301C8.45804 13.5876 7.62211 14.1448 7.13373 14.9819L17.3898 15.0752C16.9082 14.1863 16.0496 13.5876 15.0705 13.5876Z" fill="#F493B9"/>
<path d="M12.5628 14.7541C13.1323 14.7541 13.5941 14.3515 13.5941 13.8548C13.5941 13.3582 13.1323 12.9556 12.5628 12.9556C11.9932 12.9556 11.5315 13.3582 11.5315 13.8548C11.5315 14.3515 11.9932 14.7541 12.5628 14.7541Z" fill="#CFB2A4"/>
<path d="M10.6548 13.225C10.6502 13.2742 9.81656 13.4375 9.02833 12.9555C8.12653 12.4061 7.78579 11.315 7.81078 11.2969C7.83123 11.2813 8.1129 12.0536 8.84888 12.6082C9.7257 13.2665 10.6616 13.1732 10.6548 13.225Z" fill="#37342A"/>
<path d="M10.1754 12.6833C10.1641 12.7299 9.3168 12.7222 8.61489 12.0924C7.81303 11.3694 7.64493 10.2291 7.66992 10.2135C7.69264 10.2006 7.84937 11.0195 8.48995 11.714C9.25092 12.5382 10.1868 12.6341 10.1732 12.6833H10.1754Z" fill="#37342A"/>
<path d="M13.7781 10.1589C13.8144 10.2522 13.5487 10.5035 13.2852 10.6331C12.899 10.8223 12.5424 10.7445 12.422 10.716C12.0449 10.6253 11.6883 10.3688 11.7155 10.2755C11.7405 10.1848 12.1017 10.3377 12.7241 10.304C13.3715 10.2677 13.7417 10.0604 13.7804 10.1589H13.7781Z" fill="#F4F0EB"/>
<path d="M11.4088 10.0058C11.4361 9.93581 11.9358 10.3505 12.7218 10.3038C13.3237 10.2675 13.9461 9.97468 13.9825 10.0628C13.9825 10.068 13.9825 10.0732 13.9825 10.0809C13.937 10.2079 13.4418 10.6822 12.7672 10.6874C11.9926 10.6925 11.3793 10.0835 11.4088 10.0058Z" stroke="#F493BA" stroke-miterlimit="10"/>
<path d="M15.9043 8.52103C15.7817 8.71021 15.3046 9.44104 14.5505 9.40475C13.8781 9.37106 13.2511 8.74131 13.1966 8.0701C13.1898 8.00013 13.1648 7.6684 13.342 7.39111C13.5351 7.09049 13.8463 7.03865 14.471 6.95054C16.052 6.72508 16.1542 6.75099 16.2382 6.86243C16.5176 7.23821 16.1951 8.07528 15.9066 8.52103H15.9043Z" stroke="black" stroke-miterlimit="10"/>
<path d="M9.2442 8.54935C9.36687 8.73853 9.84389 9.46936 10.598 9.43307C11.2704 9.39938 11.8974 8.76963 11.9519 8.09842C11.9587 8.02845 11.9837 7.69673 11.8065 7.41943C11.6134 7.11881 11.3022 7.06698 10.6776 6.97886C9.09655 6.7534 8.99433 6.77931 8.91029 6.89075C8.63089 7.26653 8.95344 8.1036 9.24193 8.54935H9.2442Z" stroke="black" stroke-miterlimit="10"/>
<path d="M11.9857 8.17903C11.9857 8.33971 12.2287 7.8188 12.6126 7.86027C12.9806 7.90173 13.0783 8.35526 13.1623 8.28529" stroke="black" stroke-miterlimit="10"/>
<path d="M8.84422 7.04901C8.62842 6.82096 8.41489 6.59549 8.1991 6.36743" stroke="black" stroke-miterlimit="10"/>
<path d="M16.5941 6.09546C16.5081 6.46864 16.4197 6.84183 16.3337 7.21502" stroke="black" stroke-miterlimit="10"/>
<path d="M14.505 5.72203C14.5845 5.50434 14.8049 6.4062 14.8548 6.59539H16.897C16.897 4.34073 14.9253 2.51367 12.4924 2.51367C10.0596 2.51367 8.08789 4.34073 8.08789 6.59539H14.1984C14.237 6.42694 14.3892 6.0382 14.505 5.72203Z" fill="#252520"/>
<path d="M8.98065 6.53076C8.93749 6.52558 8.79438 5.57447 9.21689 4.6752C9.69846 3.64635 10.6548 3.25761 10.6707 3.28612C10.6843 3.30944 10.0074 3.6308 9.52128 4.47047C8.9443 5.47081 9.02608 6.53853 8.98065 6.53076Z" fill="#37342A"/>
<path d="M10.0575 5.20388C10.0234 5.19092 10.0575 4.38495 10.539 3.73705C11.091 2.99587 11.9292 2.87147 11.9383 2.89739C11.9451 2.92071 11.3454 3.04251 10.8184 3.6308C10.1915 4.33052 10.0938 5.21684 10.0575 5.20129V5.20388Z" fill="#37342A"/>
<path d="M12.8923 2.79104C12.8969 2.77031 14.4029 2.78068 15.5251 3.97539C16.4768 4.98869 16.679 6.35185 16.6518 6.36481C16.6222 6.38036 16.361 4.955 15.2934 3.91578C14.1985 2.85065 12.8901 2.80918 12.8946 2.79104H12.8923Z" fill="#37342A"/>
<path d="M7.93345 13.9167C7.66768 13.8079 7.14977 14.2614 6.56598 14.9767L8.19922 14.9922C8.20377 14.4013 8.12654 13.9971 7.93345 13.9167Z" fill="#F493B9"/>
<path d="M16.6608 13.9167C16.4586 13.9996 16.3859 14.4376 16.3973 15.0673L18.1123 15.0829C17.4944 14.308 16.9402 13.8026 16.6608 13.9167Z" fill="#F493B9"/>
<path d="M14.6458 8.51841C15.2543 8.51841 15.7475 8.27939 15.7475 7.98455C15.7475 7.6897 15.2543 7.45068 14.6458 7.45068C14.0374 7.45068 13.5441 7.6897 13.5441 7.98455C13.5441 8.27939 14.0374 8.51841 14.6458 8.51841Z" fill="#F4F0EB"/>
<path d="M14.6459 8.5159C14.8592 8.5159 15.0321 8.31865 15.0321 8.07533C15.0321 7.83201 14.8592 7.63477 14.6459 7.63477C14.4327 7.63477 14.2598 7.83201 14.2598 8.07533C14.2598 8.31865 14.4327 8.5159 14.6459 8.5159Z" fill="#252520"/>
<path d="M13.4032 8.02614C13.4646 8.14794 13.903 7.78253 14.5935 7.7618C15.3341 7.74107 15.8383 8.1298 15.8929 8.01318C15.9315 7.92766 15.693 7.66591 15.434 7.52337C15.2137 7.40157 15.0047 7.39898 14.5935 7.3938C14.2165 7.38861 14.0234 7.38861 13.8371 7.49487C13.5759 7.64259 13.3578 7.93543 13.4055 8.02873L13.4032 8.02614Z" fill="#CFB2A4"/>
<path d="M10.4798 8.51841C11.0883 8.51841 11.5815 8.27939 11.5815 7.98455C11.5815 7.6897 11.0883 7.45068 10.4798 7.45068C9.87136 7.45068 9.37811 7.6897 9.37811 7.98455C9.37811 8.27939 9.87136 8.51841 10.4798 8.51841Z" fill="#F4F0EB"/>
<path d="M10.4797 8.5159C10.693 8.5159 10.8659 8.31865 10.8659 8.07533C10.8659 7.83201 10.693 7.63477 10.4797 7.63477C10.2665 7.63477 10.0936 7.83201 10.0936 8.07533C10.0936 8.31865 10.2665 8.5159 10.4797 8.5159Z" fill="#252520"/>
<path d="M11.7246 8.02614C11.6633 8.14794 11.2248 7.78253 10.5343 7.7618C9.79376 7.74107 9.28948 8.1298 9.23496 8.01318C9.19635 7.92766 9.43486 7.66591 9.69382 7.52337C9.91416 7.40157 10.1231 7.39898 10.5343 7.3938C10.9114 7.38861 11.1044 7.38861 11.2907 7.49487C11.5519 7.64259 11.77 7.93543 11.7223 8.02873L11.7246 8.02614Z" fill="#CFB2A4"/>
<g filter="url(#filter2_d_50_6736)">
<ellipse cx="20.6782" cy="8.7984" rx="8.98046" ry="8.7984" fill="#FCCA59"/>
</g>
<path d="M26.6843 13.2067C25.3592 12.4843 23.4483 12.5437 23.1029 13.2522C23.01 13.4422 23.0564 13.6242 23.1958 13.8261H27.5024C27.2782 13.5985 27.0116 13.3848 26.6864 13.2067H26.6843Z" fill="#FAA830"/>
<path d="M19.2791 13.3309C18.9498 12.6145 17.0429 12.5056 15.6996 13.1943C15.3542 13.3724 15.0694 13.5901 14.8331 13.8237H19.2225C19.3255 13.6554 19.3538 13.4971 19.277 13.3289L19.2791 13.3309Z" fill="#FAA830"/>
<path d="M21.1618 12.0588C19.9034 12.0588 17.7803 12.0588 16.2088 13.8261H26.3128C24.6624 12.0509 22.1678 12.0608 21.1618 12.0588Z" fill="#FAA830"/>
<path d="M25.7938 13.545C25.8362 12.694 25.1313 12.0112 24.8889 11.7797C23.8647 10.7921 22.4952 10.7783 21.2206 10.7684C19.8753 10.7565 18.431 10.7446 17.4351 11.7797C17.2634 11.9578 16.5827 12.6663 16.6494 13.545C16.6574 13.64 16.6716 13.733 16.6958 13.826H25.7534C25.7756 13.733 25.7898 13.64 25.7938 13.545Z" fill="#FAA830"/>
<path d="M25.5188 8.00579C25.5188 9.78297 23.2807 11.7778 21.3071 11.7778C19.3336 11.7778 16.8591 9.64246 16.8591 7.86528C16.8591 6.08811 19.3336 5.34399 21.3071 5.34399C23.2807 5.34399 25.5188 6.22664 25.5188 8.00382V8.00579Z" fill="#EDD5CD"/>
<path d="M23.7273 8.42918C23.7273 9.00508 24.4262 9.47213 25.2887 9.47213C26.1513 9.47213 26.4906 8.83488 26.4906 8.25898C26.4906 7.68308 26.1513 7.38623 25.2887 7.38623C24.4262 7.38623 23.7273 7.85328 23.7273 8.42918Z" fill="#EDD5CD"/>
<path d="M18.6228 8.56175C18.6228 9.13765 17.9239 9.6047 17.0613 9.6047C16.1988 9.6047 15.8594 8.96745 15.8594 8.39155C15.8594 7.81565 16.1988 7.5188 17.0613 7.5188C17.9239 7.5188 18.6228 7.98585 18.6228 8.56175Z" fill="#EDD5CD"/>
<path d="M16.7481 8.75583C16.5159 8.82905 16.324 8.6826 16.3058 8.54407C16.2916 8.42533 16.4027 8.26701 16.5845 8.21753" stroke="#BFA49B" stroke-width="0.5" stroke-miterlimit="10"/>
<path d="M16.4915 8.50439C16.7279 8.55189 16.843 8.7775 16.8026 8.90812" stroke="#BFA49B" stroke-width="0.5" stroke-miterlimit="10"/>
<path d="M25.5771 8.55588C25.8094 8.6291 26.0013 8.48265 26.0195 8.34412C26.0337 8.22538 25.9226 8.06705 25.7408 8.01758" stroke="#BFA49B" stroke-width="0.5" stroke-miterlimit="10"/>
<path d="M25.8339 8.30493C25.5975 8.35243 25.4824 8.57804 25.5228 8.70865" stroke="#BFA49B" stroke-width="0.5" stroke-miterlimit="10"/>
<path d="M17.6449 7.12296C17.4085 7.78791 17.3904 8.12039 17.2409 8.13424C17.0308 8.15205 16.6854 7.54647 16.748 6.98047C16.8591 6.0048 18.1721 5.37151 18.3438 5.52983C18.4549 5.63076 18.0408 6.0048 17.6449 7.12098V7.12296Z" fill="#252520"/>
<path d="M24.6727 7.12296C24.909 7.78791 24.9272 8.12039 25.0767 8.13424C25.2868 8.15205 25.6322 7.54647 25.5696 6.98047C25.4585 6.0048 24.1455 5.37151 23.9738 5.52983C23.8627 5.63076 24.2768 6.0048 24.6727 7.12098V7.12296Z" fill="#252520"/>
<path d="M25.2682 5.10645H17.059C16.7656 5.10645 16.5277 5.33947 16.5277 5.62693V6.19887C16.5277 6.48633 16.7656 6.71936 17.059 6.71936H25.2682C25.5616 6.71936 25.7994 6.48633 25.7994 6.19887V5.62693C25.7994 5.33947 25.5616 5.10645 25.2682 5.10645Z" fill="#8DADDB"/>
<path d="M17.1217 6.06604C17.1217 4.10482 18.9417 2.51367 21.19 2.51367C23.8361 2.51367 25.6986 5.27245 25.2582 6.06604C24.9673 6.5885 23.4463 6.65381 18.6246 5.10621" fill="#8DADDB"/>
<path d="M17.4931 5.10645C17.4367 5.30435 17.3581 5.58141 17.3823 5.91389C17.4065 6.25824 17.4951 6.51552 17.4931 6.72332" stroke="#5B74B8" stroke-width="0.75" stroke-miterlimit="10"/>
<path d="M18.0042 5.10645C18.0042 5.30831 17.9095 5.59131 17.9095 5.91389C17.9095 6.23647 18.0042 6.50166 18.0042 6.72332" stroke="#5B74B8" stroke-width="0.75" stroke-miterlimit="10"/>
<path d="M18.6227 5.10645V6.72332" stroke="#5B74B8" stroke-width="0.75" stroke-miterlimit="10"/>
<path d="M19.7115 5.10645V6.72134" stroke="#5B74B8" stroke-width="0.75" stroke-miterlimit="10"/>
<path d="M20.2871 5.10645V6.72134" stroke="#5B74B8" stroke-width="0.75" stroke-miterlimit="10"/>
<path d="M20.8627 5.10645V6.72332" stroke="#5B74B8" stroke-width="0.75" stroke-miterlimit="10"/>
<path d="M22.012 5.10645V6.72332" stroke="#5B74B8" stroke-width="0.75" stroke-miterlimit="10"/>
<path d="M23.1636 5.10815V6.72305" stroke="#5B74B8" stroke-width="0.75" stroke-miterlimit="10"/>
<path d="M23.7394 5.10645V6.72332" stroke="#5B74B8" stroke-width="0.75" stroke-miterlimit="10"/>
<path d="M24.8299 5.10645C24.8863 5.30435 24.9649 5.58141 24.9407 5.91389C24.9165 6.25824 24.8279 6.51552 24.8299 6.72332" stroke="#5B74B8" stroke-width="0.75" stroke-miterlimit="10"/>
<path d="M24.319 5.10645C24.319 5.30831 24.4137 5.59131 24.4137 5.91389C24.4137 6.23647 24.319 6.50166 24.319 6.72332" stroke="#5B74B8" stroke-width="0.75" stroke-miterlimit="10"/>
<path d="M17.2713 5.10663C17.2087 5.10069 16.9299 5.08288 16.7401 5.26891C16.6168 5.39161 16.5966 5.53806 16.5684 5.76367C16.5482 5.92199 16.5179 6.18718 16.6593 6.4682C16.7178 6.58497 16.7865 6.66809 16.837 6.72152" stroke="#5B74B8" stroke-width="0.75" stroke-miterlimit="10"/>
<path d="M25.0785 5.10663C25.1411 5.10069 25.4199 5.08288 25.6097 5.26891C25.733 5.39161 25.7532 5.53806 25.7814 5.76367C25.8016 5.92199 25.8319 6.18718 25.6905 6.4682C25.632 6.58497 25.6077 6.69381 25.4966 6.66611" stroke="#5B74B8" stroke-width="0.75" stroke-miterlimit="10"/>
<path d="M17.2711 5.10815H25.0784" stroke="#5B74B8" stroke-width="0.75" stroke-miterlimit="10"/>
<path d="M16.8107 6.66772H25.5774" stroke="#5B74B8" stroke-width="0.75" stroke-miterlimit="10"/>
<path d="M19.9536 2.68188C19.6385 2.88177 19.1295 3.26174 18.7113 3.89503C18.4063 4.35615 18.2528 4.79549 18.172 5.10818" stroke="#5B74B8" stroke-width="0.75" stroke-miterlimit="10"/>
<path d="M25.0783 5.10621C24.9531 4.77374 24.7087 4.25721 24.232 3.78224C22.8806 2.43452 20.3314 2.08225 18.677 3.27165C18.372 3.49132 17.7215 4.0316 17.3236 5.10621" stroke="#5B74B8" stroke-width="0.75" stroke-miterlimit="10"/>
<path d="M24.0807 5.17173C24.0585 4.87685 23.9696 4.23366 23.505 3.60433C23.2081 3.20259 22.8667 2.95521 22.6364 2.8147" stroke="#5B74B8" stroke-width="0.75" stroke-miterlimit="10"/>
<path d="M20.8629 2.55347C20.5599 2.79689 20.1034 3.2303 19.7499 3.89327C19.5034 4.35835 19.3843 4.7878 19.3257 5.10642" stroke="#5B74B8" stroke-width="0.75" stroke-miterlimit="10"/>
<path d="M22.4202 5.10837C22.4424 4.8135 22.4404 4.35634 22.2828 3.82596C22.1051 3.22235 21.8041 2.79686 21.6041 2.55542" stroke="#5B74B8" stroke-width="0.75" stroke-miterlimit="10"/>
<path d="M19.6024 8.42523C20.1434 8.42523 20.5821 8.2427 20.5821 8.01754C20.5821 7.79239 20.1434 7.60986 19.6024 7.60986C19.0613 7.60986 18.6227 7.79239 18.6227 8.01754C18.6227 8.2427 19.0613 8.42523 19.6024 8.42523Z" fill="#F4F0EB"/>
<path d="M22.9917 8.42523C23.5327 8.42523 23.9713 8.2427 23.9713 8.01754C23.9713 7.79239 23.5327 7.60986 22.9917 7.60986C22.4506 7.60986 22.012 7.79239 22.012 8.01754C22.012 8.2427 22.4506 8.42523 22.9917 8.42523Z" fill="#F4F0EB"/>
<path d="M19.6024 8.36954C19.7686 8.36954 19.9033 8.23752 19.9033 8.07466C19.9033 7.91181 19.7686 7.77979 19.6024 7.77979C19.4361 7.77979 19.3014 7.91181 19.3014 8.07466C19.3014 8.23752 19.4361 8.36954 19.6024 8.36954Z" fill="#252520"/>
<path d="M23.0502 8.36954C23.2165 8.36954 23.3512 8.23752 23.3512 8.07466C23.3512 7.91181 23.2165 7.77979 23.0502 7.77979C22.884 7.77979 22.7493 7.91181 22.7493 8.07466C22.7493 8.23752 22.884 8.36954 23.0502 8.36954Z" fill="#252520"/>
<path d="M20.5839 7.92648C20.5637 7.98981 20.2506 7.87898 19.6042 7.87898C18.9578 7.87898 18.6447 7.98981 18.6245 7.92648C18.5983 7.84534 19.0629 7.5188 19.6042 7.5188C20.1456 7.5188 20.6122 7.84534 20.5839 7.92648Z" fill="#EDD5CD"/>
<path d="M23.9715 7.92648C23.9513 7.98981 23.6382 7.87898 22.9918 7.87898C22.3454 7.87898 22.0323 7.98981 22.0121 7.92648C21.9858 7.84534 22.4504 7.5188 22.9918 7.5188C23.5332 7.5188 23.9998 7.84534 23.9715 7.92648Z" fill="#EDD5CD"/>
<path d="M21.6445 10.6101H20.7294L20.1356 13.826H22.2404L21.6445 10.6101Z" fill="#EDD5CD"/>
<path d="M21.1879 13.6855C21.6944 13.6855 22.105 13.378 22.105 12.9987C22.105 12.6195 21.6944 12.312 21.1879 12.312C20.6814 12.312 20.2708 12.6195 20.2708 12.9987C20.2708 13.378 20.6814 13.6855 21.1879 13.6855Z" fill="#EDD5CD"/>
<path d="M19.0631 12.3948C18.2046 12.3948 17.2249 13.0716 17.0633 13.8256H20.9679C20.5417 13.0479 19.9054 12.3948 19.0631 12.3948Z" fill="#FAA830"/>
<path d="M25.4968 13.6263C25.3857 12.8821 24.1131 12.3795 23.093 12.4626C22.2123 12.5338 21.3821 13.0523 20.9437 13.8261H25.4988C25.5069 13.7608 25.5069 13.6935 25.4988 13.6263H25.4968Z" fill="#FAA830"/>
<path d="M22.0849 13.8262C22.0849 13.7114 21.9779 13.6184 21.8466 13.6184C21.7153 13.6184 21.6082 13.7114 21.6082 13.8262H22.0829H22.0849Z" stroke="#EC5CA1" stroke-width="0.5" stroke-miterlimit="10"/>
<path d="M20.3801 13.8262C20.3801 13.7114 20.273 13.6184 20.1417 13.6184C20.0104 13.6184 19.9034 13.7114 19.9034 13.8262H20.3781H20.3801Z" stroke="#EC5CA1" stroke-width="0.5" stroke-miterlimit="10"/>
<path d="M20.2911 13.7173C20.2326 13.6738 20.1679 13.6658 20.1679 13.6658C20.1679 13.6658 20.1013 13.6579 20.0306 13.6856C19.9942 13.6995 19.97 13.7529 19.9498 13.8261H20.3255C20.3154 13.7668 20.3033 13.7272 20.2891 13.7173H20.2911Z" fill="#ED9626"/>
<path d="M21.9818 13.7092C21.9192 13.6776 21.8566 13.6657 21.8566 13.6657C21.8566 13.6657 21.7899 13.6538 21.7232 13.6657C21.6727 13.6756 21.6505 13.7369 21.6465 13.826H22.0404C22.0222 13.7627 22.002 13.7191 21.9798 13.7092H21.9818Z" fill="#ED9626"/>
<path d="M16.6893 13.0322C16.6712 13.0441 16.8004 13.4261 17.1135 13.8258H17.2428C16.8752 13.4102 16.7075 13.0204 16.6873 13.0322H16.6893Z" fill="#ED9626"/>
<path d="M20.4971 13.1395C19.9679 12.5656 19.372 12.3043 19.3639 12.3142C19.3578 12.3222 19.8204 12.5398 20.3274 13.0386C20.7476 13.4502 20.9758 13.8322 20.9859 13.8262C20.9859 13.8262 20.8122 13.4819 20.4951 13.1395H20.4971Z" fill="#ED9626"/>
<path d="M21.3373 13.3708C22.1372 12.5178 23.2341 12.4109 23.2301 12.3951C23.224 12.3793 22.0585 12.4703 21.2808 13.3233C21.1293 13.4895 21.0101 13.6657 20.9192 13.826H20.9858C21.0788 13.6815 21.1939 13.5232 21.3373 13.3708Z" fill="#ED9626"/>
<path d="M25.6867 12.8943C25.6685 12.8824 25.4402 13.3811 25.0463 13.8264H25.1756C25.519 13.391 25.7048 12.9061 25.6867 12.8943Z" fill="#ED9626"/>
<path d="M21.2911 10.2872C21.7072 10.2872 22.0445 10.2057 22.0445 10.1052C22.0445 10.0046 21.7072 9.9231 21.2911 9.9231C20.8749 9.9231 20.5376 10.0046 20.5376 10.1052C20.5376 10.2057 20.8749 10.2872 21.2911 10.2872Z" fill="#F4F0EB"/>
<path d="M22.1536 9.96319C22.188 10.0582 21.7719 10.3649 21.3073 10.3649C20.8407 10.3649 20.4245 10.0542 20.4609 9.95528C20.4831 9.89195 20.6912 9.94538 21.384 9.94538C21.9658 9.94538 22.1355 9.90778 22.1557 9.96319H22.1536Z" stroke="#F2B2CE" stroke-miterlimit="10"/>
<path d="M20.9921 9.94694C20.9618 9.96079 20.9033 9.98454 20.6285 10.0241C20.2952 10.0736 20.1296 10.0973 20.1054 10.0617C20.0428 9.96673 20.3599 9.57686 20.7942 9.49176C21.0063 9.4502 21.2972 9.46999 21.3376 9.58082C21.378 9.68769 21.1739 9.8658 20.9901 9.94694H20.9921Z" fill="#262520"/>
<path d="M21.6423 9.94694C21.6726 9.96079 21.7312 9.98454 22.0059 10.0241C22.3392 10.0736 22.5049 10.0973 22.5291 10.0617C22.5917 9.96673 22.2746 9.57686 21.8403 9.49176C21.6282 9.4502 21.3373 9.46999 21.2969 9.58082C21.2565 9.68769 21.4605 9.8658 21.6444 9.94694H21.6423Z" fill="#262520"/>
<path d="M15.6996 13.1946C15.6411 13.1827 15.429 13.1511 15.031 13.3212C14.7482 13.442 14.4937 13.6141 14.2634 13.8259H16.4632C16.2551 13.4776 16.0026 13.252 15.6976 13.1966L15.6996 13.1946Z" fill="#FAA830"/>
<path d="M26.9489 13.2047C26.551 13.0365 26.3409 13.0681 26.2803 13.078C25.9429 13.1414 25.6703 13.4085 25.4501 13.8241H27.8357C27.5751 13.557 27.2822 13.3452 26.9489 13.2027V13.2047Z" fill="#FAA830"/>
<path d="M15.6392 13.6201C15.6311 13.6023 15.3301 13.6518 14.9604 13.8259H15.1604C15.4432 13.6914 15.6452 13.634 15.6392 13.6201Z" fill="#ED9626"/>
<path d="M26.2661 13.5468C26.258 13.5646 26.5671 13.6319 26.963 13.8239H27.1791C26.7044 13.5805 26.2762 13.525 26.2661 13.5468Z" fill="#ED9626"/>
<g filter="url(#filter3_d_50_6736)">
<ellipse cx="29.6584" cy="8.7984" rx="8.98046" ry="8.7984" fill="#267F53"/>
</g>
</g>
<path d="M25.8708 10.9861C26.6131 10.9861 27.2148 10.3966 27.2148 9.66932C27.2148 8.94208 26.6131 8.35254 25.8708 8.35254C25.1285 8.35254 24.5268 8.94208 24.5268 9.66932C24.5268 10.3966 25.1285 10.9861 25.8708 10.9861Z" fill="#FDC760"/>
<path d="M27.7911 11.6692C28.5334 11.6692 29.1351 11.0797 29.1351 10.3524C29.1351 9.62519 28.5334 9.03564 27.7911 9.03564C27.0488 9.03564 26.4471 9.62519 26.4471 10.3524C26.4471 11.0797 27.0488 11.6692 27.7911 11.6692Z" fill="#FDC760"/>
<path d="M29.0669 10.986C29.0779 11.0033 28.3894 11.8244 27.5271 11.6627C26.6385 11.4968 26.3107 10.4279 26.3371 10.4106C26.3613 10.3934 26.7792 11.3955 27.6041 11.5356C28.374 11.6649 29.0559 10.971 29.0669 10.9882V10.986Z" fill="#FAA830"/>
<path d="M32.0695 9.27725C32.9252 8.68459 34.289 8.56391 34.7268 9.18027C35.1843 9.82465 34.509 11.1005 33.5191 11.6199C32.736 12.0315 31.5152 12.0983 31.1127 11.4453C30.7079 10.7901 31.3546 9.76862 32.0673 9.2751L32.0695 9.27725Z" fill="#FDC760"/>
<path d="M34.4254 7.94281C35.048 7.11955 36.3062 6.58724 36.9199 7.03766C37.56 7.50963 37.3269 8.9277 36.5504 9.7251C35.9388 10.3544 34.7994 10.7919 34.2099 10.2962C33.6159 9.79622 33.9063 8.63029 34.4254 7.94281Z" fill="#FDC760"/>
<path d="M36.7243 9.52478C36.7441 9.54848 35.6948 10.736 34.6763 10.5118C34.397 10.4515 34.0934 10.2769 34.1066 10.2424C34.1198 10.2058 34.4652 10.3308 34.7951 10.3567C35.8664 10.4472 36.7089 9.50323 36.7265 9.52478H36.7243Z" fill="#FAA830"/>
<path d="M33.4553 6.59186C33.6554 5.58542 34.5573 4.57466 35.3096 4.72337C36.0949 4.87854 36.5063 6.25782 36.1587 7.30521C35.8838 8.13277 35.0479 9.00775 34.2978 8.80733C33.5433 8.6069 33.2903 7.43236 33.4575 6.59186H33.4553Z" fill="#FDC760"/>
<path d="M25.9258 8.28338C25.873 8.4601 25.8334 8.5851 25.752 8.74458C25.4375 9.35017 24.6939 10.0247 24.0846 9.85662C23.6447 9.73594 23.4423 9.22086 23.3829 9.07216C22.9804 8.04848 23.4819 6.48817 24.5114 6.21016C25.0635 6.06145 25.8246 6.29852 26.0226 6.74032C26.2227 7.18643 26.093 7.73598 25.928 8.28338H25.9258Z" fill="#FDC760"/>
<path d="M35.3009 7.92818C35.3009 9.86348 32.8636 12.0358 30.7145 12.0358C28.5654 12.0358 25.8707 9.71047 25.8707 7.77517C25.8707 5.83987 28.5654 5.02954 30.7145 5.02954C32.8636 5.02954 35.3009 5.99073 35.3009 7.92603V7.92818Z" fill="#957467"/>
<path d="M31.0818 10.7644H30.0853L29.3682 14.6522H31.8033L31.0818 10.7644Z" fill="#957467"/>
<path d="M30.5847 14.1133C31.1362 14.1133 31.5833 13.7785 31.5833 13.3655C31.5833 12.9525 31.1362 12.6177 30.5847 12.6177C30.0331 12.6177 29.586 12.9525 29.586 13.3655C29.586 13.7785 30.0331 14.1133 30.5847 14.1133Z" fill="#957467"/>
<path d="M25.5914 6.04233C25.5914 6.77723 26.6099 7.37419 27.8681 7.37419C29.1264 7.37419 29.9909 6.05311 29.9909 5.31821C29.9909 4.58331 29.1264 4.71262 27.8681 4.71262C26.6099 4.71262 25.5914 5.30959 25.5914 6.04449V6.04233Z" fill="#FDC760"/>
<path d="M27.0168 5.89354C26.7221 6.70818 25.8906 7.64997 25.1361 7.49265C24.3442 7.32886 23.9306 6.01639 24.1374 5.03365C24.375 3.90221 25.5078 2.8462 26.2887 3.07033C27.0784 3.29662 27.4128 4.80521 27.019 5.89354H27.0168Z" fill="#FDC760"/>
<path d="M30.7097 5.29724C31.405 4.33868 31.2277 3.04572 30.3137 2.40932C29.3997 1.77293 28.0951 2.03409 27.3998 2.99265C26.7045 3.95121 26.8818 5.24417 27.7958 5.88056C28.7098 6.51696 30.0144 6.25579 30.7097 5.29724Z" fill="#FDC760"/>
<path d="M32.1422 6.03801C31.9266 5.91301 29.8699 4.69106 30.202 3.63936C30.4638 2.81394 32.1202 2.33766 33.2992 2.90446C34.3727 3.41953 34.9886 4.76649 34.6169 5.67164C34.5861 5.74707 34.3793 6.23197 33.88 6.43024C33.2618 6.67593 32.6107 6.30955 32.1422 6.03801Z" fill="#FDC760"/>
<path d="M33.35 8.38917C33.35 9.01631 34.1111 9.52492 35.0504 9.52492C35.9896 9.52492 36.3592 8.83097 36.3592 8.20383C36.3592 7.57669 35.9896 7.25342 35.0504 7.25342C34.1111 7.25342 33.35 7.76203 33.35 8.38917Z" fill="#957467"/>
<path d="M27.7912 8.5337C27.7912 9.16084 27.0301 9.66945 26.0908 9.66945C25.1515 9.66945 24.782 8.9755 24.782 8.34836C24.782 7.72122 25.1515 7.39795 26.0908 7.39795C27.0301 7.39795 27.7912 7.90656 27.7912 8.5337Z" fill="#957467"/>
<path d="M25.7498 8.74489C25.4969 8.82462 25.2879 8.66515 25.2681 8.51429C25.2527 8.38498 25.3737 8.21257 25.5717 8.15869" stroke="#6D544A" stroke-width="0.5" stroke-miterlimit="10"/>
<path d="M25.4706 8.47119C25.7279 8.52291 25.8533 8.7686 25.8093 8.91084" stroke="#6D544A" stroke-width="0.5" stroke-miterlimit="10"/>
<path d="M35.3647 8.52711C35.6177 8.60685 35.8266 8.44737 35.8464 8.29652C35.8618 8.16721 35.7408 7.9948 35.5429 7.94092" stroke="#6D544A" stroke-width="0.5" stroke-miterlimit="10"/>
<path d="M35.6441 8.25317C35.3867 8.3049 35.2614 8.55058 35.3053 8.69282" stroke="#6D544A" stroke-width="0.5" stroke-miterlimit="10"/>
<path d="M29.7291 6.15874C29.7511 6.18245 29.2452 7.03588 28.3345 7.31389C26.9245 7.74491 25.4946 6.49925 25.5078 6.47124C25.521 6.44322 26.9157 7.56388 28.3125 7.15656C29.2034 6.89795 29.7049 6.13504 29.7269 6.15874H29.7291Z" fill="#FAA830"/>
<path d="M29.606 5.88696C29.1265 4.9775 28.9241 3.7383 29.3091 3.50986C29.7116 3.2728 30.6443 4.1995 31.0864 5.21025C31.4362 6.0098 31.588 7.10676 31.1744 7.29426C30.7609 7.48175 30.0042 6.64556 29.6038 5.88696H29.606Z" fill="#FDC760"/>
<path d="M31.5878 6.43008C30.9125 5.8956 30.3692 4.98399 30.6221 4.64563C30.8861 4.29219 31.9464 4.65856 32.6217 5.29002C33.1562 5.78785 33.6138 6.6068 33.3256 6.92144C33.0374 7.2404 32.1509 6.87403 31.5878 6.42792V6.43008Z" fill="#FDC760"/>
<path d="M26.2404 10.9343C26.2404 10.9472 25.5673 11.0895 25.0657 10.7231C24.43 10.2597 24.507 9.29855 24.518 9.29639C24.5312 9.29424 24.4938 10.2188 25.1075 10.6757C25.5936 11.0356 26.2404 10.9214 26.2404 10.9343Z" fill="#FAA830"/>
<path d="M27.0365 5.06152C27.0035 5.06152 26.7175 4.12189 27.1662 3.27708C27.659 2.35038 28.761 2.06375 28.7786 2.09392C28.7962 2.12193 27.791 2.43658 27.296 3.37191C26.8539 4.20594 27.0673 5.06152 27.0365 5.06152Z" fill="#FAA830"/>
<path d="M24.443 6.79657C24.41 6.80519 23.8953 5.99271 24.0646 5.04661C24.2208 4.1781 24.8807 3.61561 24.9093 3.63501C24.9379 3.6544 24.3638 4.20611 24.2142 5.10049C24.058 6.04659 24.4716 6.7858 24.4408 6.79442L24.443 6.79657Z" fill="#FAA830"/>
<path d="M31.3613 7.07229C31.3745 7.08738 31.2755 7.26841 31.1237 7.32229C30.7432 7.4559 30.1361 6.75764 29.8589 6.36541C29.5136 5.87404 29.364 5.40207 29.3706 5.39991C29.375 5.39776 29.4894 5.68439 29.7291 6.07016C30.0063 6.51196 30.2373 6.74471 30.3714 6.8654C30.6068 7.07875 30.8268 7.27487 31.0622 7.23177C31.2315 7.2016 31.3459 7.05936 31.3613 7.07229Z" fill="#FAA830"/>
<path d="M33.077 7.04466C33.0726 7.0619 32.5821 7.05328 32.0761 6.79467C31.5108 6.50588 31.2094 6.04684 31.2226 6.03391C31.2336 6.02314 31.5174 6.41106 32.0761 6.70846C32.6129 6.9951 33.0814 7.02742 33.077 7.04466Z" fill="#FAA830"/>
<path d="M32.4149 2.665C32.4259 2.63482 33.4246 2.67793 34.0911 3.37188C34.8214 4.13263 34.7356 5.24468 34.7026 5.2533C34.6696 5.25976 34.696 4.2253 33.9591 3.46023C33.3014 2.77706 32.4061 2.69517 32.4149 2.665Z" fill="#FAA830"/>
<path d="M29.1988 8.83322C29.788 8.83322 30.2657 8.63446 30.2657 8.38927C30.2657 8.14408 29.788 7.94531 29.1988 7.94531C28.6096 7.94531 28.132 8.14408 28.132 8.38927C28.132 8.63446 28.6096 8.83322 29.1988 8.83322Z" fill="#F5E7CF"/>
<path d="M32.4435 8.83322C33.0327 8.83322 33.5104 8.63446 33.5104 8.38927C33.5104 8.14408 33.0327 7.94531 32.4435 7.94531C31.8543 7.94531 31.3766 8.14408 31.3766 8.38927C31.3766 8.63446 31.8543 8.83322 32.4435 8.83322Z" fill="#F5E7CF"/>
<path d="M28.1301 8.38048C28.1301 8.1348 28.6074 7.93652 29.1969 7.93652C29.7865 7.93652 30.2638 8.1348 30.2638 8.38048" fill="#94807A"/>
<path d="M31.3766 8.38048C31.3766 8.1348 31.854 7.93652 32.4435 7.93652C33.033 7.93652 33.5104 8.1348 33.5104 8.38048" fill="#94807A"/>
<path d="M29.5355 8.37012C29.5355 8.5533 29.3837 8.69985 29.1989 8.69985C29.0141 8.69985 28.8624 8.55115 28.8624 8.37012" fill="#252520"/>
<path d="M32.8242 8.38257C32.8242 8.56575 32.6724 8.7123 32.4876 8.7123C32.3028 8.7123 32.1511 8.5636 32.1511 8.38257" fill="#252520"/>
<path d="M34.9863 7.53987C35.5658 7.53987 36.0356 7.07963 36.0356 6.51188C36.0356 5.94414 35.5658 5.48389 34.9863 5.48389C34.4068 5.48389 33.9371 5.94414 33.9371 6.51188C33.9371 7.07963 34.4068 7.53987 34.9863 7.53987Z" fill="#FDC760"/>
<path d="M31.5836 10.3528H29.8326" stroke="#252520" stroke-miterlimit="10"/>
<path d="M35.7762 13.9905C34.8105 12.6112 32.613 12.6156 30.5871 12.6199C28.4973 12.6242 26.5264 12.6263 25.5981 13.9086C25.3913 14.1931 25.2836 14.5659 25.2352 15.0746L36.0314 14.7642C35.9742 14.4086 35.895 14.1565 35.7784 13.9905H35.7762Z" fill="#957467"/>
<path d="M26.1744 9.51511C26.2352 9.51511 26.2846 9.46664 26.2846 9.40685C26.2846 9.34706 26.2352 9.29858 26.1744 9.29858C26.1135 9.29858 26.0642 9.34706 26.0642 9.40685C26.0642 9.46664 26.1135 9.51511 26.1744 9.51511Z" stroke="#AFB2B2" stroke-width="0.5" stroke-miterlimit="10"/>
<path d="M28.5765 14.1131C28.3565 13.5873 28.8338 12.8308 28.5589 12.6714C28.5215 12.6498 28.5017 12.6649 28.0639 12.7274C27.8923 12.7511 27.6724 12.7834 27.3732 12.8416C27.0235 12.9106 26.8497 12.9451 26.7969 12.9688C26.3701 13.1692 26.6715 14.0183 26.5769 15.0334L30.1449 14.9299C29.4101 14.8265 28.7546 14.5442 28.5743 14.1088L28.5765 14.1131Z" fill="#F15849"/>
<path d="M34.5157 13.0012C34.4145 12.9474 34.2033 12.9043 33.7809 12.8159C33.6996 12.7987 33.44 12.7469 33.0946 12.7081C32.9121 12.6866 32.8197 12.6715 32.7933 12.6823C32.4611 12.8094 32.8659 13.7835 32.5337 14.3374C32.3687 14.6133 32.0168 14.7943 31.5856 14.8913L34.7356 14.8008C34.7048 13.9172 34.9314 13.2275 34.5135 12.9991L34.5157 13.0012Z" fill="#F15849"/>
<path d="M28.6513 12.6648C28.6645 13.2812 28.3609 13.9449 28.9065 14.3867C29.4674 14.8415 30.2417 14.9061 30.4485 14.9212C30.6288 14.9341 31.6011 15.0096 32.3182 14.5354C32.9803 14.098 32.6988 13.279 32.7956 12.6777" stroke="#2C835B" stroke-miterlimit="10"/>
<path d="M26.6122 13.0618C26.6361 13.7428 26.7445 14.4044 26.6122 15.0833" stroke="#2C835B" stroke-miterlimit="10"/>
<path d="M34.5025 13.094C34.9248 13.5595 34.7687 14.3052 34.7423 14.8698" stroke="#2C835B" stroke-miterlimit="10"/>
<defs>
<filter id="filter0_d_50_6736" x="0" y="0" width="42.6389" height="25.5967" filterUnits="userSpaceOnUse" color-interpolation-filters="sRGB">
<feFlood flood-opacity="0" result="BackgroundImageFix"/>
<feColorMatrix in="SourceAlpha" type="matrix" values="0 0 0 0 0 0 0 0 0 0 0 0 0 0 0 0 0 0 127 0" result="hardAlpha"/>
<feOffset dy="4"/>
<feGaussianBlur stdDeviation="2"/>
<feComposite in2="hardAlpha" operator="out"/>
<feColorMatrix type="matrix" values="0 0 0 0 0 0 0 0 0 0 0 0 0 0 0 0 0 0 0.25 0"/>
<feBlend mode="normal" in2="BackgroundImageFix" result="effect1_dropShadow_50_6736"/>
<feBlend mode="normal" in="SourceGraphic" in2="effect1_dropShadow_50_6736" result="shape"/>
</filter>
<filter id="filter1_d_50_6736" x="0" y="0" width="25.9609" height="25.5967" filterUnits="userSpaceOnUse" color-interpolation-filters="sRGB">
<feFlood flood-opacity="0" result="BackgroundImageFix"/>
<feColorMatrix in="SourceAlpha" type="matrix" values="0 0 0 0 0 0 0 0 0 0 0 0 0 0 0 0 0 0 127 0" result="hardAlpha"/>
<feOffset dy="4"/>
<feGaussianBlur stdDeviation="2"/>
<feComposite in2="hardAlpha" operator="out"/>
<feColorMatrix type="matrix" values="0 0 0 0 0 0 0 0 0 0 0 0 0 0 0 0 0 0 0.25 0"/>
<feBlend mode="normal" in2="BackgroundImageFix" result="effect1_dropShadow_50_6736"/>
<feBlend mode="normal" in="SourceGraphic" in2="effect1_dropShadow_50_6736" result="shape"/>
</filter>
<filter id="filter2_d_50_6736" x="7.69775" y="0" width="25.9609" height="25.5967" filterUnits="userSpaceOnUse" color-interpolation-filters="sRGB">
<feFlood flood-opacity="0" result="BackgroundImageFix"/>
<feColorMatrix in="SourceAlpha" type="matrix" values="0 0 0 0 0 0 0 0 0 0 0 0 0 0 0 0 0 0 127 0" result="hardAlpha"/>
<feOffset dy="4"/>
<feGaussianBlur stdDeviation="2"/>
<feComposite in2="hardAlpha" operator="out"/>
<feColorMatrix type="matrix" values="0 0 0 0 0 0 0 0 0 0 0 0 0 0 0 0 0 0 0.25 0"/>
<feBlend mode="normal" in2="BackgroundImageFix" result="effect1_dropShadow_50_6736"/>
<feBlend mode="normal" in="SourceGraphic" in2="effect1_dropShadow_50_6736" result="shape"/>
</filter>
<filter id="filter3_d_50_6736" x="16.6779" y="0" width="25.9609" height="25.5967" filterUnits="userSpaceOnUse" color-interpolation-filters="sRGB">
<feFlood flood-opacity="0" result="BackgroundImageFix"/>
<feColorMatrix in="SourceAlpha" type="matrix" values="0 0 0 0 0 0 0 0 0 0 0 0 0 0 0 0 0 0 127 0" result="hardAlpha"/>
<feOffset dy="4"/>
<feGaussianBlur stdDeviation="2"/>
<feComposite in2="hardAlpha" operator="out"/>
<feColorMatrix type="matrix" values="0 0 0 0 0 0 0 0 0 0 0 0 0 0 0 0 0 0 0.25 0"/>
<feBlend mode="normal" in2="BackgroundImageFix" result="effect1_dropShadow_50_6736"/>
<feBlend mode="normal" in="SourceGraphic" in2="effect1_dropShadow_50_6736" result="shape"/>
</filter>
</defs>
</svg>
