<svg width="26" height="26" viewBox="0 0 26 26" fill="none" xmlns="http://www.w3.org/2000/svg">
<path fill-rule="evenodd" clip-rule="evenodd" d="M17.645 2.97681L17.6461 3.78281C20.6079 4.01494 22.5644 6.03316 22.5675 9.12819L22.5792 18.1876C22.5835 21.5621 20.4635 23.6383 17.0654 23.6437L8.76491 23.6544C5.38803 23.6587 3.24152 21.5331 3.23727 18.1489L3.22559 9.1959C3.22135 6.08044 5.10883 4.0676 8.07064 3.79571L8.06957 2.98971C8.06851 2.51685 8.41883 2.16114 8.88593 2.16114C9.35302 2.16007 9.70334 2.5147 9.7044 2.98756L9.70547 3.73982L16.0112 3.73123L16.0102 2.97896C16.0091 2.50611 16.3594 2.15147 16.8265 2.15039C17.283 2.14932 17.6439 2.50396 17.645 2.97681ZM4.8615 9.5279L20.9338 9.50641V9.13028C20.8881 6.81975 19.7289 5.60753 17.6482 5.42698L17.6493 6.25447C17.6493 6.71658 17.2894 7.08304 16.8329 7.08304C16.3658 7.08412 16.0144 6.71873 16.0144 6.25662L16.0134 5.38614L9.70761 5.39474L9.70867 6.26415C9.70867 6.72733 9.35941 7.09271 8.89231 7.09271C8.42522 7.09379 8.07384 6.72948 8.07384 6.26629L8.07278 5.4388C6.0027 5.64621 4.85726 6.86273 4.86044 9.19368L4.8615 9.5279ZM16.3861 14.4122V14.424C16.3967 14.9184 16.8001 15.2935 17.2895 15.2827C17.7672 15.2709 18.1483 14.8614 18.1377 14.3671C18.1154 13.8942 17.7321 13.5084 17.2555 13.5095C16.7672 13.5203 16.385 13.9179 16.3861 14.4122ZM17.2628 19.2375C16.7745 19.2267 16.3806 18.8194 16.3796 18.3251C16.369 17.8307 16.7607 17.4213 17.249 17.4095H17.2596C17.7586 17.4095 18.163 17.8168 18.163 18.3219C18.1641 18.827 17.7607 19.2364 17.2628 19.2375ZM12.0123 14.4295C12.0335 14.9239 12.438 15.3097 12.9263 15.2882C13.404 15.2656 13.7851 14.8573 13.7639 14.3629C13.7522 13.8793 13.3594 13.5032 12.8817 13.5043C12.3934 13.5258 12.0112 13.9352 12.0123 14.4295ZM12.9306 19.1892C12.4423 19.2107 12.0389 18.8249 12.0166 18.3306C12.0166 17.8362 12.3977 17.4279 12.886 17.4053C13.3637 17.4042 13.7576 17.7803 13.7682 18.2629C13.7905 18.7583 13.4083 19.1667 12.9306 19.1892ZM7.63861 14.4671C7.65985 14.9614 8.06431 15.3483 8.55263 15.3257C9.03034 15.3042 9.41145 14.8948 9.38916 14.4005C9.37854 13.9169 8.98576 13.5407 8.50698 13.5418C8.01866 13.5633 7.63755 13.9727 7.63861 14.4671ZM8.55683 19.1945C8.06851 19.217 7.66511 18.8302 7.64281 18.3358C7.64175 17.8415 8.02392 17.432 8.51225 17.4105C8.98996 17.4094 9.3838 17.7856 9.39442 18.2692C9.41671 18.7635 9.0356 19.173 8.55683 19.1945Z" fill="#9BB5DF"/>
</svg>
