<svg width="390" height="486" viewBox="0 0 390 486" fill="none" xmlns="http://www.w3.org/2000/svg">
<path d="M568.252 75.3997C311.239 203.907 22.4016 78.6779 -89.8908 0C-297.495 181.943 -588.14 512.882 -89.8908 381.096C408.359 249.311 640.283 396.121 693.965 486C759.149 295.589 825.264 -53.1076 568.252 75.3997Z" fill="#F296BD"/>
<g clip-path="url(#clip0_90_331)">
<path d="M164.382 181.758C171.062 182.375 177.831 182.089 184.529 182.098H206.357L159.669 181.758C161.234 181.722 162.808 181.776 164.373 181.758H164.382Z" fill="#EA6546"/>
<path d="M184.538 182.089C177.84 182.089 171.071 182.367 164.391 181.749C171.088 181.687 177.867 181.517 184.538 182.089Z" fill="#EE7358"/>
<path d="M306.79 182.429C309.597 182.564 312.048 182.608 314.847 183.1C312.271 183.637 309.428 182.868 306.79 182.76C305.895 182.725 304.992 182.778 304.107 182.76V182.42C305.001 182.447 305.904 182.376 306.79 182.42V182.429Z" fill="#9BB5DF"/>
<path d="M304.107 182.429V182.769C273.917 182.054 243.611 183.449 213.422 182.599C243.576 183.065 273.962 181.401 304.107 182.429Z" fill="#5E72B5"/>
<path d="M107.293 310.111V310.451C105.228 314.432 97.555 337.755 95.1942 339.168C93.9959 339.884 92.8602 339.982 91.8855 338.81C91.9392 329.479 95.5608 319.826 96.8843 310.451L107.293 310.111Z" fill="#4E3B37"/>
<path d="M118.713 318.171L119.053 319.003L120.769 310.817C123.703 311.148 128.04 309.923 130.472 311.453C128.04 314.772 123.166 329.47 120.644 331.018C112.855 335.804 118.221 320.309 118.722 318.171H118.713Z" fill="#4E3B37"/>
<path d="M130.803 310.442C130.722 310.764 130.66 311.184 130.463 311.453C128.031 309.923 123.694 311.157 120.76 310.817L119.044 319.003L118.704 318.171C119.294 315.613 119.589 312.965 120.385 310.442C123.855 310.442 127.333 310.442 130.794 310.442H130.803Z" fill="#392F2F"/>
<path d="M314.516 313.805L314.176 311.792L323.53 311.837L325.256 321.696L325.586 320.864C326.212 324.317 329.163 335.214 328.967 337.835C328.841 339.535 326.99 340.367 325.586 339.857C324.102 339.32 315.857 317.053 314.498 313.814L314.516 313.805Z" fill="#4F3B38"/>
<path d="M323.914 311.452C324.978 314.485 325.023 317.733 325.595 320.864L325.264 321.696L323.539 311.837L314.185 311.792L314.525 313.805C314.194 313.027 313.773 312.267 313.514 311.452C316.903 311.372 320.588 311.676 323.923 311.452H323.914Z" fill="#493835"/>
<path d="M291.337 312.794C293.161 311.372 296.872 312.356 299.215 311.774L301.075 314.816C301.674 317.482 304.867 328.522 303.579 330.257C302.229 332.091 299.797 330.991 298.661 329.497C296.023 326.062 293.93 317.071 291.337 312.794Z" fill="#4E3B38"/>
<path d="M300.405 311.452C300.825 312.517 300.834 313.734 301.075 314.816L299.215 311.775C296.872 312.356 293.161 311.372 291.337 312.794C291.158 312.49 291.087 312.123 290.997 311.783C294.109 311.256 297.266 311.47 300.405 311.443V311.452Z" fill="#4B3D3A"/>
<path d="M78.0695 223.421C80.6091 223.305 80.5555 223.126 82.4334 224.432C80.4839 222.938 78.4808 224.727 76.3883 223.761C76.907 223.671 77.6581 223.439 78.0695 223.421Z" fill="#5E72B5"/>
<path d="M159.687 181.758L206.375 182.098C239.838 182.098 273.345 181.821 306.798 182.438C305.904 182.393 305.001 182.465 304.116 182.438C273.971 181.409 243.585 183.064 213.431 182.608C243.62 183.449 273.926 182.062 304.116 182.778C305.01 182.796 305.913 182.742 306.798 182.778C325.47 188.271 336.451 206.826 336.022 225.783C327.5 230.918 324.844 246.404 322.251 255.35C322.17 255.306 322.009 255.395 321.911 255.35C319.479 254.295 319.139 254.805 317.207 254.339C316.546 254.178 315.786 253.418 314.856 253.668L323.843 234.282L322.072 232.806C321.106 232.806 320.364 233.817 319.89 234.523C317.046 228.771 315.705 232.206 313.174 234.523C313.103 234.595 312.066 234.318 311.475 235.007C310.76 235.839 310.447 237.449 309.812 238.218C307.916 240.526 305.779 245.008 302.309 244.919C295.549 244.74 276.108 235.991 267.64 233.879C260.638 232.135 253.493 231.061 246.339 230.158C246.446 228.574 246.714 227.357 244.997 226.794H234.588C235.984 219.995 240.195 199.883 239.963 194.006C239.784 189.506 237.003 191.492 234.615 192.717C229.348 195.41 206.831 209.698 205.105 214.269C204.166 216.747 204.014 219.816 203.684 222.428C198.729 220.818 193.453 222.169 188.481 220.666C183.25 219.082 178.242 213.357 173.789 210.333C174.093 209.993 174.504 209.447 174.817 208.687C174.817 208.687 175.139 207.917 175.22 207.067C175.363 205.663 163.747 199.114 147.588 191.179C149.448 189.327 151.344 186.589 152.291 184.12C152.533 183.494 152.774 182.465 152.962 181.767C155.153 182.447 157.442 181.821 159.678 181.767L159.687 181.758ZM155.323 187.806C192.792 190.705 230.457 189.381 268.015 189.47C277.61 189.497 287.536 190.436 297.042 189.658L155.323 187.806Z" fill="#5E72B5"/>
<path d="M110.986 193.854V200.241C107.007 200.939 102.294 201.44 103.761 206.969C104.056 208.078 105.871 209.617 105.88 209.814C105.916 210.324 101.463 216.953 100.747 218.733C99.424 222.043 98.5834 225.586 98.2257 229.138C97.859 232.707 97.9127 235.329 98.2257 238.88C98.4761 241.681 99.8711 252.362 102.831 253.257C103.743 253.534 106.488 253.382 107.624 253.329C109.743 261.282 114.492 268.144 121.726 272.143C117.917 272.071 113.392 277.662 111.478 272.814C108.885 266.211 109.404 266.766 105.263 260.718C104.584 259.716 104.226 258.437 103.251 257.694C101.114 252.21 95.9275 245.348 93.0033 239.891C91.7335 237.52 91.7871 235.194 90.9734 233.522C90.6962 232.958 83.1398 224.915 82.4334 224.423C80.5555 223.117 80.6091 223.305 78.0695 223.412L81.4229 222.741C78.4182 220.111 75.6014 216.828 73.2942 213.571C72.0602 211.827 66.2029 202.988 66.8199 201.583C67.3028 200.483 71.4253 199.91 72.8024 199.159C76.8175 196.967 80.2157 193.496 84.7137 191.259C89.8287 188.71 95.3283 187.046 100.899 185.784C103.394 188.96 107.401 191.957 110.978 193.845L110.986 193.854Z" fill="#E5DDD8"/>
<path d="M314.847 183.1C330.192 185.793 339.653 198.559 343.06 213.008L344.401 220.397C344.419 220.728 344.401 221.068 344.401 221.408C344.392 222.079 344.419 222.759 344.401 223.43C341.799 223.269 339.492 224.521 337.346 225.783C337.078 225.174 336.398 225.55 336.004 225.783C336.443 206.826 325.452 188.271 306.781 182.778C309.428 182.885 312.271 183.655 314.838 183.118L314.847 183.1Z" fill="#9BB5DF"/>
<path d="M155.323 187.806L297.042 189.658C287.537 190.445 277.61 189.497 268.015 189.47C230.457 189.38 192.783 190.696 155.323 187.806Z" fill="#9BB5DF"/>
<path d="M344.401 221.408C344.741 224.602 346.986 222.714 349.186 223.179C372.865 228.118 357.234 256.478 353.308 269.799C346.297 293.596 354.202 309.457 323.914 311.461C320.57 311.685 316.895 311.381 313.505 311.461C309.15 311.56 304.76 311.434 300.405 311.461C297.266 311.479 294.109 311.265 290.997 311.801L290.658 311.461H231.548C224.171 311.461 216.74 311.739 209.38 311.121C215.345 311.112 221.425 311.408 227.345 310.781C216.99 310.719 206.626 310.871 196.279 310.781C182.758 310.665 169.166 310.155 155.645 310.11C152.56 310.102 131.796 309.708 130.794 310.45C127.324 310.45 123.846 310.45 120.385 310.45C116.272 310.45 112.033 310.737 107.955 310.11H107.284L96.8755 310.45V310.11L88.1387 309.77C77.068 308.053 76.8892 300.681 75.3779 291.627C76.4152 288.46 74.6089 284.971 74.7072 281.715L74.3674 282.556C71.7741 268.26 66.2566 260.047 62.8496 247.871C59.8539 237.136 64.7543 225.667 76.3795 223.752C78.472 224.718 80.4751 222.929 82.4245 224.423C83.131 224.915 90.6873 232.958 90.9645 233.521C91.7783 235.185 91.7246 237.511 92.9945 239.891C95.9186 245.348 101.105 252.21 103.242 257.694C107.419 268.403 106.775 281.706 106.775 292.969L107.606 278.861C154.366 279.219 201.072 280.131 247.841 279.89C269.857 279.774 291.945 279.129 313.97 278.843C315.151 278.825 316.34 278.888 317.512 278.861L315.83 293.148L316.501 293.64L318.522 274.155C323.539 271.507 327.724 258.804 322.555 255.341C326.409 245.608 327.464 231.562 337.337 225.774C339.483 224.512 341.79 223.26 344.392 223.421C344.41 222.75 344.375 222.079 344.392 221.399L344.401 221.408Z" fill="#5E72B5"/>
<path d="M105.272 260.718L108.456 278.19C178.108 278.682 247.886 280.167 317.467 277.788L317.869 274.486L318.54 274.146L316.519 293.631L315.848 293.139L317.529 278.852C316.358 278.879 315.169 278.816 313.988 278.834C291.963 279.112 269.875 279.765 247.859 279.881C201.09 280.123 154.375 279.21 107.624 278.852L106.793 292.96C106.793 281.697 107.428 268.394 103.26 257.685C104.235 258.428 104.593 259.707 105.272 260.709V260.718Z" fill="#9BB5DF"/>
<path d="M337.355 225.774C327.482 231.571 326.427 245.608 322.573 255.341C322.501 255.288 322.323 255.386 322.233 255.341C324.826 246.395 327.482 230.909 336.004 225.774C336.398 225.541 337.078 225.166 337.346 225.774H337.355Z" fill="#9BB5DF"/>
<path d="M121.735 272.142C123.3 272.169 125.205 273.314 126.985 273.44C132.323 273.815 135.891 273.127 140.881 271.471C144.181 274.084 149.081 272.447 152.301 272.813C154.017 273.01 156.924 274.746 159.285 275.068C177.482 277.582 197.719 277.358 216.114 276.508C220.719 276.293 232.103 277.823 232.237 271.802L265.824 271.463V271.123C267.944 271.105 270.081 271.14 272.209 271.123C279.855 271.06 292.07 269.298 298.911 270.121C302.005 270.487 306.915 273.073 310.832 273.815C313.076 274.236 315.41 274.621 317.887 274.486L317.485 277.788C247.904 280.167 178.126 278.682 108.474 278.19L105.29 260.718C109.431 266.766 108.903 266.22 111.505 272.813C113.41 277.662 117.944 272.071 121.753 272.142H121.735Z" fill="#5E72B5"/>
<path d="M319.89 234.506C320.364 233.808 321.106 232.797 322.072 232.788L323.843 234.264L314.856 253.651C315.786 253.409 316.546 254.169 317.208 254.322C323.208 259.859 319.282 267.481 315.866 273.136C322.332 270.013 323.619 261.649 321.911 255.332C322.01 255.377 322.162 255.288 322.251 255.332C322.34 255.377 322.51 255.279 322.591 255.332C327.769 258.795 323.575 271.498 318.558 274.146L317.887 274.486C315.419 274.621 313.085 274.236 310.832 273.815C317.771 268.197 323.53 254.483 309.49 254.661V254.322C313.076 250.117 316.447 246.538 314.695 240.544C313.863 237.708 312.584 236.214 309.821 238.191C310.456 237.422 310.769 235.812 311.484 234.98C312.075 234.291 313.112 234.568 313.183 234.497L317.047 240.884C317.413 240.947 319.506 235.087 319.899 234.497L319.89 234.506Z" fill="#288054"/>
<path d="M309.812 238.2C312.575 236.214 313.854 237.717 314.686 240.553C316.438 246.547 313.067 250.126 309.481 254.33C305.922 254.187 301.979 254.232 299.072 256.674C302.426 255.467 305.895 254.706 309.481 254.661C323.53 254.483 317.762 268.197 310.823 273.815C306.906 273.073 301.988 270.487 298.902 270.121C292.061 269.298 279.846 271.06 272.2 271.123L232.568 270.112C232.773 268.922 232.988 267.589 233.238 266.417C233.283 266.193 233.48 265.844 233.578 265.406C233.891 263.948 234.276 262.498 234.589 261.04C234.705 260.485 234.803 259.922 234.928 259.358C235.206 258.034 235.331 256.63 235.599 255.323C235.644 255.1 235.841 254.751 235.939 254.313C236.27 252.747 236.619 251.181 236.949 249.607C236.994 249.401 236.905 249.142 236.949 248.936C237.137 248.041 237.781 246.986 237.62 245.912C239.015 245.805 240.231 245.688 241.644 245.751C242.601 245.268 242.395 244.15 242.655 243.559C242.941 242.906 242.86 242.575 242.994 242.217C243.629 240.383 243.853 238.674 244.336 236.84C244.389 236.617 244.622 236.384 244.676 236.17C245.007 234.729 245.409 233.244 245.686 231.804C245.74 231.517 245.963 231.177 246.026 230.793C246.062 230.524 246.357 230.211 246.366 230.122C253.52 231.025 260.665 232.099 267.667 233.843C276.135 235.946 295.585 244.695 302.336 244.883C305.806 244.982 307.943 240.491 309.839 238.182L309.812 238.2ZM297.051 255.681C278.862 252.183 260.763 247.71 242.306 245.769L270.331 250.993L297.051 255.681Z" fill="#CDACA3"/>
<path d="M321.902 255.341C323.61 261.658 322.323 270.022 315.857 273.145C319.273 267.491 323.199 259.868 317.199 254.331C319.121 254.796 319.47 254.277 321.902 255.341Z" fill="#D2ADA5"/>
<path d="M319.89 234.506C319.488 235.096 317.404 240.956 317.038 240.893L313.174 234.506C315.705 232.188 317.047 228.753 319.89 234.506Z" fill="#D3ADA5"/>
<path d="M309.472 254.33V254.67C305.886 254.715 302.417 255.476 299.063 256.683C301.97 254.241 305.913 254.196 309.472 254.339V254.33Z" fill="#CA9A8E"/>
<path d="M297.051 255.681L270.331 250.993L242.306 245.769C260.763 247.71 278.862 252.183 297.051 255.681Z" fill="#C8988B"/>
<path d="M232.568 270.121L272.2 271.132C270.081 271.149 267.944 271.114 265.816 271.132C256.417 271.23 246.983 270.783 237.602 271.471C235.894 271.498 234.24 271.445 232.568 271.132C232.577 270.908 232.55 270.684 232.568 270.461C232.568 270.353 232.55 270.228 232.568 270.121Z" fill="#CEB4B1"/>
<path d="M237.602 271.472C247.001 271.337 256.417 271.57 265.815 271.472L232.228 271.812V271.472L232.568 271.132C234.249 271.436 235.903 271.489 237.602 271.472Z" fill="#5E72B5"/>
<path d="M265.815 271.132V271.471C256.417 271.57 247.001 271.337 237.602 271.471C246.983 270.783 256.417 271.23 265.815 271.132Z" fill="#5E72B5"/>
<path d="M203.684 222.41C203.049 227.527 203.38 232.931 202.7 238.057C202.602 238.809 202.593 239.211 201.672 239.211C201.582 239.113 200.688 238.943 200.33 238.54C200.107 238.29 199.874 238.102 199.66 237.869C197.397 235.498 196.753 233.557 192.765 233.172C197.004 241.698 188.097 237.914 186.559 234.514C185.87 232.985 186.469 231.356 186.076 229.791C184.654 224.101 169.998 221.462 166.412 215.861C166.447 215.405 172.949 211.209 173.789 210.315C178.242 213.339 183.25 219.064 188.481 220.648C193.445 222.151 198.729 220.8 203.684 222.41Z" fill="#CDACA3"/>
<path d="M162.37 262.06C162.477 262.06 162.593 262.06 162.709 262.06C161.878 263.223 160.975 264.359 160.027 265.424C159.741 265.746 159.347 266.086 159.016 266.435C157.63 267.911 156.128 269.414 154.652 270.801C154.304 271.132 153.91 271.579 153.642 271.812C153.248 272.16 152.631 272.348 152.3 272.822C149.081 272.447 144.181 274.093 140.881 271.481C147.829 269.163 153.999 264.145 160.358 261.738C161.019 261.98 161.672 262.033 162.37 262.078V262.06Z" fill="#277D53"/>
<path d="M234.58 226.776C234.311 228.082 234.267 229.523 233.909 230.811C233.811 231.169 233.694 231.473 233.569 231.822C233.355 232.43 233.48 233.047 233.033 233.808C232.603 234.532 231.253 235.561 230.547 236.187C230.189 236.501 229.706 236.671 229.536 237.198C228.409 237.431 228.454 237.914 227.855 238.54C227.569 238.836 226.996 239.006 226.844 239.551C225.825 239.775 223.366 242.387 222.481 243.246C222.168 243.55 221.64 243.711 221.47 244.257C220.218 244.534 217.142 247.916 216.096 248.963C215.747 249.151 215.443 249.455 215.085 249.634C213.717 250.332 211.24 253.15 210.051 254.339C209.237 254.196 208.951 255.207 208.709 255.35C207.162 256.254 205.213 258.33 204.006 259.716C201.546 259.895 198.846 260.906 196.279 260.727C193.981 260.781 191.558 260.996 189.224 261.067C187.507 260.083 184.958 261.067 183.349 261.067H178.144L180.827 261.407C177.831 261.523 174.8 261.989 171.759 262.078H162.352C161.654 262.042 160.993 261.989 160.34 261.738C162.566 260.897 164.498 261.067 165.723 260.575C167.503 259.859 174.102 255.86 175.023 255.762C177.08 255.556 179.253 258.75 183.331 258.374C184.037 258.312 184.493 257.399 184.851 257.372C186.782 257.256 200.473 257.659 200.929 256.997L201.976 246.959C199.266 248.829 197.987 253.06 195.278 254.867C194.92 255.109 193.901 255.995 193.918 254.858C195.501 252.353 200.768 247.612 201.797 245.268C202.244 244.266 201.931 243.157 201.976 242.253C201.993 241.931 202.584 241.43 201.976 240.911C202.137 240.553 202.324 240.213 202.333 239.802C202.262 239.471 201.833 239.444 201.645 239.229C202.557 239.229 202.575 238.827 202.673 238.075C203.353 232.958 203.022 227.554 203.657 222.428C203.979 219.816 204.14 216.756 205.079 214.269C206.804 209.698 229.321 195.41 234.589 192.718C236.976 191.492 239.757 189.506 239.936 194.006C240.169 199.875 235.957 219.995 234.562 226.794L234.58 226.776Z" fill="#5E5E5C"/>
<path d="M199.65 237.869L189.581 247.782L189.912 248.623L195.617 248.444L189.242 255.673L202.002 242.235C201.958 243.139 202.271 244.248 201.824 245.25C200.786 247.594 195.528 252.336 193.945 254.841C193.927 255.986 194.938 255.091 195.304 254.85C198.014 253.042 199.293 248.811 202.002 246.941L200.956 256.979C200.5 257.641 186.8 257.229 184.878 257.354L184.717 256.013C188.276 256.37 187.033 253.821 187.721 252.64C187.954 252.246 189.465 252.228 189.841 251.056C190.368 249.428 188.848 246.896 187.9 245.59L197.808 236.179L187.229 244.919C185.781 243.336 182.964 241.287 180.845 240.884L186.55 234.497C188.088 237.905 196.995 241.681 192.756 233.155C196.735 233.548 197.388 235.481 199.65 237.852V237.869Z" fill="#575756"/>
<path d="M200.321 238.54L192.595 247.272C195.752 249.088 200.903 243.282 201.993 240.893C202.602 241.412 202.011 241.913 201.993 242.235L189.233 255.672L195.609 248.444L189.903 248.623L189.572 247.782L199.642 237.869C199.865 238.102 200.089 238.299 200.312 238.54H200.321Z" fill="#626462"/>
<path d="M201.663 239.211C201.859 239.426 202.28 239.453 202.351 239.784C202.351 240.195 202.163 240.535 201.993 240.893C200.902 243.282 195.752 249.097 192.595 247.272L200.321 238.54C200.688 238.943 201.573 239.113 201.663 239.211Z" fill="#575755"/>
<path d="M189.242 261.049C186.443 261.13 183.644 261.282 180.845 261.389L178.162 261.049H183.366C184.985 261.049 187.525 260.065 189.242 261.049Z" fill="#4C5364"/>
<path d="M171.777 262.06C168.71 262.15 165.777 262.158 162.709 262.06C162.593 262.06 162.486 262.06 162.37 262.06H171.777Z" fill="#4C5364"/>
<path d="M187.9 245.599C187.82 245.483 187.426 245.143 187.229 244.928L197.808 236.188L187.9 245.599Z" fill="#636562"/>
<path d="M180.845 240.893C182.964 241.296 185.781 243.345 187.23 244.928C187.426 245.143 187.82 245.483 187.9 245.599C188.848 246.905 190.368 249.437 189.841 251.065C189.465 252.237 187.954 252.246 187.721 252.649C187.033 253.821 188.267 256.379 184.717 256.021L184.878 257.363C184.52 257.381 184.064 258.294 183.357 258.365C179.28 258.741 177.107 255.547 175.05 255.753C174.129 255.842 167.52 259.85 165.75 260.566C164.525 261.058 162.593 260.888 160.367 261.729C154.008 264.136 147.838 269.155 140.89 271.472C135.909 273.136 132.332 273.816 126.993 273.44C125.214 273.315 123.309 272.169 121.744 272.143C114.51 268.144 109.761 261.273 107.642 253.329C114.537 253.033 122.263 249.544 128.988 248.041L131.509 255.333L132.278 255.315C147.176 255.01 167.109 238.29 180.863 240.902L180.845 240.893ZM186.89 251.978L180.514 247.612L181.202 248.766L186.89 251.978Z" fill="#CDACA3"/>
<path d="M186.89 251.978L181.202 248.766L180.514 247.612L186.89 251.978Z" fill="#CE9F94"/>
<path d="M244.988 226.776C246.705 227.339 246.437 228.556 246.33 230.14C246.33 230.229 246.035 230.542 245.99 230.811H233.9C234.258 229.522 234.302 228.082 234.571 226.776H244.98H244.988Z" fill="#F6B01B"/>
<path d="M234.58 261.049C234.275 262.507 233.882 263.966 233.569 265.415H160.018C160.975 264.359 161.869 263.214 162.7 262.051C165.768 262.149 168.701 262.14 171.768 262.051C174.808 261.962 177.84 261.487 180.836 261.38C183.635 261.273 186.434 261.13 189.233 261.04C191.567 260.968 193.981 260.754 196.288 260.7C208.995 260.405 221.863 260.646 234.58 261.04V261.049Z" fill="#F8A91E"/>
<path d="M235.59 255.341C235.322 256.639 235.197 258.052 234.919 259.376C224.734 260.539 214.173 258.973 204.023 259.716C205.231 258.329 207.18 256.254 208.727 255.35H235.599L235.59 255.341Z" fill="#F8A91E"/>
<path d="M226.853 239.551C229.465 238.97 234.079 239.981 236.931 239.551C237.316 239.873 238.362 240.374 238.443 240.562C238.729 241.224 238.55 241.654 238.613 242.235C238.613 242.289 238.067 242.79 238.282 243.237L242.646 243.577C242.377 244.167 242.592 245.286 241.635 245.769C240.222 245.706 239.006 245.823 237.611 245.93C235.858 246.073 233.623 245.465 235.259 248.614H217.124C218.117 247.504 219.619 245.679 221.157 246.1V244.579L235.93 244.239C236.592 244.185 237.28 244.284 237.951 244.239V243.237H222.498C223.384 242.378 225.843 239.766 226.862 239.542L226.853 239.551Z" fill="#F8A91E"/>
<path d="M236.931 249.625C236.609 251.19 236.252 252.765 235.921 254.33H210.059C211.249 253.141 213.735 250.323 215.094 249.625H236.922H236.931Z" fill="#F8A91E"/>
<path d="M233.569 265.424C233.48 265.862 233.283 266.211 233.229 266.435H159.007C159.338 266.086 159.723 265.746 160.018 265.424H233.569Z" stroke="#FDCB59" stroke-miterlimit="10"/>
<path d="M245.659 231.822C245.391 233.271 244.98 234.747 244.649 236.187H230.547C231.253 235.561 232.612 234.532 233.032 233.808C233.48 233.047 233.354 232.439 233.569 231.822H245.659Z" fill="#F8A91E"/>
<path d="M242.976 242.235H238.613C238.55 241.654 238.729 241.215 238.443 240.562C238.362 240.374 237.316 239.873 236.931 239.551C234.553 237.574 230.734 238.934 227.864 238.54C228.463 237.914 228.418 237.431 229.545 237.198C233.65 236.357 239.999 238.102 244.327 236.858C243.844 238.692 243.62 240.401 242.985 242.235H242.976Z" fill="#F8A91E"/>
<path d="M233.238 266.426C232.988 267.598 232.764 268.931 232.568 270.121C232.55 270.228 232.568 270.344 232.568 270.461C227.524 270.326 222.498 270.729 217.455 270.801L222.829 270.461C221.729 268.376 224.394 268.17 224.841 266.435H233.238V266.426Z" fill="#F8A91E"/>
<path d="M234.58 261.049C221.864 260.655 208.995 260.423 196.288 260.709C198.855 260.888 201.555 259.877 204.014 259.698C214.164 258.956 224.725 260.53 234.91 259.358C234.794 259.922 234.696 260.476 234.571 261.04L234.58 261.049Z" stroke="#FDCB59" stroke-miterlimit="10"/>
<path d="M210.06 254.33H235.921C235.832 254.769 235.635 255.118 235.581 255.341H208.709C208.951 255.198 209.237 254.187 210.051 254.33H210.06Z" fill="#F9C64C"/>
<path d="M221.479 244.248C224.841 243.497 231.942 244.552 235.921 244.248L221.148 244.588V246.109C219.61 245.679 218.108 247.513 217.115 248.623H235.25C233.614 245.465 235.849 246.073 237.602 245.939C237.763 247.012 237.11 248.068 236.931 248.963H216.104C217.151 247.916 220.227 244.534 221.479 244.257V244.248Z" fill="#F8A91E"/>
<path d="M236.931 248.954C236.887 249.159 236.976 249.419 236.931 249.625H215.103C215.461 249.446 215.756 249.141 216.114 248.954H236.94H236.931Z" fill="#F9C852"/>
<path d="M244.658 236.187C244.613 236.402 244.38 236.635 244.318 236.858C239.99 238.093 233.65 236.348 229.536 237.198C229.706 236.67 230.189 236.509 230.546 236.187H244.649H244.658Z" fill="#F8C64C"/>
<path d="M245.999 230.811C245.945 231.195 245.713 231.526 245.659 231.821H233.569C233.685 231.482 233.811 231.168 233.909 230.811H245.999Z" fill="#F8C74E"/>
<path d="M242.977 242.235C242.851 242.602 242.932 242.924 242.637 243.577L238.273 243.237C238.058 242.781 238.613 242.28 238.604 242.235H242.968H242.977Z" fill="#F8C64A"/>
<path d="M222.489 243.246H237.942V244.248C237.271 244.293 236.592 244.203 235.921 244.248C231.942 244.552 224.841 243.497 221.479 244.248C221.64 243.702 222.176 243.541 222.489 243.237V243.246Z" fill="#F9C74E"/>
<path d="M227.864 238.54C230.743 238.934 234.553 237.574 236.931 239.551C234.079 239.981 229.464 238.97 226.853 239.551C227.005 239.005 227.578 238.835 227.864 238.54Z" fill="#F9C74B"/>
<path d="M212.411 271.803C213.976 271.829 216.024 271.498 217.446 272.134L207.037 276.168L216.105 276.508C197.71 277.367 177.464 277.582 159.276 275.068C156.924 274.746 154.008 273.01 152.292 272.814C152.622 272.348 153.239 272.151 153.633 271.803C173.208 272.035 192.827 271.489 212.411 271.803Z" fill="#F8A91E"/>
<path d="M232.228 271.471V271.811C232.094 277.832 220.71 276.302 216.105 276.517L207.037 276.177L217.446 272.142C216.024 271.507 213.976 271.838 212.411 271.811L232.228 271.471Z" fill="#F8A91E"/>
<path d="M224.841 266.426C224.394 268.161 221.729 268.367 222.829 270.452L217.455 270.792C196.539 271.078 175.551 270.577 154.652 270.792C156.137 269.405 157.63 267.902 159.016 266.426H224.841Z" fill="#F8A91E"/>
<path d="M232.567 270.461C232.55 270.684 232.576 270.908 232.567 271.132L232.228 271.471L212.411 271.811C192.836 271.498 173.217 272.044 153.633 271.811C153.892 271.579 154.295 271.132 154.643 270.8C175.551 270.586 196.53 271.087 217.446 270.8C222.489 270.729 227.515 270.326 232.559 270.461H232.567Z" stroke="#FDCB59" stroke-miterlimit="10"/>
<path d="M230.377 261.139C231.834 261.139 232.389 259.313 230.627 259.313C229.169 259.313 228.615 261.139 230.377 261.139Z" fill="#FDCB59"/>
<path d="M231.691 260.7C232.272 260.7 233.068 260.602 233.524 260.208C233.846 259.931 233.945 259.591 233.354 259.591C232.764 259.591 231.977 259.689 231.521 260.083C231.199 260.36 231.101 260.7 231.691 260.7Z" fill="#FDCB59"/>
<path d="M232.889 261.228C234.392 261.228 234.857 259.269 233.104 259.269C231.602 259.269 231.137 261.228 232.889 261.228Z" fill="#FDCB59"/>
<path d="M149.94 190.213C148.258 191.313 146.586 192.413 144.905 193.514C143.117 194.408 141.319 195.303 139.531 196.198C139.584 198.882 139.638 201.574 139.692 204.258C136.642 202.925 132.681 201.521 127.941 200.59C123.81 199.785 120.126 199.544 117.094 199.553C116.37 199.687 115.654 199.821 114.93 199.955C112.775 201.288 110.602 201.458 109.591 200.465C109.386 200.268 109.144 199.937 109.019 199.391C107.776 196.332 106.542 193.263 105.299 190.204C101.981 188.495 100.408 187.019 100.569 185.766C100.971 182.635 112.247 180.908 134.38 180.586C140.72 181.025 147.051 181.472 153.391 181.91" fill="#5E72B5"/>
<path d="M140.809 207.64H128.549C126.189 198.604 123.828 189.559 121.467 180.524C125.035 181.964 128.594 183.395 132.162 184.836H137.179C137.814 184.263 138.449 183.7 139.084 183.127C139.656 191.295 140.237 199.463 140.809 207.64Z" fill="#CDACA3"/>
<path d="M159.866 164.349C159.866 175.702 145.853 188.45 133.512 188.45C121.172 188.45 105.684 174.807 105.684 163.454C105.684 152.101 121.163 147.351 133.512 147.351C145.862 147.351 159.866 152.996 159.866 164.349Z" fill="#CDACA3"/>
<path d="M107.544 168.831C108.384 168.312 113.338 180.73 120.832 180.989C123.729 181.087 127.682 179.397 134.657 176.417C135.22 176.176 136.759 175.505 138.789 175.585C140.157 175.639 141.158 176.015 141.587 176.167C142.133 176.364 148.276 178.493 151.88 177.616C156.781 176.426 158.659 169.278 158.989 169.448C159.24 169.574 158.149 173.599 155.064 177.733C151.075 183.065 146.077 185.471 144.556 186.142C139.101 188.558 134.21 188.531 131.876 188.379C130.249 188.271 125.911 187.833 121.083 185.328C119.956 184.737 114 181.553 109.851 174.575C108.34 172.034 107.141 169.081 107.544 168.84V168.831Z" fill="#392D24"/>
<path d="M116.719 167.901C116.719 171.577 112.346 174.566 106.945 174.566C101.552 174.566 99.424 170.495 99.424 166.809C99.424 163.123 101.552 161.236 106.945 161.236C112.337 161.236 116.719 164.224 116.719 167.901Z" fill="#CDACA3"/>
<path d="M144.905 180.899C144.986 183.905 137.483 188.038 133.951 185.56C132.502 184.54 131.572 182.313 132.144 180.354C132.949 177.643 136.213 176.963 136.929 176.838C140.613 176.203 144.843 178.672 144.896 180.899H144.905Z" fill="#CDACA3"/>
<path d="M144.091 180.783C144.306 181.186 141.704 182.456 138.788 182.447C135.864 182.447 133.271 181.15 133.486 180.747C133.629 180.479 134.925 180.703 139.262 180.703C142.911 180.703 143.966 180.542 144.091 180.783Z" stroke="#AD8D82" stroke-miterlimit="10"/>
<path d="M130.879 166.78C131.12 164.982 129.495 163.281 127.248 162.979C125.001 162.677 122.984 163.889 122.743 165.686C122.502 167.484 124.127 169.185 126.374 169.487C128.621 169.789 130.638 168.577 130.879 166.78Z" fill="#F3E1DD"/>
<path d="M127.378 169.332C128.45 169.332 129.319 168.463 129.319 167.391C129.319 166.318 128.45 165.449 127.378 165.449C126.306 165.449 125.438 166.318 125.438 167.391C125.438 168.463 126.306 169.332 127.378 169.332Z" fill="#2E2522"/>
<path d="M149.477 169.749C151.723 169.447 153.349 167.746 153.108 165.949C152.866 164.151 150.85 162.939 148.603 163.241C146.356 163.543 144.73 165.245 144.972 167.042C145.213 168.839 147.23 170.051 149.477 169.749Z" fill="#F3E1DD"/>
<path d="M149.797 169.654C150.868 169.654 151.737 168.785 151.737 167.713C151.737 166.64 150.868 165.771 149.797 165.771C148.725 165.771 147.856 166.64 147.856 167.713C147.856 168.785 148.725 169.654 149.797 169.654Z" fill="#2E2522"/>
<path d="M148.938 189.971C164.856 195.759 175.971 202.567 175.229 207.049C175.104 207.801 174.755 209.313 173.798 210.315C172.949 211.2 166.456 215.396 166.421 215.861C170.007 221.453 184.663 224.092 186.085 229.791C186.478 231.356 185.879 232.985 186.568 234.514L180.863 240.902C167.1 238.29 147.177 255.01 132.278 255.315L131.509 255.332L128.988 248.041C122.263 249.544 114.537 253.033 107.642 253.328C106.506 253.373 103.761 253.534 102.849 253.257C99.8891 252.362 98.4851 241.68 98.2437 238.88V229.138C98.6013 225.586 99.4419 222.043 100.765 218.733C101.472 216.953 105.925 210.333 105.898 209.814C105.889 209.617 104.065 208.087 103.779 206.969C102.312 201.44 107.025 200.93 111.004 200.241C111.908 200.08 114.885 199.57 115.538 199.57H126.618C129.766 199.57 136.633 202.943 139.71 204.276L139.549 196.215C140.175 195.741 140.935 195.231 141.847 194.757C142.983 194.158 144.047 193.782 144.923 193.523L149.958 201.923C150.002 201.306 150.101 198.899 148.428 197.074C146.443 194.9 142.759 194.435 139.549 196.206C140.926 194.659 143.027 192.709 146.005 191.197C147.042 190.669 148.035 190.275 148.956 189.971H148.938ZM144.628 210.136C144.628 208.731 143.492 207.595 142.088 207.595C140.684 207.595 139.549 208.731 139.549 210.136C139.549 211.54 140.684 212.677 142.088 212.677C143.492 212.677 144.628 211.54 144.628 210.136ZM158.507 207.64L158.167 208.642L166.063 215.53L158.507 207.64ZM131.134 209.984L107.284 210.485L130.964 210.995L131.143 209.984H131.134ZM149.68 216.148C149.68 214.904 148.67 213.893 147.427 213.893C146.184 213.893 145.173 214.904 145.173 216.148C145.173 217.391 146.184 218.402 147.427 218.402C148.67 218.402 149.68 217.391 149.68 216.148ZM102.581 243.577C101.168 235.096 101.776 227.438 104.593 219.386C100.3 225.774 99.5671 236.527 102.581 243.577ZM155.654 221.927C155.654 220.675 154.643 219.664 153.391 219.664C152.14 219.664 151.129 220.675 151.129 221.927C151.129 223.18 152.14 224.19 153.391 224.19C154.643 224.19 155.654 223.18 155.654 221.927ZM161.949 227.152C161.949 225.863 160.903 224.817 159.615 224.817C158.328 224.817 157.281 225.863 157.281 227.152C157.281 228.44 158.328 229.487 159.615 229.487C160.903 229.487 161.949 228.44 161.949 227.152ZM126.439 229.469C128.549 235.373 130.123 241.519 132.654 247.263C132.86 244.257 131.205 240.741 130.24 237.932C129.327 235.275 128.746 231.356 126.448 229.469H126.439Z" fill="#288054"/>
<path d="M98.2257 238.88C97.9127 235.32 97.8591 232.707 98.2257 229.138V238.88Z" fill="#116D3C"/>
<path d="M145.728 192.843C148.312 195.893 150.61 200.027 151.057 204.097L144.914 193.675C145.066 193.567 145.379 193.12 145.737 192.843H145.728Z" fill="#358A63"/>
<path d="M102.581 243.577C99.567 236.527 100.3 225.765 104.593 219.386C101.776 227.438 101.168 235.096 102.581 243.577Z" fill="#368B63"/>
<path d="M131.134 209.984L130.964 210.995L107.284 210.476L131.134 209.984Z" fill="#358B64"/>
<path d="M142.088 212.677C143.491 212.677 144.628 211.539 144.628 210.136C144.628 208.733 143.491 207.595 142.088 207.595C140.686 207.595 139.549 208.733 139.549 210.136C139.549 211.539 140.686 212.677 142.088 212.677Z" fill="#266744"/>
<path d="M126.439 229.469C128.737 231.356 129.318 235.275 130.231 237.932C131.196 240.741 132.851 244.257 132.645 247.263C130.114 241.51 128.54 235.373 126.43 229.469H126.439Z" fill="#368B64"/>
<path d="M159.615 229.487C160.904 229.487 161.949 228.441 161.949 227.152C161.949 225.862 160.904 224.817 159.615 224.817C158.326 224.817 157.281 225.862 157.281 227.152C157.281 228.441 158.326 229.487 159.615 229.487Z" fill="#266744"/>
<path d="M153.383 224.19C154.632 224.19 155.645 223.177 155.645 221.927C155.645 220.677 154.632 219.664 153.383 219.664C152.133 219.664 151.12 220.677 151.12 221.927C151.12 223.177 152.133 224.19 153.383 224.19Z" fill="#266744"/>
<path d="M147.427 218.402C148.671 218.402 149.68 217.393 149.68 216.148C149.68 214.903 148.671 213.893 147.427 213.893C146.182 213.893 145.173 214.903 145.173 216.148C145.173 217.393 146.182 218.402 147.427 218.402Z" fill="#266744"/>
<path d="M158.507 207.64L166.063 215.531L158.167 208.642L158.507 207.64Z" fill="#368A64"/>
<path d="M106.712 168.965C105.46 169.368 104.414 168.562 104.324 167.802C104.244 167.149 104.843 166.272 105.836 165.995" stroke="#AD8D82" stroke-width="0.5" stroke-miterlimit="10"/>
<path d="M105.326 167.578C106.614 167.838 107.231 169.081 107.007 169.815" stroke="#AD8D82" stroke-width="0.5" stroke-miterlimit="10"/>
<g opacity="0.51">
<path d="M212.68 230.954C212.376 230.838 212.59 230.811 212.572 230.659C212.519 230.113 212.304 229.594 211.973 229.138C211.642 228.681 211.311 228.306 210.793 228.118C210.703 228.082 210.596 228.1 210.569 227.984C210.542 227.867 210.444 228.002 210.596 227.76C210.748 227.518 211.562 226.561 211.794 226.373C212.027 226.185 211.973 226.329 212.072 226.373C212.17 226.427 212.125 226.516 212.134 226.633C212.143 226.74 212.143 226.946 212.215 227.053C212.385 226.463 212.662 225.702 213.136 225.336C213.61 224.969 213.869 225.201 214.254 225.461C214.361 225.005 214.719 224.28 215.049 224.047C215.38 223.815 215.237 223.868 215.604 223.833C215.97 223.797 216.444 224.307 216.677 224.593C216.909 224.879 217.044 225.112 217.276 225.371C217.509 225.631 217.678 225.846 218.009 226.033C218.34 226.221 218.743 226.212 219.145 226.257C219.538 226.302 220.173 226.06 220.504 226.007C221.229 225.899 221.953 224.271 222.275 224.495C222.597 224.718 221.443 226.499 220.603 226.883C220.513 226.928 218.322 228.002 217.661 227.393C217.401 227.152 216.909 227.071 216.704 226.776C216.498 226.481 216.48 226.499 216.23 226.177C215.979 225.854 215.434 224.978 214.835 225.103C214.71 225.13 214.37 225.461 214.495 225.783C214.593 226.033 214.906 226.624 215.148 226.982C215.389 227.34 215.836 227.805 216.301 227.939C216.4 227.966 216.516 228.019 216.552 228.082C216.588 228.145 216.623 228.189 216.552 228.243C216.024 228.637 215.461 229.057 214.924 229.442C214.853 229.496 214.817 229.442 214.772 229.379C214.727 229.317 214.71 229.209 214.719 229.129C214.745 228.52 214.227 227.769 213.976 227.34C213.717 226.901 213.163 226.364 212.823 226.543C212.483 226.722 212.394 227.071 212.394 227.366C212.394 227.662 212.626 227.778 212.841 228.154C213.055 228.529 213.663 229.335 214.182 229.522C214.262 229.549 214.352 229.612 214.406 229.666C214.459 229.719 214.423 229.791 214.406 229.818C214.155 230.184 212.975 231.07 212.68 230.954Z" fill="white"/>
<path d="M218.242 221.99C219.333 221.211 220.692 221.238 221.399 222.41C222.105 223.582 221.729 224.701 220.683 225.479C219.637 226.257 218.358 226.32 217.544 225.184C216.731 224.047 217.142 222.768 218.242 221.99ZM218.492 224.369C218.904 224.951 219.807 225.819 220.513 225.291C221.229 224.763 220.692 223.797 220.308 223.206C219.923 222.607 219.082 221.712 218.331 222.231C217.58 222.75 218.081 223.779 218.492 224.369Z" fill="white"/>
<path d="M225.905 220.505C226.075 220.71 226.362 220.791 226.415 220.818C226.844 221.033 227.318 220.961 227.64 220.952C227.962 220.952 228.248 220.684 228.427 220.666C228.848 220.63 229.634 219.36 229.76 219.691C229.894 220.022 228.508 221.551 227.721 221.784C227.479 221.856 226.433 222.312 225.977 222.106C225.521 221.9 225.11 221.775 224.841 221.355C224.573 220.934 224.466 220.701 224.162 220.201C224.054 220.031 223.5 219.485 223.196 219.726C222.892 219.968 222.65 220.156 222.615 220.469C222.579 220.782 222.874 220.925 223.008 221.283C223.142 221.641 223.92 222.518 224.215 222.625C224.51 222.741 224.43 222.705 224.519 222.795C224.609 222.884 224.591 222.902 224.519 222.956C223.929 223.332 223.259 223.725 222.668 224.119C222.588 224.173 222.57 224.128 222.516 224.056C222.463 223.985 222.463 223.877 222.472 223.761C222.498 223.215 222.266 222.679 221.989 222.222C221.711 221.766 221.39 221.408 220.907 221.22C220.808 221.185 220.692 221.202 220.674 221.086C220.656 220.97 220.549 221.122 220.71 220.88C220.871 220.639 221.81 219.708 222.069 219.53C222.328 219.351 222.293 219.458 222.4 219.521C222.507 219.583 222.445 219.682 222.445 219.771C222.445 219.861 222.445 219.995 222.463 220.084C222.785 219.556 222.928 219.055 223.554 218.724C224.18 218.402 224.797 218.814 225.172 219.404C225.369 219.708 225.744 220.263 225.914 220.478L225.905 220.505Z" fill="white"/>
<path d="M226.147 216.846C226.782 216.362 227.739 215.745 228.329 216.64C228.919 217.534 227.935 218.975 227.059 219.458C227.506 219.932 228.284 220.129 228.758 219.905C229.232 219.682 229.008 219.27 228.883 219.127C228.526 218.715 228.624 218.241 228.946 218.035C229.268 217.83 229.545 217.463 229.822 218.062C230.099 218.662 229.679 219.655 228.758 220.2C227.837 220.746 226.326 220.916 225.566 219.735C224.814 218.545 225.127 217.624 226.147 216.846ZM227.086 217.713C226.844 217.212 226.549 217.203 226.281 217.356C225.628 217.731 226.147 218.465 226.353 218.796C226.567 219.118 226.63 219.109 226.835 219.324C227.408 218.841 227.318 218.214 227.086 217.713Z" fill="white"/>
<path d="M230.448 212.865C231.629 211.854 232.979 211.657 233.802 213.115C234.624 214.573 233.739 215.817 232.675 216.694C231.611 217.57 230.055 218.375 229.071 217.016C228.096 215.656 229.268 213.875 230.448 212.865ZM230.332 215.763C230.797 216.577 231.718 217.141 232.505 216.497C233.292 215.853 233.05 214.851 232.675 213.974C232.299 213.106 231.378 212.408 230.529 213.124C229.679 213.84 229.867 214.949 230.332 215.754V215.763Z" fill="white"/>
</g>
<path d="M159.821 160.6C159.508 160.788 157.916 156.798 154.777 156.342C152.318 155.993 150.691 158.068 148.858 159.196C141.257 163.875 131.456 151.35 120.09 153.774C111.532 155.599 107.427 164.698 105.943 163.696C105.085 163.114 106.524 158.489 109.466 154.875C113.079 150.446 117.845 148.916 121.467 147.753C126.412 146.179 130.4 146.089 133.709 146.027C137.563 145.955 141.865 145.91 146.98 147.7C149.01 148.406 151.558 149.328 154.169 151.511C158.667 155.268 160.161 160.394 159.821 160.609V160.6Z" fill="#392D24"/>
</g>
<defs>
<clipPath id="clip0_90_331">
<rect width="300" height="194" fill="white" transform="translate(62 146)"/>
</clipPath>
</defs>
</svg>
