<svg width="338" height="196" viewBox="0 0 338 196" fill="none" xmlns="http://www.w3.org/2000/svg">
<g clip-path="url(#clip0_50_378)">
<path d="M135.37 97.7647C138.366 101.433 139.658 108.024 137.426 111.77C136.447 113.418 133.52 116.674 111.697 112.486C97.9418 109.848 84.1277 107.2 84.1571 103.532C84.1767 99.8734 97.9418 97.8137 112.666 95.607C128.615 93.2237 132.785 94.5968 135.38 97.7647H135.37Z" fill="#A07C6B"/>
<path d="M130.866 97.3724C133.862 100.952 135.145 107.367 132.913 111.035C131.934 112.633 128.997 115.821 107.184 111.741C93.4285 109.171 79.6242 106.602 79.6438 103.022C79.6732 99.4517 93.4285 97.4411 108.153 95.2833C124.101 92.9491 128.282 94.2829 130.866 97.3724Z" fill="#A07C6B"/>
<path d="M132.188 102.727C135.243 105.179 136.643 109.73 134.469 112.447C133.52 113.634 130.641 116.037 108.78 113.997C94.9851 112.712 81.1515 111.417 81.1123 108.848C81.0732 106.288 94.7893 104.287 109.455 102.139C125.355 99.8145 129.545 100.609 132.178 102.727H132.188Z" fill="#A07C6B"/>
<path d="M131.258 81.4247C133.343 77.0111 136.633 72.9507 138.258 64.82C139.492 58.6508 138.748 55.2475 139.717 55.0318C141.753 54.5904 149.83 68.7824 148.675 84.3474C147.52 99.8732 137.348 114.644 132.825 113.506C128.311 112.368 125.188 94.2926 131.258 81.4247Z" fill="#A07C6B"/>
<path d="M134.166 97.902C139.345 96.215 142.301 92.1742 142.517 92.3801C142.781 92.645 138.571 99.6478 131.953 104.14C115.182 115.527 88.9641 106.729 89.0424 103.738C89.0718 102.659 94.2998 101.678 104.775 99.7164C113.606 98.0589 118.022 97.235 122.603 97.5587C128.017 97.951 130.181 99.1966 134.185 97.8922L134.166 97.902Z" fill="#A07C6B"/>
<path d="M139.56 46.7539C145.64 49.9513 146.834 56.7677 147.05 57.9643C148.078 63.8196 146.306 71.7247 142.722 72.4603C137.798 73.4705 130.837 60.6222 132.247 59.3374C132.991 58.6607 135.977 61.2794 136.799 60.5143C138.356 59.0726 128.35 48.8724 130.661 45.832C131.953 44.1254 136.701 45.2435 139.56 46.7441V46.7539Z" fill="#A07C6B"/>
<path d="M61.8647 82.7095C65.9962 76.8248 74.5235 72.8723 78.8018 75.9323C83.2662 79.1297 81.9151 89.1141 76.7459 94.832C72.6633 99.3535 64.929 102.619 60.7975 99.2358C56.6367 95.8422 58.4185 87.6037 61.8647 82.6997V82.7095Z" fill="#FDCB59"/>
<path d="M94.6131 117.302C98.6761 124.442 100.663 128.051 100.546 130.16C100.154 137.123 91.3334 141.694 81.6997 146.696C72.6731 151.374 65.9766 154.856 60.3178 152.051C57.8702 150.835 55.9514 147.677 52.2506 141.36C46.9541 132.327 44.3107 127.806 44.8002 124.108C45.7303 117.017 53.4842 112.898 61.6982 108.524C69.6675 104.287 78.3025 99.6869 85.0284 103.228C87.2508 104.395 89.7375 108.71 94.6229 117.312L94.6131 117.302Z" fill="#A07C6B"/>
<path d="M80.1627 117.567L60.7584 126.904L51.2814 92.4781L59.2311 88.6628L80.1627 117.567Z" fill="#A07D6C"/>
<path d="M69.6683 119.431C74.2888 117.867 77.0691 113.737 75.8782 110.206C74.6874 106.675 69.9763 105.081 65.3559 106.645C60.7354 108.209 57.9551 112.339 59.146 115.87C60.3368 119.401 65.0478 120.995 69.6683 119.431Z" fill="#A07D6C"/>
<path d="M54.7374 160.947C54.3066 160.603 53.915 160.299 53.4842 159.936C61.9038 149.991 53.1905 125.972 40.4142 123.412C40.8744 123.03 41.2953 122.402 41.9219 121.902C48.4814 123.569 52.1821 128.365 54.8744 134.24C58.5066 142.165 61.4143 153.875 54.7472 160.947H54.7374Z" fill="#287F53"/>
<path d="M233.752 71.0285C233.909 82.8568 233.547 94.7144 233.752 106.543H233.498L233.224 71.3914C233.145 70.8323 233.694 71.0775 233.743 71.0285H233.752Z" fill="#FDFAF5"/>
<path d="M268.449 163.212C263.994 162.732 259.511 162.33 255.017 161.927L250.592 160.692C256.544 161.339 262.565 162.055 268.439 163.212H268.449Z" fill="#A07D6C"/>
<path d="M278.249 164.223L268.948 163.212C272.032 163.546 275.155 163.899 278.249 164.223Z" fill="#8B5939"/>
<path d="M205.84 91.4287H202.316C203.314 91.3601 204.851 91.3306 205.84 91.4287Z" fill="#814928"/>
<path d="M248.075 160.447H246.822C247.234 160.496 247.674 160.397 248.075 160.447Z" fill="#774D35"/>
<path d="M210.618 153.64V153.895L203.833 152.639C206.163 152.934 208.337 152.983 210.618 153.65V153.64Z" fill="#D3361F"/>
<path d="M150.525 191.675C152.268 191.724 154.04 191.891 155.802 191.93C159.062 191.998 162.342 191.93 165.612 191.93H166.366C166.454 191.93 166.532 191.93 166.62 191.93C168.902 192.391 171.339 192.185 173.66 192.185C173.993 192.185 174.325 192.185 174.668 192.185C174.835 192.185 175.001 192.185 175.167 192.185C176 192.165 176.842 192.195 177.683 192.185C177.85 192.185 178.016 192.185 178.183 192.185C178.682 192.165 179.201 192.234 179.69 192.185H185.976L147.255 191.685C148.342 191.724 149.439 191.655 150.525 191.685V191.675Z" fill="#F6E8D6"/>
<path d="M146.502 191.675L138.454 191.175C141.136 191.302 143.829 191.567 146.502 191.675Z" fill="#F6E8D6"/>
<path d="M138.209 190.92V191.175C137.406 191.135 135.106 191.488 134.685 190.419C135.889 190.547 136.956 191.077 138.209 190.92Z" fill="#F6E8D6"/>
<path d="M188.746 192.175C188.159 192.616 187.2 192.871 186.739 192.175H188.746Z" fill="#F6E8D6"/>
<path d="M312.691 68.7628C310.195 64.8691 303.733 50.4614 301.501 48.3625C300.61 47.5288 299.132 47.98 298.554 46.5284C297.193 43.0859 302.147 41.6441 303.156 44.1648C303.821 45.8419 302.842 46.3715 303.067 47.519C303.371 49.0785 313.631 66.7032 315.207 69.008C315.481 69.4102 315.374 69.5965 315.961 70.2634C316.216 71.7935 314.894 71.8915 313.954 71.0186C313.856 70.9304 312.975 69.1944 312.701 68.753L312.691 68.7628Z" fill="#33312C"/>
<path d="M315.961 70.2732C316.049 70.3811 316.735 70.4007 316.94 70.5478C317.626 72.833 312.212 73.294 313.944 71.0284C314.894 71.9013 316.206 71.8032 315.951 70.2732H315.961Z" fill="#59534C"/>
<path d="M82.3949 99.4908C82.5809 99.481 84.1277 99.6085 84.3333 99.6673C88.1613 100.776 98.4998 107.092 102.925 109.279C108.261 111.907 113.92 113.938 118.854 117.37C105.803 112.28 92.8215 106.945 80.6424 99.991C81.269 99.8242 81.6312 99.53 82.4047 99.4908H82.3949Z" fill="#287F53"/>
<path d="M60.8269 170.676C57.7919 170.539 54.7374 170.156 52.2213 169.009C47.3849 168.567 42.6856 167.185 37.8883 166.488C36.8114 166.331 34.3736 167.204 33.3652 165.605C33.3554 164.909 37.203 165.792 37.6338 165.988C40.8254 162.133 43.8702 158.122 46.9345 154.15C47.2968 153.679 49.6366 149.148 50.7038 150.119L47.1891 154.395C48.5793 156.239 51.6436 158.407 53.4744 159.937C61.8941 149.991 53.1807 125.972 40.4044 123.412C29.0771 132.749 20.2463 144.587 12.649 157.19C8.84061 163.497 2.66295 172.343 5.96227 179.837C9.4574 184.387 11.9539 185.202 17.5246 186.133L39.9051 187.389C40.0715 187.389 40.238 187.389 40.4044 187.389C40.5121 187.389 40.6785 187.389 40.9037 187.389C41.0702 187.389 41.2366 187.389 41.403 187.389C41.5107 187.389 41.6869 187.389 41.9023 187.389C42.0688 187.389 42.2352 187.389 42.4016 187.389C42.5779 186.81 43.5863 186.506 43.41 187.389C43.5765 187.389 43.7429 187.389 43.9093 187.389C43.9681 186.633 46.5429 186.879 47.0422 186.879C47.473 186.879 49.3331 186.535 49.1961 187.389C49.3625 187.389 49.5289 187.389 49.6954 187.389C49.4996 186.467 50.4982 187.026 50.9485 187.389C51.115 187.389 51.2814 187.389 51.4478 187.389C53.8269 186.947 56.7052 186.996 59.1234 187.124C59.1919 187.124 59.3094 187.124 59.4465 187.134C60.5724 181.641 61.1402 176.149 60.8073 170.666L60.8269 170.676Z" fill="#A07C6B"/>
<path d="M48.1975 117.371C48.6282 117.076 49.1275 116.861 49.4506 116.615C54.6199 120.401 59.7989 122.912 66.3878 122.127C76.4913 120.921 84.1865 110.829 74.0927 103.394L75.6004 102.521C83.8928 108.985 82.2382 116.115 73.5934 121.039C64.1164 126.433 56.2255 123.638 48.1975 117.38V117.371Z" fill="#287F53"/>
<path d="M17.5246 186.133L39.9051 187.389C32.6799 187.124 24.6127 187.31 17.5246 186.133Z" fill="#8B5939"/>
<path d="M46.9443 154.15C47.3065 153.679 49.6464 149.148 50.7136 150.119L47.1989 154.395C47.1303 154.307 47.0226 154.238 46.9443 154.14V154.15Z" fill="#A07C6B"/>
<path d="M37.6436 165.988C37.6436 165.988 37.7415 166.4 37.8981 166.488C36.8212 166.331 34.3834 167.204 33.375 165.605C33.3652 164.909 37.2128 165.792 37.6436 165.988Z" fill="#A07C6B"/>
<path d="M51.4674 187.389C53.8464 186.947 56.7248 187.006 59.143 187.124C59.5052 187.143 61.1891 187.143 61.0227 187.889C57.8605 187.536 54.6492 187.516 51.4674 187.389Z" fill="#8B5939"/>
<path d="M43.9289 187.389C43.9877 186.634 46.5625 186.879 47.0618 186.879C47.4926 186.879 49.3527 186.536 49.2157 187.389C47.4632 187.33 45.6912 187.448 43.9387 187.389H43.9289Z" fill="#8B5939"/>
<path d="M50.9681 187.389C50.5471 187.369 50.1261 187.399 49.715 187.389C49.5191 186.467 50.5178 187.026 50.9681 187.389Z" fill="#8B5939"/>
<path d="M42.4212 187.389C42.5974 186.81 43.6058 186.506 43.4296 187.389C43.0967 187.379 42.7541 187.399 42.4212 187.389Z" fill="#8B5939"/>
<path d="M211.626 187.899C211.626 187.673 211.763 187.555 211.881 187.398C211.881 187.614 211.734 187.742 211.626 187.899Z" fill="#F6E8D6"/>
<path d="M329.834 142.057C329.55 145.45 329.11 143.195 327.132 144.146C326.564 144.421 322.149 149.766 324.802 148.481C325.301 148.236 326.701 146.225 327.445 145.588C327.925 145.176 329.648 144.823 329.834 144.577C331.028 145.392 330.842 146.873 330.842 148.108C329.247 146.647 325.017 150.443 325.301 151.492C325.771 153.277 328.972 148.432 330.842 148.609C333.388 148.844 331.831 152.218 331.861 152.767C331.9 153.356 332.556 154.15 332.526 154.846C332.419 157.946 326.77 166.714 325.086 170.186C323.5 173.452 322.344 177.542 320.778 180.602C314.806 192.283 308.716 185.329 299.66 184.633C297.497 184.231 294.941 184.289 292.729 184.378C292.249 184.397 291.72 184.123 291.858 184.878C291.603 184.878 291.358 184.878 291.104 184.878C290.937 184.878 290.771 184.878 290.604 184.878C288.832 184.907 287.099 185.084 285.327 185.133C284.828 185.143 284.319 185.123 283.82 185.133C283.487 185.133 283.144 185.123 282.811 185.133C282.723 185.133 282.645 185.133 282.557 185.133C281.206 185.172 279.894 185.349 278.533 185.388C278.367 185.388 278.2 185.388 278.034 185.388C277.779 185.388 277.534 185.388 277.28 185.388C277.192 185.388 277.113 185.388 277.025 185.388C274.01 185.476 270.985 185.8 267.969 185.888C267.803 185.888 267.636 185.888 267.47 185.888C267.382 185.888 267.304 185.888 267.215 185.888C267.049 185.888 266.883 185.888 266.716 185.888C265.12 185.937 263.525 186.104 261.938 186.143C261.273 186.163 260.597 186.133 259.931 186.143C259.599 186.143 259.266 186.143 258.923 186.143C253.656 185.466 248.35 186.065 243.082 186.143C242.994 186.143 242.916 186.143 242.828 186.143H242.074C241.986 186.143 241.908 186.143 241.82 186.143C241.653 186.143 241.487 186.143 241.32 186.143C240.077 186.163 238.804 186.143 237.551 186.143C237.296 186.143 237.052 186.143 236.797 186.143C235.162 185.672 233.214 185.888 231.52 185.888C230.933 185.888 230.345 185.888 229.758 185.888C229.337 185.888 228.916 185.888 228.505 185.888L219.703 186.143C219.204 186.163 218.695 186.114 218.196 186.143L207.299 186.634C206.486 188.507 208.063 187.801 209.394 187.909C209.521 188.517 209.061 188.929 208.895 189.419C208.67 190.076 207.789 191.989 207.133 192.185C207.093 192.087 206.986 191.94 206.878 191.93C207.064 184.554 206.545 176.992 207.387 169.646C207.573 168.048 209.727 157.485 210.383 156.837C210.735 156.494 211.881 156.592 212.41 156.416C212.429 156.357 212.459 156.308 212.478 156.249C214.563 156.249 216.218 156.347 217.187 156.416C228.377 157.22 233.664 159.162 244.845 160.447C245.011 160.466 245.187 160.427 245.344 160.447H246.597C247.429 160.535 248.281 160.604 249.113 160.702L253.538 161.937C258.022 162.34 262.516 162.742 266.971 163.222C267.137 163.242 267.313 163.203 267.47 163.222L276.771 164.232C282.664 164.84 295.881 167.655 300.825 165.537C308.256 162.359 315.364 145.176 320.895 140.056C324.175 137.025 328.777 137.094 329.814 142.067L329.834 142.057ZM331.087 152.394C329.981 151.472 326.29 154.474 326.564 155.278C326.985 156.484 328.943 154.013 329.589 153.532C330.421 152.924 331.351 153.532 331.077 152.394H331.087Z" fill="#A07D6C"/>
<path d="M329.834 144.578C329.648 144.823 327.925 145.176 327.445 145.588C326.701 146.225 325.301 148.236 324.802 148.481C322.158 149.766 326.564 144.421 327.132 144.146C329.11 143.195 329.55 145.45 329.834 142.057C329.981 142.753 330.304 143.95 329.834 144.578Z" fill="#A07D6C"/>
<path d="M330.842 148.098C330.842 148.265 330.842 148.432 330.842 148.599C328.972 148.422 325.771 153.267 325.301 151.482C325.027 150.423 329.247 146.627 330.842 148.098Z" fill="#A07D6C"/>
<path d="M258.933 186.133C259.266 186.133 259.608 186.133 259.941 186.133C260.088 186.889 259.559 186.624 259.07 186.634C253.832 186.81 248.575 186.604 243.347 186.379C248.526 186.045 253.744 186.222 258.933 186.124V186.133Z" fill="#A07D6C"/>
<path d="M228.505 185.878C228.926 185.878 229.347 185.878 229.758 185.878L210.647 187.134C211.734 185.819 216.238 186.231 218.186 186.123C218.685 186.094 219.194 186.143 219.694 186.123C222.64 185.996 225.538 185.908 228.495 185.868L228.505 185.878Z" fill="#A07D6C"/>
<path d="M331.087 152.394C331.361 153.532 330.421 152.924 329.599 153.532C328.943 154.013 326.995 156.484 326.574 155.278C326.29 154.474 329.991 151.472 331.097 152.394H331.087Z" fill="#A07D6C"/>
<path d="M208.895 189.409C209.061 188.919 209.521 188.507 209.394 187.899C208.053 187.791 206.477 188.497 207.299 186.624L218.196 186.133C216.238 186.241 211.744 185.819 210.657 187.144C210.579 187.232 210.471 187.3 210.403 187.399C210.295 187.555 210.138 187.683 210.148 187.899C209.786 188.428 209.404 189.017 208.895 189.409Z" fill="#A07D6C"/>
<path d="M258.933 186.133C253.744 186.232 248.526 186.045 243.347 186.388C243.259 186.388 243.18 186.388 243.092 186.388V186.133C248.35 186.055 253.666 185.457 258.933 186.133Z" fill="#A07D6C"/>
<path d="M277.035 185.378L267.979 185.878C270.994 185.78 274.01 185.457 277.035 185.378Z" fill="#A07D6C"/>
<path d="M298.907 184.623C299.053 185.388 298.525 185.104 298.035 185.123C295.823 185.211 293.277 185.27 291.104 184.868C291.358 184.868 291.603 184.868 291.858 184.868C294.188 184.839 296.557 184.495 298.897 184.613L298.907 184.623Z" fill="#A07D6C"/>
<path d="M228.505 185.878C225.558 185.908 222.65 185.996 219.703 186.133L228.505 185.878Z" fill="#A07D6C"/>
<path d="M299.66 184.623C299.416 184.603 299.151 184.633 298.907 184.623C296.567 184.505 294.197 184.849 291.867 184.878C291.72 184.113 292.249 184.397 292.739 184.378C294.951 184.289 297.497 184.231 299.67 184.633L299.66 184.623Z" fill="#A07D6C"/>
<path d="M282.567 185.123H282.821C283.154 185.113 283.497 185.123 283.83 185.123C283.976 185.878 283.448 185.613 282.958 185.623C281.588 185.672 279.845 185.8 278.543 185.368C279.894 185.329 281.206 185.162 282.567 185.113V185.123Z" fill="#A07D6C"/>
<path d="M290.614 184.878C290.761 185.633 290.232 185.368 289.743 185.378C288.372 185.427 286.63 185.555 285.327 185.123C287.099 185.074 288.832 184.898 290.604 184.868L290.614 184.878Z" fill="#A07D6C"/>
<path d="M266.726 185.878C266.148 186.898 262.957 186.369 261.948 186.133C263.534 186.094 265.12 185.927 266.726 185.878Z" fill="#A07D6C"/>
<path d="M236.807 186.133C235.084 186.133 233.214 186.369 231.53 185.878C233.233 185.878 235.182 185.662 236.807 186.133Z" fill="#A07D6C"/>
<path d="M241.33 186.133H237.561C238.814 186.133 240.087 186.153 241.33 186.133Z" fill="#A07D6C"/>
<path d="M242.838 186.133C242.926 186.133 243.004 186.133 243.092 186.133V186.388C242.857 186.378 241.643 187.251 241.839 186.133C241.927 186.133 242.006 186.133 242.094 186.133C242.348 186.133 242.593 186.133 242.847 186.133H242.838Z" fill="#A07D6C"/>
<path d="M202.326 91.4287H205.85C228.309 93.6159 236.229 142.39 243.562 159.181L220.428 156.16V155.906C220.457 155.67 220.271 155.562 220.173 155.405C214.73 146.441 211.196 135.809 204.959 127.198C204.049 128.463 202.57 130.17 200.358 131.641C199.232 132.386 198.145 132.916 197.205 133.289C200.593 139.32 201.552 140.262 201.856 140.174C202.257 140.066 202.335 139.821 202.335 139.821C202.375 139.732 202.365 139.624 202.286 139.458C201.679 138.232 200.142 136.702 199.369 135.329C195.913 129.199 193.015 121.961 190.333 115.419C189.138 112.496 185.956 101.472 183.979 100.246C188.698 96.2051 196.001 91.8995 202.335 91.4287H202.326Z" fill="#A07D6C"/>
<path d="M243.552 159.181C243.621 159.338 243.474 159.878 243.552 159.936C243.738 160.074 245.853 159.779 246.323 160.446C236.905 159.368 227.947 158.455 218.666 156.415L220.428 156.16L243.562 159.181H243.552Z" fill="#A07D6C"/>
<path d="M220.428 155.905L220.173 155.405C220.271 155.562 220.447 155.68 220.428 155.905Z" fill="#A07D6C"/>
<path d="M148.264 128.198C152.679 124.609 180.787 99.7948 183.313 99.7163C183.538 99.7163 183.43 100.226 183.46 100.236C183.215 102.492 183.92 104.267 184.654 106.729C188.032 118.077 194.307 131.386 201.317 140.792C197.93 143.989 194.366 147.637 190.509 150.364L167.11 147.196C166.855 147.392 166.758 148.157 166.885 148.334C167.58 149.256 186.935 150.531 189.745 150.864C194.327 151.413 198.987 152.051 203.569 152.63C203.647 152.639 203.735 152.62 203.824 152.63L210.608 153.885C206.672 165.605 205.635 178.052 206.085 190.409C177.693 189.625 149.204 191.635 121.106 186.879C121.889 185.26 122.525 184.015 122.369 181.965C119.196 183.005 122.574 188.762 117.336 187.634C110.689 186.359 104.129 184.603 97.4719 183.348C87.8382 179.15 78.1948 174.952 68.5612 170.755C66.7304 169.578 64.8311 168.45 63.0297 167.224C60.122 165.252 57.4689 163.124 54.7374 160.927C61.4045 153.856 58.4968 142.155 54.8646 134.22C52.1723 128.345 48.4716 123.549 41.9121 121.882C44.0856 120.156 45.9555 118.91 48.1975 117.351C56.2255 123.608 64.1164 126.403 73.5934 121.009C82.2382 116.086 83.8928 108.955 75.6004 102.492C75.5123 102.423 75.4438 102.315 75.3459 102.237C77.0788 101.462 78.7725 100.452 80.6228 99.9713C92.8117 106.925 105.784 112.261 118.834 117.351C126.441 120.313 134.019 122.941 141.714 125.658C143.829 126.403 145.983 127.188 147.999 128.179C147.03 128.963 146.218 129.787 145.356 130.689C144.651 132.779 149.595 128.542 148.254 128.179L148.264 128.198ZM92.704 126.443V122.539C92.704 117.321 82.5123 118.92 89.1795 126.188C82.1207 119.528 77.0102 129.895 87.1725 129.719C78.7039 136.751 87.662 139.958 92.1949 132.239C91.4411 141.586 100.585 137.937 95.974 130.474C103.738 137.741 106.733 126.05 96.2285 128.453C106.312 123.961 95.2005 117.616 92.704 126.443Z" fill="#D84A2E"/>
<path d="M183.969 100.246C185.946 101.472 189.119 112.496 190.323 115.419C193.005 121.96 195.903 129.199 199.359 135.329C200.133 136.702 201.67 138.232 202.277 139.458C202.698 140.291 201.092 139.879 202.326 140.537C202.081 140.772 201.366 140.742 201.317 140.792C194.317 131.386 188.032 118.077 184.654 106.729C183.92 104.277 183.225 102.492 183.46 100.236C183.597 100.285 183.881 100.187 183.959 100.236L183.969 100.246Z" fill="#287F53"/>
<path d="M148.264 128.198C149.605 128.571 144.661 132.798 145.366 130.709C146.227 129.807 147.04 128.983 148.009 128.198C148.058 128.159 148.215 128.238 148.264 128.198Z" fill="#B83D27"/>
<path d="M213.937 156.161C213.829 156.308 213.34 156.21 211.871 155.405C212.233 155.248 214.358 155.807 213.878 156.416C213.349 156.592 212.204 156.504 211.852 156.837C209.316 159.299 208.856 169.646 208.856 169.646C208.983 174.089 209.561 180.376 211.617 187.899C210.745 189.331 209.874 190.763 209.012 192.195C205.86 192.185 202.707 192.175 199.555 192.175H196.03C193.602 192.204 191.165 192.175 188.737 192.175H179.681C180.131 192.136 181.139 191.861 181.57 191.665L155.802 191.92C154.04 191.881 152.258 191.724 150.525 191.665L155.048 191.42L138.209 190.91C136.966 191.057 135.899 190.537 134.685 190.41C129.868 189.909 125.11 188.997 120.352 188.144C121.341 188.124 120.753 187.604 121.106 186.889C149.204 191.645 177.693 189.635 206.085 190.419C205.635 178.061 206.672 165.615 210.608 153.895V153.64C210.863 153.64 211.196 153.689 211.568 153.807C213.124 154.307 214.152 155.876 213.927 156.161H213.937ZM183.215 191.675C182.843 191.724 182.138 191.459 182.216 191.92C182.588 191.871 183.293 192.136 183.215 191.675Z" fill="#287F53"/>
<path d="M190.509 150.364C190.401 150.442 190.195 150.472 190.009 150.619C189.912 150.688 189.843 150.786 189.755 150.874C186.945 150.54 167.59 149.256 166.895 148.344C166.758 148.167 166.865 147.392 167.12 147.206L190.519 150.374L190.509 150.364Z" fill="#B83D27"/>
<path d="M117.336 187.644C122.564 188.781 119.187 183.014 122.368 181.975C122.525 184.015 121.899 185.27 121.106 186.888C120.753 187.614 121.341 188.124 120.352 188.144C119.353 187.967 118.325 187.83 117.336 187.644Z" fill="#D84A2E"/>
<path d="M203.579 152.63C198.997 152.051 194.327 151.413 189.755 150.864C189.843 150.786 189.912 150.688 190.009 150.609L203.589 152.62L203.579 152.63Z" fill="#D3361F"/>
<path d="M208.356 191.93C208.454 191.939 208.562 192.077 208.611 192.185C207.358 192.557 201.425 192.155 199.555 192.185C202.228 191.92 205.703 191.665 208.356 191.93Z" fill="#287F53"/>
<path d="M138.209 190.919L155.048 191.429L150.525 191.675C149.439 191.645 148.342 191.714 147.255 191.675C147.001 191.675 146.756 191.684 146.502 191.675C143.829 191.557 141.146 191.302 138.454 191.174C138.366 191.174 138.287 191.174 138.199 191.174V190.919H138.209Z" fill="#287F53"/>
<path d="M198.801 192.175C197.881 192.185 196.951 192.165 196.04 192.175H198.801Z" fill="#1A6532"/>
<path d="M155.812 191.93L181.58 191.675C181.159 191.871 180.141 192.136 179.69 192.185C179.201 192.234 178.682 192.165 178.183 192.185H177.683C176.851 192.194 176.009 192.165 175.167 192.185H174.668C174.335 192.185 174.002 192.185 173.66 192.185C171.369 191.724 168.941 191.93 166.62 191.93C166.532 191.93 166.454 191.93 166.366 191.93C166.111 191.93 165.867 191.93 165.612 191.93C162.352 191.93 159.062 191.998 155.802 191.93H155.812Z" fill="#287F53"/>
<path d="M183.215 191.675C183.293 192.136 182.588 191.871 182.216 191.92C182.138 191.459 182.843 191.724 183.215 191.675Z" fill="#287F53"/>
<path d="M173.66 192.175C171.339 192.175 168.902 192.391 166.621 191.92C168.941 191.92 171.379 191.704 173.66 192.175Z" fill="#397848"/>
<path d="M312.691 68.7629C312.975 69.2043 313.856 70.9403 313.944 71.0285C312.202 73.2941 317.616 72.8332 316.94 70.5479C316.735 70.4008 316.049 70.3714 315.961 70.2733C315.374 69.6064 315.481 69.42 315.207 69.0179L336.579 70.0281V70.5283L325.017 76.0698L233.997 71.0285L233.743 108.053C233.723 107.553 233.743 107.043 233.743 106.543C233.537 94.7145 233.899 82.8568 233.743 71.0285C234.35 70.4793 247.488 65.6146 248.692 65.4773L312.691 68.7629Z" fill="#888077"/>
<path d="M337.079 70.2733C336.638 82.4938 337.666 95.1264 337.079 107.298C337.02 108.416 337.167 109.544 337.04 110.672C336.883 111.133 336.384 111.015 336.325 111.084C336.785 97.5881 336.579 84.0435 336.579 70.5283V70.0281L337.079 70.2831V70.2733Z" fill="#4B4944"/>
<path d="M337.333 107.043C337.275 107.053 337.177 107.249 337.079 107.298C337.666 95.1265 336.638 82.494 337.079 70.2734L337.333 107.043Z" fill="#FDFAF5"/>
<path d="M325.017 76.0698V117.125L233.752 111.584C233.723 110.417 233.791 109.23 233.752 108.053L234.007 71.0286L325.027 76.0698H325.017ZM263.916 75.8148C262.663 80.5226 264.445 81.4739 268.694 80.4735V76.4425C268.694 76.4425 268.106 75.8148 268.067 75.8148H263.916ZM272.375 76.3542C271.729 76.6779 271.797 80.2774 272.189 80.7481C272.532 81.1601 275.929 81.523 276.643 81.1208C277.192 80.6697 277.143 77.4723 276.761 76.9133C276.32 76.266 272.913 76.0698 272.375 76.3444V76.3542ZM285.034 81.4837V77.7077C285.034 76.4229 280.403 76.6877 280.119 77.0604C279.179 81.4445 280.941 82.7293 285.034 81.4837ZM288.725 77.3742C287.775 77.7666 288.137 81.3955 288.421 81.8662C288.705 82.337 292.455 82.6214 292.719 82.3959C294.462 79.2083 292.063 75.9815 288.725 77.3742ZM240.38 103.934C252.696 115.37 267.852 97.1861 258.091 83.5434C246.029 66.6739 225.529 90.1539 240.38 103.934ZM306.602 81.4249C291.388 83.2786 292.905 111.643 309.539 111.074C327.171 110.466 324.606 79.2279 306.602 81.4249ZM263.417 85.1323C263.348 85.348 263.446 85.8384 263.417 86.1425V87.6529C263.417 87.8196 263.417 87.9863 263.417 88.1531V106.288C263.006 106.827 262.986 108.936 263.417 109.309C264.533 110.289 289.625 110.858 293.081 111.319C293.15 108.455 293.904 87.5548 293.081 86.6329C293.052 86.6034 292.729 86.6427 292.582 86.6329C292.494 86.6329 292.416 86.6329 292.327 86.6329C292.034 86.319 291.691 86.3975 291.319 86.3778C282.018 85.858 272.727 84.8969 263.407 84.6124V85.1126L263.417 85.1323Z" fill="#A39C94"/>
<path d="M336.579 70.5283C336.579 84.0337 336.785 97.5784 336.325 111.084C335.551 111.908 328.17 115.792 326.77 116.37L325.007 116.625V76.0697L336.57 70.5283H336.579Z" fill="#6D675F"/>
<path d="M326.77 116.36C326.182 116.606 325.663 117.027 325.007 117.116V116.615L326.77 116.36Z" fill="#59534C"/>
<path d="M285.034 81.4837C280.941 82.7292 279.179 81.4444 280.119 77.0603C280.413 76.6778 285.034 76.4228 285.034 77.7076V81.4837Z" fill="#4B4944"/>
<path d="M263.916 75.8147H268.067C268.067 75.8147 268.694 76.4032 268.694 76.4424V80.4734C264.445 81.4738 262.663 80.5225 263.916 75.8147Z" fill="#4A4843"/>
<path d="M272.375 76.3543C272.913 76.0797 276.32 76.2758 276.761 76.9231C277.143 77.4822 277.192 80.6697 276.643 81.1307C275.929 81.523 272.532 81.1601 272.189 80.758C271.797 80.2872 271.739 76.6779 272.375 76.3641V76.3543Z" fill="#4A4843"/>
<path d="M288.725 77.3741C292.063 75.9814 294.462 79.218 292.719 82.3957C292.455 82.6213 288.725 82.3663 288.421 81.8661C288.118 81.3659 287.775 77.7664 288.725 77.3741Z" fill="#4A4843"/>
<path d="M293.081 111.329V86.6426C293.904 87.5547 293.15 108.465 293.081 111.329Z" fill="#BDB6AC"/>
<path d="M263.417 85.1323V84.6321C263.387 84.789 263.456 85.0048 263.417 85.1323Z" fill="#BDB6AC"/>
<path d="M291.329 86.3876C291.162 87.4763 292.259 86.6328 292.337 86.6426C292.416 86.6426 292.504 86.6426 292.592 86.6426L293.091 103.522V111.329C289.635 110.868 264.543 110.299 263.427 109.318V104.032C263.427 98.7553 263.28 93.4297 263.427 88.1629C263.427 87.9961 263.427 87.8294 263.427 87.6627C263.446 87.1625 263.368 86.6426 263.427 86.1522C263.456 85.8482 263.358 85.3676 263.427 85.142C263.466 85.0145 263.397 84.789 263.427 84.6418C272.747 84.9263 282.038 85.8874 291.339 86.4073L291.329 86.3876ZM289.058 91.1739L267.94 89.6635V102.002L289.058 103.512V91.1739ZM265.933 104.748L265.776 106.857L290.555 108.661L290.712 106.553L265.933 104.748Z" fill="#4A4843"/>
<path d="M293.081 86.6427V103.522L292.582 86.6427C292.729 86.6526 293.052 86.6133 293.081 86.6427Z" fill="#33312C"/>
<path d="M263.417 104.022V88.1531C263.27 93.4199 263.417 98.7456 263.417 104.022Z" fill="#BDB6AC"/>
<path d="M263.417 109.309C262.986 108.936 263.006 106.827 263.417 106.288V109.309Z" fill="#BDB6AC"/>
<path d="M292.327 86.6427C292.249 86.6427 291.153 87.4764 291.319 86.3877C291.691 86.4073 292.034 86.3288 292.327 86.6427Z" fill="#33312C"/>
<path d="M263.417 87.6527V86.1423C263.358 86.6327 263.436 87.1525 263.417 87.6527Z" fill="#BDB6AC"/>
<path d="M289.058 91.174V103.512L267.94 102.002V89.6636L289.058 91.174ZM273.902 95.2737C272.101 93.4298 269.888 96.2054 271.533 97.9022C273.178 99.5989 275.469 96.8822 273.902 95.2737ZM286.111 96.9802C286.111 95.9798 285.308 95.1756 284.309 95.1756C283.311 95.1756 282.508 95.9798 282.508 96.9802C282.508 97.9806 283.311 98.7849 284.309 98.7849C285.308 98.7849 286.111 97.9806 286.111 96.9802Z" fill="#88847C"/>
<path d="M265.937 104.751L265.784 106.864L290.556 108.665L290.709 106.552L265.937 104.751Z" fill="#88847C"/>
<path d="M284.309 98.7848C285.304 98.7848 286.111 97.9769 286.111 96.9802C286.111 95.9835 285.304 95.1755 284.309 95.1755C283.314 95.1755 282.508 95.9835 282.508 96.9802C282.508 97.9769 283.314 98.7848 284.309 98.7848Z" fill="#2C2925"/>
<path d="M273.902 95.2736C275.469 96.8821 273.168 99.5891 271.533 97.9021C269.898 96.2152 272.101 93.4297 273.902 95.2736Z" fill="#2C2925"/>
<path d="M306.602 81.4249C324.606 79.2279 327.171 110.466 309.539 111.074C292.905 111.643 291.388 83.2884 306.602 81.4249ZM305.29 99.6086C309.549 104.493 316.196 98.5003 312.309 92.4489C308.129 85.9365 300.6 94.2339 305.29 99.6086Z" fill="#4B4944"/>
<path d="M305.29 99.6087C300.6 94.234 308.129 85.9365 312.309 92.449C316.196 98.5004 309.549 104.503 305.29 99.6087Z" fill="#33312C"/>
<path d="M240.38 103.934C225.538 90.1538 246.039 66.6738 258.091 83.5433C267.852 97.186 252.696 115.37 240.38 103.934ZM247.508 87.4664C240.85 87.8784 242.485 98.7749 249.172 97.9608C254.517 97.3135 253.832 87.0741 247.508 87.4664Z" fill="#4B4944"/>
<path d="M247.508 87.4663C253.832 87.074 254.517 97.3134 249.172 97.9607C242.485 98.7748 240.85 87.8782 247.508 87.4663Z" fill="#33312C"/>
<path d="M145.511 40.6372C155.396 32.9446 157.185 18.6806 149.506 8.77762C141.827 -1.12533 127.589 -2.91717 117.704 4.77542C107.818 12.468 106.03 26.732 113.708 36.635C121.387 46.5379 135.626 48.3298 145.511 40.6372Z" fill="#EF783E"/>
<path d="M129.711 0.706299C132.169 5.14925 133.588 9.09201 134.43 11.9363C135.164 14.4177 135.938 17.0756 136.202 20.6849C136.506 24.9023 135.948 28.0898 135.497 30.6202C134.871 34.0726 133.598 39.0942 130.778 44.8122" stroke="#030303" stroke-width="0.95" stroke-miterlimit="10"/>
<path d="M113.655 10.406C116.778 10.2197 119.206 10.6022 120.861 10.9945C123.259 11.5732 124.16 12.191 126.882 12.7697C128.311 13.0738 130.308 13.4955 132.785 13.3582C134.038 13.2895 139.854 12.8482 144.357 8.39541C145.239 7.52251 145.855 6.70846 146.247 6.14941" stroke="#030303" stroke-width="0.95" stroke-miterlimit="10"/>
<path d="M109.524 24.8336C116.465 22.9407 125.257 21.2341 135.497 20.8124C142.37 20.5279 148.567 20.8908 153.913 21.5185" stroke="#030303" stroke-width="0.95" stroke-miterlimit="10"/>
<path d="M120.968 41.6245C125.208 39.81 127.41 37.4954 128.644 35.7104C130.426 33.1211 131.17 30.1787 134.195 28.8547C135.35 28.3447 136.388 28.276 136.907 28.2662C140.265 28.2073 142.595 30.6201 143.515 31.5812C146.041 34.1901 146.648 37.2698 146.825 38.5546" stroke="#030303" stroke-width="0.95" stroke-miterlimit="10"/>
<path d="M135.321 12.4265C137.563 11.8478 140.892 10.612 143.878 7.807C144.612 7.12046 145.239 6.41429 145.767 5.73755" stroke="#E94C3F" stroke-width="0.24" stroke-miterlimit="10"/>
<path d="M113.538 9.81764C116.661 9.63129 119.089 10.0138 120.743 10.4061C123.142 10.9848 124.043 11.6027 126.764 12.1813C128.272 12.4952 130.23 12.8483 132.668 12.7698C133.108 12.76 133.471 12.7306 133.735 12.711" stroke="#E94C3F" stroke-width="0.24" stroke-miterlimit="10"/>
<path d="M135.908 13.6624C138.013 13.1622 141.489 12.0049 144.583 9.0625C145.503 8.17979 146.237 7.28728 146.834 6.45361" stroke="#E94C3F" stroke-width="0.24" stroke-miterlimit="10"/>
<path d="M113.596 11.0535C116.896 10.828 119.422 11.2497 121.086 11.6518C123.279 12.1913 123.798 12.662 127.107 13.427C128.654 13.7899 130.583 14.1528 133.011 14.0155C133.549 13.9861 133.999 13.9371 134.313 13.8978" stroke="#E94C3F" stroke-width="0.24" stroke-miterlimit="10"/>
<path d="M137.259 20.0474C137.592 20.0277 137.925 20.0081 138.258 19.9885C143.721 19.7041 148.939 20.0376 153.893 20.8222" stroke="#E94C3F" stroke-width="0.24" stroke-miterlimit="10"/>
<path d="M109.347 24.1862C112.696 23.2839 116.367 22.4502 120.322 21.7637C125.727 20.8319 130.749 20.3317 135.252 20.116" stroke="#E94C3F" stroke-width="0.24" stroke-miterlimit="10"/>
<path d="M137.083 21.7048C143.369 21.5282 149.067 21.8813 154.03 22.4698" stroke="#E94C3F" stroke-width="0.24" stroke-miterlimit="10"/>
<path d="M109.641 25.7849C113.636 24.6668 118.208 23.637 123.279 22.8916C127.743 22.2344 131.875 21.901 135.615 21.7637" stroke="#E94C3F" stroke-width="0.24" stroke-miterlimit="10"/>
<path d="M136.848 27.6091C137.974 27.6974 140.657 28.0505 143.163 30.0317C147.04 33.0917 147.471 37.6229 147.529 38.4272" stroke="#E94C3F" stroke-width="0.24" stroke-miterlimit="10"/>
<path d="M120.792 40.7418C125.511 38.9175 127.518 36.5636 128.468 34.7099C129.212 33.2682 129.672 31.4145 131.542 29.7472C132.785 28.6389 134.107 28.0896 135.027 27.7954" stroke="#E94C3F" stroke-width="0.24" stroke-miterlimit="10"/>
<path d="M136.79 29.0901C137.465 29.0705 138.601 29.1196 139.864 29.6198C141.166 30.1396 141.978 30.885 142.576 31.4538C142.967 31.8167 143.985 32.8367 144.818 34.4648C145.63 36.0733 145.904 37.5543 146.002 38.5449" stroke="#E94C3F" stroke-width="0.24" stroke-miterlimit="10"/>
<path d="M121.233 42.4877C125.785 40.7223 127.861 38.4175 128.908 36.5736C129.887 34.8376 131.043 31.6206 134.313 29.865C134.508 29.7571 134.675 29.6787 134.783 29.6296" stroke="#E94C3F" stroke-width="0.24" stroke-miterlimit="10"/>
<path d="M130.416 0.470703C132.942 4.92347 134.411 8.91526 135.292 11.838C136.006 14.2311 136.799 16.9283 137.064 20.5866C137.367 24.8138 136.809 28.0111 136.359 30.5219C135.713 34.1018 134.381 39.2804 131.424 45.1749" stroke="#E94C3F" stroke-width="0.24" stroke-miterlimit="10"/>
<path d="M128.996 0.823975C131.454 5.26693 132.873 9.20968 133.715 12.054C134.45 14.5353 135.223 17.1933 135.487 20.8026C135.801 25.069 135.223 28.3056 134.783 30.7379C134.166 34.1118 132.903 38.9961 130.122 44.5179" stroke="#E94C3F" stroke-width="0.24" stroke-miterlimit="10"/>
<path d="M22.7624 108.857C27.8504 108.857 31.975 104.725 31.975 99.6281C31.975 94.531 27.8504 90.3989 22.7624 90.3989C17.6744 90.3989 13.5497 94.531 13.5497 99.6281C13.5497 104.725 17.6744 108.857 22.7624 108.857Z" fill="#FDCB59"/>
<path d="M36.7722 108.926C41.8602 108.926 45.9849 104.794 45.9849 99.6967C45.9849 94.5996 41.8602 90.4675 36.7722 90.4675C31.6842 90.4675 27.5596 94.5996 27.5596 99.6967C27.5596 104.794 31.6842 108.926 36.7722 108.926Z" fill="#FDCB59"/>
<path d="M46.3471 102.227C46.4548 102.335 43.0967 108.975 37.0855 109.171C30.8785 109.367 27.0505 102.551 27.1973 102.394C27.3344 102.237 31.6715 108.475 37.4086 108.181C42.7541 107.916 46.259 102.129 46.3569 102.227H46.3471Z" fill="#F8A91E"/>
<path d="M72.5165 67.7919C74.6018 60.9166 81.4746 54.4925 86.497 56.0617C91.7348 57.6996 93.5655 67.6056 90.4327 74.6672C87.9655 80.2381 81.6312 85.7599 76.6578 83.8474C71.6549 81.925 70.7738 73.5491 72.5165 67.8017V67.7919Z" fill="#FDCB59"/>
<path d="M91.5488 71.5678C91.7348 71.6756 88.1711 82.0818 81.0928 83.2391C79.1543 83.5529 76.7752 83.2097 76.7557 82.9449C76.7361 82.6702 79.262 82.5918 81.4354 81.9346C88.4942 79.7769 91.3823 71.4697 91.539 71.5678H91.5488Z" fill="#F8A91E"/>
<path d="M64.4983 61.7893C63.4213 54.6787 66.8675 45.9203 72.0661 45.165C77.4997 44.3804 83.413 52.5307 83.6186 60.2495C83.7851 66.35 80.4466 74.0492 75.1305 74.4709C69.785 74.8926 65.3892 67.7133 64.4885 61.7795L64.4983 61.7893Z" fill="#FDCB59"/>
<path d="M19.8449 90.34C19.9134 91.6248 19.9623 92.5468 19.8057 93.7923C19.1987 98.5197 15.9875 104.689 11.6504 104.983C8.51753 105.199 6.00143 102.266 5.27695 101.423C0.274127 95.597 -0.166435 84.1316 5.835 79.9241C9.05599 77.6682 14.519 77.4721 16.8393 79.9339C19.1791 82.4152 19.6393 86.3384 19.8547 90.3498L19.8449 90.34Z" fill="#FDCB59"/>
<path d="M79.5655 66.3404C84.1179 79.1102 73.4857 99.0986 59.6129 104.061C45.7401 109.024 22.8603 99.893 18.3078 87.1232C13.7553 74.3534 29.2533 62.7703 43.1261 57.8075C56.9989 52.8448 75.013 53.5706 79.5655 66.3404Z" fill="#A07D6C"/>
<path d="M12.4238 76.3149C14.1567 81.1698 22.1358 82.7489 30.2617 79.8458C38.3778 76.9426 40.8645 66.2129 39.1317 61.358C37.3988 56.5031 32.1218 59.3572 23.9959 62.2603C15.87 65.1634 10.7007 71.4502 12.4238 76.3051V76.3149Z" fill="#FDCB59"/>
<path d="M21.2742 72.0386C21.2938 78.09 18.1316 86.2306 12.884 86.9465C7.38185 87.6919 1.62517 79.983 0.636357 73.0096C-0.499314 64.9868 4.33708 55.4045 9.90774 55.0808C15.5469 54.7474 21.2546 63.9471 21.2742 72.0386Z" fill="#FDCB59"/>
<path d="M43.7219 59.5811C45.9571 51.6467 41.7704 43.5187 34.3707 41.4266C26.9709 39.3345 19.1603 44.0706 16.9251 52.005C14.6899 59.9393 18.8766 68.0673 26.2763 70.1594C33.676 72.2515 41.4867 67.5154 43.7219 59.5811Z" fill="#FDCB59"/>
<path d="M54.7178 61.1618C53.0241 60.8284 36.8603 57.5133 36.5373 49.8043C36.2827 43.7529 45.8576 36.7795 54.8157 37.7995C62.9612 38.7215 70.1081 46.2049 69.8437 53.0311C69.8241 53.6 69.6283 57.2877 66.8773 59.7397C63.4605 62.7899 58.3989 61.8778 54.7276 61.1618H54.7178Z" fill="#FDCB59"/>
<path d="M68.0423 73.8923C69.5207 78.0312 75.6298 79.6397 81.6997 77.4624C87.7697 75.2851 88.5236 69.8515 87.0452 65.7126C85.5669 61.5737 82.4144 60.2987 76.3543 62.4662C70.2941 64.6337 66.564 69.7534 68.0423 73.8923Z" fill="#A07D6C"/>
<path d="M32.4939 87.692C33.9722 91.8309 30.2519 96.9506 24.1819 99.1181C18.112 101.286 14.0882 97.5586 12.6099 93.4099C11.1315 89.2612 12.7665 86.2796 18.8267 84.1121C24.8966 81.9446 31.0058 83.5432 32.4841 87.6822L32.4939 87.692Z" fill="#A07D6C"/>
<path d="M19.8057 93.7925C18.3665 94.9008 16.6337 94.3417 16.1637 93.3806C15.7623 92.5665 16.1344 91.1444 17.2896 90.3303" stroke="#785B4E" stroke-width="0.5" stroke-miterlimit="10"/>
<path d="M17.3581 92.6252C19.1497 92.3702 20.5302 93.6942 20.5791 94.7535" stroke="#785B4E" stroke-width="0.5" stroke-miterlimit="10"/>
<path d="M82.3067 70.685C84.1277 70.636 85.1068 69.0962 84.8718 68.0565C84.6662 67.164 83.4816 66.3009 82.0718 66.4088" stroke="#785B4E" stroke-width="0.5" stroke-miterlimit="10"/>
<path d="M84.0494 68.1841C82.5026 69.1158 82.2774 71.0284 82.904 71.8718" stroke="#785B4E" stroke-width="0.5" stroke-miterlimit="10"/>
<path d="M39.4254 67.5271C39.6212 67.6251 38.3582 74.4416 33.14 78.3745C25.0435 84.475 12.8742 79.5613 12.9036 79.3455C12.9329 79.1297 24.5638 83.3079 32.6407 77.3938C37.7806 73.6373 39.2394 67.4388 39.4254 67.5271Z" fill="#F8A91E"/>
<path d="M37.9764 66.0166C32.7387 61.1127 28.519 53.4037 30.4771 51.0106C32.5135 48.5096 40.7177 52.4818 45.9555 58.1409C50.0968 62.6133 53.6507 69.5082 51.4283 71.6954C49.1961 73.8923 42.3429 70.1163 37.9764 66.0264V66.0166Z" fill="#FDCB59"/>
<path d="M52.0646 65.026C46.445 63.0546 40.796 58.2978 41.6282 55.4829C42.4995 52.5504 50.2045 52.5111 56.059 55.12C60.68 57.1797 65.5654 61.5246 64.4493 64.2708C63.3332 67.0366 56.7542 66.6737 52.0646 65.026Z" fill="#FDCB59"/>
<path d="M28.1274 107.121C28.147 107.209 24.1526 109.701 20.0505 108.435C14.8518 106.837 13.0798 100.315 13.1581 100.275C13.2266 100.236 15.1749 106.425 20.2071 108.024C24.1917 109.289 28.1078 107.033 28.1274 107.121Z" fill="#F8A91E"/>
<path d="M19.4533 66.5071C19.2379 66.5856 15.1847 61.0441 16.0952 54.4239C17.1036 47.166 23.5358 42.7329 23.7218 42.88C23.898 43.0271 18.1512 47.4309 17.1428 54.7475C16.2518 61.2697 19.6491 66.4286 19.4435 66.5071H19.4533Z" fill="#F8A91E"/>
<path d="M6.77485 83.9551C6.58883 84.0924 1.34125 79.9143 0.215374 73.2743C-0.822394 67.1739 2.11468 61.9463 2.34965 62.0051C2.57483 62.064 0.166423 67.0366 1.31188 73.294C2.52588 79.9045 6.95107 83.8276 6.76506 83.9551H6.77485Z" fill="#F8A91E"/>
<path d="M52.1136 69.7829C52.2408 69.8515 52.0157 71.2736 51.1639 71.9798C49.0198 73.7452 43.4492 70.5282 40.7471 68.5765C37.3596 66.1245 35.2841 63.3587 35.3233 63.3195C35.3526 63.2901 36.7526 64.928 39.2198 66.919C42.0394 69.1944 44.0953 70.1948 45.231 70.695C47.2478 71.5679 49.1373 72.3525 50.5569 71.5188C51.5751 70.9206 51.9863 69.7142 52.1136 69.7829Z" fill="#F8A91E"/>
<path d="M63.1276 65.6341C63.1374 65.7518 59.9556 66.8306 56.0688 66.2912C51.7415 65.6831 48.7163 63.3488 48.7653 63.241C48.8142 63.1429 51.5555 65.0456 55.8632 65.7321C60.0045 66.3893 63.108 65.5262 63.1178 65.6341H63.1276Z" fill="#F8A91E"/>
<path d="M48.5401 38.2505C48.5401 38.0249 55.0996 36.0045 61.0325 39.0449C67.543 42.3796 69.6088 49.9317 69.4032 50.0493C69.2074 50.167 66.9458 43.2819 60.3766 39.9277C54.522 36.9461 48.5401 38.4565 48.5401 38.2407V38.2505Z" fill="#F8A91E"/>
<path d="M42.2809 86.4115C46.0898 85.049 48.7103 82.6336 48.1339 81.0165C47.5576 79.3994 44.0026 79.193 40.1937 80.5555C36.3847 81.918 33.7643 84.3334 34.3406 85.9505C34.917 87.5676 38.472 87.774 42.2809 86.4115Z" fill="#FAEED8"/>
<path d="M63.2425 78.9044C67.0515 77.542 69.672 75.1265 69.0956 73.5094C68.5192 71.8923 64.9642 71.6859 61.1553 73.0484C57.3464 74.4109 54.7259 76.8263 55.3023 78.4434C55.8786 80.0605 59.4336 80.2669 63.2425 78.9044Z" fill="#FAEED8"/>
<path d="M34.3247 85.8872C33.747 84.2689 36.3708 81.8562 40.1792 80.4929C43.9877 79.1296 47.5415 79.3356 48.1191 80.9538" fill="#A08981"/>
<path d="M55.2856 78.394C54.708 76.7757 57.3318 74.363 61.1402 72.9997C64.9486 71.6364 68.5025 71.8424 69.0801 73.4607" fill="#A08981"/>
<path d="M43.3611 82.5723C43.7918 83.7786 43.1653 85.1027 41.9611 85.5244C40.7569 85.9462 39.4352 85.3283 39.0142 84.1219" fill="#2D2A23"/>
<path d="M64.6353 75.0693C65.0661 76.2757 64.4395 77.5998 63.2353 78.0215C62.0311 78.4432 60.7094 77.8253 60.2885 76.619" fill="#2D2A23"/>
<path d="M74.2004 64.928C78.1746 64.928 81.3963 61.7006 81.3963 57.7193C81.3963 53.738 78.1746 50.5105 74.2004 50.5105C70.2263 50.5105 67.0046 53.738 67.0046 57.7193C67.0046 61.7006 70.2263 64.928 74.2004 64.928Z" fill="#FDCB59"/>
<path d="M24.1036 97.9412C24.5254 97.9412 24.8673 97.5986 24.8673 97.1761C24.8673 96.7536 24.5254 96.4111 24.1036 96.4111C23.6819 96.4111 23.34 96.7536 23.34 97.1761C23.34 97.5986 23.6819 97.9412 24.1036 97.9412Z" stroke="#BDBCBD" stroke-width="0.5" stroke-miterlimit="10"/>
<path d="M63.8325 89.4376C64.2339 89.7319 62.2269 93.3706 58.5556 95.4891C54.8548 97.6272 50.6548 97.5291 50.6059 97.0387C50.5667 96.6366 53.2786 96.156 57.4003 93.8021C61.6395 91.3796 63.4899 89.2023 63.8227 89.4376H63.8325Z" stroke="#2D2A23" stroke-miterlimit="10"/>
<path d="M89.2285 132.072C88.3571 132.877 87.3977 133.504 86.3403 134.044L89.3068 137.898C91.1963 136.27 93.2229 134.809 95.367 133.534C97.511 132.259 99.6943 130.944 102.015 130.327H100.712L101.026 130.405L99.567 129.277C99.1558 128.61 99.4691 129.591 99.4887 129.895C99.5083 130.356 99.5082 130.817 99.5082 131.288C99.5082 132.21 99.4691 133.141 99.3614 134.063C99.2341 135.221 99.0187 136.486 98.1964 137.359L102.044 137.859C100.047 133.906 99.2439 129.297 99.9097 124.903C100.389 121.764 96.3949 120.666 95.1907 123.598C92.3711 130.474 89.4439 137.378 84.9501 143.361L89.4243 145.254C91.2355 138.33 93.0369 131.405 94.8481 124.481L90.7557 125.56C92.146 127.335 92.8117 129.689 93.4677 131.808C94.2802 134.436 94.946 137.094 95.4844 139.791C95.974 142.224 99.6061 142.027 100.203 139.791C101.584 134.632 101.564 129.208 100.115 124.059C99.5866 122.186 96.5418 121.47 95.6411 123.471C93.3698 128.502 91.0984 133.544 88.8271 138.575L93.0565 141.047C95.0831 136.329 97.2369 131.67 99.5278 127.07L94.9656 125.835C95.2593 128.345 94.7012 130.925 94.3684 133.416C94.0159 136.035 93.6733 138.644 93.3208 141.262H98.2159C98.2159 137.81 98.2061 134.367 98.1964 130.915C98.1964 129.797 97.8145 127.924 98.4509 126.943C98.9992 126.099 100.223 125.658 101.094 125.246C102.857 124.412 102.514 121.931 101.094 121.009C99.3222 119.852 97.325 119.087 95.2299 118.783C94.2019 118.636 93.1837 118.567 92.146 118.636C91.1082 118.704 90.0215 118.989 88.9935 118.685L90.7068 121.705C90.7949 121.274 90.746 121.372 90.9907 120.999L86.5166 119.106C85.048 122.618 82.4928 125.746 79.399 127.943L83.0802 130.062C83.1585 129.14 83.4326 128.208 83.8634 127.394C84.0788 126.972 84.3235 126.551 84.6173 126.168C84.7543 125.992 84.9012 125.835 85.048 125.668C85.1361 125.57 85.2243 125.482 85.3222 125.393C85.5669 125.187 85.4886 125.187 85.0872 125.383L83.8536 125.05C84.8914 125.56 85.7823 126.129 86.9571 126.315C87.4662 126.394 87.9655 126.443 88.4844 126.403C88.8369 126.364 89.1795 126.315 89.532 126.256C89.9432 126.139 90.0509 126.109 89.8355 126.188L88.1026 125.472L88.2788 125.619L87.6522 124.54C87.6718 124.354 87.6816 124.305 87.6718 124.393C87.6229 124.677 87.5739 124.962 87.525 125.246C87.4173 125.815 87.2998 126.374 87.1627 126.933C86.9082 127.983 86.6145 129.022 86.262 130.042C85.5669 132.092 84.6466 134.034 83.5599 135.917L88.1222 137.153C88.2299 133.504 89.8942 130.091 90.139 126.433C90.2956 124.089 86.5655 122.971 85.5767 125.197C84.3921 127.875 83.2075 130.542 82.013 133.22L86.2424 135.691C87.3389 133.092 88.7585 130.621 90.5599 128.443L86.4676 127.365L87.5739 130.425C88.0243 131.67 89.2383 132.504 90.5893 132.141C91.7935 131.808 92.753 130.376 92.3026 129.12L91.1963 126.06C90.6285 124.491 88.3767 123.441 87.104 124.981C85.0285 127.492 83.2956 130.209 82.0228 133.22C81.504 134.436 81.6606 135.848 82.904 136.574C83.9515 137.182 85.7138 136.908 86.2522 135.691C87.4369 133.014 88.6215 130.346 89.8159 127.669L85.2536 126.433C85.0089 130.081 83.3543 133.455 83.2368 137.153C83.1585 139.615 86.6047 140.458 87.7991 138.389C89.346 135.721 90.5893 132.867 91.4509 129.905C92.1656 127.443 94.0551 122.039 90.1683 121.343C89.4536 121.215 88.8564 121.5 88.1711 121.539C87.5445 121.578 87.2313 121.294 86.7026 120.999C84.9012 120.009 83.276 120.568 81.8858 121.931C79.6634 124.108 78.4886 127.002 78.2144 130.062C78.0578 131.847 80.4368 133.21 81.8956 132.18C86.1347 129.169 89.2578 125.207 91.2551 120.421C91.7152 119.312 90.8439 117.929 89.8355 117.527C88.6802 117.057 87.4564 117.478 86.7809 118.528C86.4089 119.097 86.1445 119.734 86.0075 120.411C85.7333 121.725 86.3795 123.03 87.7208 123.432C89.7571 124.04 91.7348 123.432 93.8005 123.54C95.5628 123.638 97.188 124.305 98.6565 125.256V121.019C97.2369 121.696 95.8369 122.48 94.8285 123.706C93.5656 125.246 93.3306 127.061 93.3306 128.993C93.3306 133.083 93.3502 137.172 93.3502 141.262C93.3502 142.586 94.4761 143.714 95.7977 143.714C97.2663 143.714 98.0691 142.577 98.2453 141.262C98.5978 138.644 98.9404 136.035 99.2929 133.416C99.6453 130.797 100.184 128.355 99.8901 125.835C99.7628 124.746 99.2145 123.775 98.0887 123.471C97.0901 123.196 95.8075 123.638 95.3278 124.599C93.0369 129.199 90.883 133.857 88.8564 138.575C88.3376 139.791 88.4942 141.203 89.7376 141.929C90.7851 142.547 92.5376 142.263 93.0858 141.047C95.3572 136.015 97.6285 130.974 99.8999 125.942L95.4257 125.354C96.6397 129.679 96.6789 134.142 95.5138 138.477H100.233C99.6355 135.476 98.8719 132.504 97.9222 129.591C97.0411 126.874 96.0033 124.334 94.2313 122.078C93.0663 120.587 90.5697 121.529 90.139 123.157C88.3278 130.081 86.5264 137.006 84.7152 143.93C84.4117 145.107 85.0089 146.372 86.1348 146.823C87.3487 147.314 88.4355 146.823 89.1893 145.823C93.9376 139.507 96.9432 132.161 99.9292 124.893L95.2103 123.589C94.339 129.375 95.1907 135.093 97.8439 140.321C98.5488 141.714 100.654 141.91 101.691 140.821C103.689 138.712 104.178 135.937 104.364 133.132C104.531 130.582 105.01 124.618 100.752 125.589C99.3712 125.903 97.9712 126.668 96.6984 127.276C95.4257 127.884 94.29 128.493 93.125 129.179C90.5599 130.699 88.1515 132.475 85.89 134.426C83.6284 136.378 86.4872 139.477 88.8564 138.281C90.276 137.565 91.5683 136.623 92.7334 135.544C95.0537 133.396 91.5879 129.934 89.2676 132.072H89.2285Z" fill="#D84A2E"/>
<path d="M95.8663 135.309C103.777 148.138 86.8494 147.637 93.9865 135.25C86.8494 147.637 77.9501 133.2 92.9977 133.642C77.9501 133.191 85.9781 119.263 93.8886 132.092C85.9781 119.263 102.905 119.764 95.7684 132.151C102.905 119.764 111.805 134.201 96.7572 133.759C111.805 134.211 103.777 148.138 95.8663 135.309Z" fill="#287F53"/>
<path d="M144.22 126.57C144.025 128.493 142.488 142.312 135.507 160.113C128.086 179.023 120.782 186.447 119.941 187.271" stroke="#298054" stroke-miterlimit="10"/>
<path d="M118.854 187.389C109.543 186.094 97.0998 183.397 83.3445 177.493C70.5584 172 60.6115 165.439 53.4842 159.937" stroke="#298054" stroke-miterlimit="10"/>
<path d="M120.596 187.997C121.203 187.997 122.173 187.82 122.457 187.183C122.711 186.594 122.231 186.192 121.644 186.192C121.057 186.192 120.068 186.369 119.784 187.006C119.529 187.595 120.009 187.997 120.596 187.997Z" fill="#298054"/>
<path d="M120.606 188.124C121.184 188.124 122.192 187.938 122.476 187.34C122.76 186.741 122.241 186.467 121.703 186.467C121.125 186.467 120.117 186.653 119.833 187.251C119.549 187.85 120.068 188.124 120.606 188.124Z" fill="#298054"/>
<path d="M119.588 187.408L119.666 187.143L119.833 186.888L120.078 186.663L120.391 186.477L120.763 186.339L121.145 186.271C121.145 186.271 121.145 186.271 121.135 186.271H121.497C121.497 186.271 121.487 186.271 121.478 186.271L121.801 186.339C121.801 186.339 121.791 186.339 121.781 186.339L122.055 186.477H122.045L122.251 186.663C122.251 186.663 122.222 186.633 122.212 186.614C122.212 186.614 122.202 186.594 122.192 186.594C122.124 186.516 122.045 186.447 121.967 186.388C121.83 186.3 121.693 186.241 121.527 186.222C121.35 186.173 121.174 186.163 120.998 186.182C120.802 186.192 120.606 186.241 120.43 186.32C120.254 186.369 120.087 186.457 119.931 186.575L119.686 186.8C119.549 186.947 119.471 187.124 119.431 187.32L119.451 187.585C119.51 187.771 119.617 187.909 119.774 188.016L119.568 187.83C119.568 187.83 119.598 187.869 119.617 187.889C119.617 187.889 119.617 187.889 119.627 187.899C119.666 187.928 119.696 187.967 119.735 187.997C119.764 188.026 119.803 188.065 119.843 188.095C119.843 188.095 119.843 188.095 119.852 188.095C119.941 188.144 120.038 188.203 120.136 188.232C120.41 188.32 120.567 188.32 120.851 188.311C120.851 188.311 120.851 188.311 120.861 188.311L121.243 188.242C121.536 188.144 121.673 188.095 121.928 187.918C122.016 187.85 122.114 187.771 122.182 187.683C122.31 187.526 122.417 187.349 122.447 187.143C122.476 186.996 122.447 186.869 122.369 186.761C122.32 186.624 122.231 186.526 122.104 186.457C121.967 186.369 121.83 186.31 121.664 186.29C121.487 186.241 121.311 186.231 121.135 186.251L120.753 186.32C120.508 186.388 120.283 186.496 120.068 186.643L119.823 186.869C119.686 187.016 119.608 187.193 119.568 187.389L119.588 187.408Z" fill="#298054"/>
<path d="M82.6592 195.068C73.5836 198.128 65.5556 192.763 64.1556 191.822C57.273 187.222 51.0269 177.797 53.7388 173.471C57.4689 167.528 77.1179 172.893 77.0592 175.551C77.0298 176.953 71.5081 177.444 71.4787 179.013C71.4298 181.985 91.3432 181.7 92.1753 186.967C92.6453 189.919 86.9473 193.636 82.669 195.078L82.6592 195.068Z" fill="#A07C6B"/>
</g>
<defs>
<clipPath id="clip0_50_378">
<rect width="337.333" height="196" fill="white"/>
</clipPath>
</defs>
</svg>
