<svg width="390" height="486" viewBox="0 0 390 486" fill="none" xmlns="http://www.w3.org/2000/svg">
<path d="M568.252 75.3997C311.239 203.907 22.4016 78.6779 -89.8908 0C-297.495 181.943 -588.14 512.882 -89.8908 381.096C408.359 249.311 640.283 396.121 693.965 486C759.149 295.589 825.264 -53.1076 568.252 75.3997Z" fill="#FCCA59"/>
<mask id="mask0_90_332" style="mask-type:luminance" maskUnits="userSpaceOnUse" x="-4" y="180" width="443" height="198">
<path d="M439 180H-4V377.217H439V180Z" fill="white"/>
</mask>
<g mask="url(#mask0_90_332)">
<path d="M215.533 263.703L218.286 263.13C225.8 251.518 232.915 238.488 241.901 227.957C256.212 211.193 270.305 213.329 278.909 233.545C283.598 244.567 286.279 256.961 289.386 268.528L323.15 270.517C326.076 271.072 327.448 272.38 328.375 275.097C328.42 275.242 328.548 275.388 328.584 275.515L327.53 297.031C327.439 297.385 327.348 297.722 327.321 298.085C327.312 298.221 327.339 298.367 327.321 298.503C327.076 299.212 326.467 300.784 326.476 301.456C326.476 301.529 326.476 301.601 326.476 301.665C326.349 302.019 326.176 302.365 326.058 302.719C324.432 307.662 320.216 305.718 316.145 306.09C315.99 304.882 315.582 303.401 315.091 302.292C314.664 301.329 314.773 301.72 314.455 301.238C314.4 301.147 314.437 301.02 314.246 300.82C314.709 299.984 313.728 299.893 313.61 299.766C309.957 295.468 308.513 294.714 303.061 293.224C300.126 292.424 296.828 291.688 293.784 291.534C292.612 291.479 292.312 291.343 291.04 291.534C290.894 291.561 290.74 291.661 290.622 291.743L284.079 293.433C283.861 293.433 283.907 293.333 283.444 293.433C283.226 293.478 282.962 293.378 282.807 293.642C282.735 293.642 282.662 293.642 282.599 293.642C281.817 293.624 281.245 293.769 280.491 293.851L266.58 295.232L264.88 302.283H265.298C265.198 303.637 264.98 304.918 265.089 306.29L235.141 306.499C245.409 298.067 251.76 280.185 258.138 268.746L258.556 269.055C260.81 275.624 260.864 287.663 263.554 293.587C263.944 294.46 264.399 294.95 265.062 293.887L256.875 256.179L256.158 256.098L258.347 268.1L256.639 268.446C248.489 282.893 241.238 307.498 222.329 310.433C219.667 310.842 214.261 310.442 212.362 311.006C211.299 311.324 211.29 311.742 211.953 312.605C211.008 312.659 210.008 312.977 209 312.814C211.29 310.288 213.089 306.363 214.061 303.11C214.252 302.483 214.334 301.838 214.479 301.211C216.887 291.225 216.114 280.858 214.27 270.835C217.977 268.964 216.869 266.937 215.533 263.666V263.703Z" fill="#9BB5DF"/>
<path d="M101.219 280.367C106.625 280.113 112.095 279.431 117.138 277.414L117.665 280.158C113.44 284.192 106.044 289.081 99.6923 286.845C98.0931 286.282 98.1113 284.674 96.9937 283.747C97.7206 289.235 104.563 288.308 108.47 287.318C114.376 285.819 117.747 281.457 121.663 277.214C122.644 278.304 123.408 279.531 124.407 280.585C128.096 284.51 130.449 285.001 135.792 285.228C136.773 285.773 135.719 285.528 135.256 286.055C134.756 286.627 132.657 289.862 132.421 289.971C131.703 290.28 128.796 290.307 127.569 290.607C116.938 293.206 113.303 299.584 118.292 309.906C114.503 298.948 117.883 292.415 129.604 291.17C142.952 289.744 151.166 297.058 162.687 301.056C171.11 303.973 197.097 309.888 201.277 318.148C201.985 319.547 200.904 320.101 200.977 320.356C201.004 320.465 200.686 320.901 200.686 320.901L200.159 322.109L199.805 322.573L198.869 324.035L198.542 324.708L197.906 326.153L197.815 326.87C194.525 327.652 196.434 328.706 196.434 328.706L195.489 330.369L194.862 330.796C194.407 331.941 194.189 333.149 195.071 334.167C183.259 338.719 167.939 335.03 156.054 331.741C143.379 328.233 127.233 323.2 119.41 312.014C99.6743 317.321 56.9324 320.446 59.2494 289.353C59.9036 280.54 65.4917 272.68 73.1605 268.573C74.8505 270.517 76.6406 272.135 78.6668 273.725C79.5027 274.379 83.7642 276.842 83.9369 277.105C84.3821 277.786 84.1912 279.413 85.009 280.467C86.6718 282.602 96.9755 284.247 99.2107 282.929C99.7104 282.629 100.974 280.948 101.21 280.394L101.219 280.367ZM156.69 327.824C145.314 324.653 134.429 319.583 125.27 312.105C132.648 320.365 143.652 324.944 154.201 327.679L156.69 327.824Z" fill="#F8A91D"/>
<path d="M142.343 260.541C146.223 261.604 146.541 259.986 150.039 258.851C162.578 254.78 176.998 253.681 190.019 255.998C190.464 256.079 192.127 256.125 192.127 256.743C191.745 258.851 194.098 263.276 195.334 265.029C197.324 267.873 200.931 269.709 201.404 264.757C202.458 266.846 203.575 273.434 206.946 272.725L207.964 272.035C208.173 271.817 208.146 271.562 208.164 271.29H208.582C209.163 272.816 211.689 273.788 213.071 272.562C213.588 272.107 213.779 270.717 213.861 270.654C213.943 270.581 214.243 270.881 214.279 270.863C216.124 280.876 216.896 291.243 214.488 301.238C199.341 301.456 188.556 294.378 176.944 286.055C167.848 279.531 159.062 272.525 149.948 266.02C154.192 264.439 158.808 264.702 163.233 264.966L163.024 264.23C157.372 261.813 152.529 262.285 146.786 263.703C146.723 263.721 146.641 263.684 146.577 263.703L142.361 260.541H142.343ZM199.714 268.346L199.296 268.455C201.34 274.733 201.577 281.085 200.504 287.581C200.286 288.926 197.878 296.422 198.56 296.813L199.141 296.549C202.24 287.681 203.839 277.159 199.714 268.337V268.346Z" fill="#F8A920"/>
<path d="M118.283 223.75C123.462 226.485 123.444 230.22 127.687 230.801C131.385 231.301 137.945 229.202 134.965 236.18C134.965 236.18 136.201 242.55 136.446 243.04C135.574 243.967 135.011 245.148 134.129 246.102C133.448 246.838 131.503 247.983 131.412 248.129C129.786 250.755 134.111 247.411 134.447 247.057C135.41 246.066 136.092 244.803 136.864 243.667C139.09 248.619 139.354 253.335 137.282 258.433C137.218 258.578 136.646 259.496 136.437 259.904C135.638 261.513 133.838 264.266 132.639 265.602C132.557 265.692 132.212 265.811 132.003 266.02C131.767 266.256 130.54 267.083 130.531 267.183L133.475 270.245C129.804 271.462 126.315 273.08 123.144 275.306C120.809 272.607 117.974 269.908 114.494 268.764C115.102 262.985 111.568 256.652 106.48 253.998C106.071 252.545 104.881 251.327 103.736 250.409C105.68 243.577 107.134 236.698 109.433 229.947C110.568 227.239 111.713 224.523 112.849 221.815C114.13 222.078 116.111 222.596 118.274 223.741L118.283 223.75Z" fill="#F8E1D8"/>
<path d="M339.969 252.318C362.058 241.414 354.407 284.337 352.017 293.787C350.327 300.475 349.119 305.99 341.114 306.308C339.487 306.372 334.372 306.544 334.69 304.409C334.717 304.282 334.681 304.127 334.69 303.991C335.626 304.146 334.917 302.91 334.899 302.519C334.89 302.31 334.917 302.092 334.899 301.883C335.835 302.047 335.126 300.802 335.108 300.411C335.108 300.202 335.117 299.984 335.108 299.775C336.044 299.939 335.335 298.694 335.317 298.303C335.317 298.094 335.335 297.876 335.317 297.667C336.244 297.812 335.544 296.767 335.526 296.404C335.508 296.122 335.544 295.841 335.526 295.559C336.453 295.704 335.753 294.659 335.735 294.296C335.726 294.087 335.753 293.869 335.735 293.66C336.671 293.824 335.962 292.579 335.944 292.188C335.944 291.979 335.962 291.761 335.944 291.552C336.862 291.697 336.18 290.662 336.153 290.289C336.135 290.016 336.198 289.698 336.153 289.444C336.762 289.58 336.825 288.908 336.153 289.026C336.135 288.962 336.171 288.881 336.153 288.817C336.116 288.69 335.953 288.626 335.944 288.608C335.926 288.544 335.962 288.463 335.944 288.399C335.917 288.308 335.753 288.235 335.735 288.19C335.626 287.881 335.235 287.463 335.099 287.136C335.017 286.936 334.981 286.709 334.89 286.5C334.372 285.337 334.054 283.901 333.2 282.911C333.163 282.802 333.227 282.62 333.2 282.493L329.611 269.836C330.102 267.537 330.483 265.901 331.301 263.512L334.254 260.768C333.763 262.53 332.791 264.13 332.146 265.829C331.883 266.519 331.337 266.683 331.319 267.801C331.301 269.209 335.708 284.546 336.371 285.237L336.789 284.928C336.78 283.82 336.989 282.766 336.998 281.657C336.998 281.521 336.998 281.375 336.998 281.239C337.407 280.685 337.152 279.967 337.207 279.34C337.216 279.204 337.198 279.058 337.207 278.922C337.252 278.341 337.389 277.732 337.416 277.023C337.416 276.887 337.416 276.741 337.416 276.605C337.443 276.078 337.625 275.442 337.625 274.706C337.625 274.57 337.625 274.424 337.625 274.288C338.025 273.788 337.779 273.152 337.834 272.598C337.852 272.462 337.825 272.316 337.834 272.18C337.87 271.699 337.988 271.062 338.043 270.49C338.052 270.354 338.034 270.208 338.043 270.072C338.097 269.454 338.197 268.809 338.252 268.173C338.261 268.037 338.243 267.891 338.252 267.755C338.379 266.419 338.552 265.093 338.67 263.748C338.679 263.612 338.661 263.466 338.67 263.33C338.724 262.712 338.833 262.076 338.879 261.431C338.888 261.295 338.87 261.149 338.879 261.013C339.042 258.905 339.688 256.597 339.515 254.471C339.506 254.335 339.542 254.171 339.515 254.053L339.933 252.363L339.969 252.318ZM335.653 287.327V287.536L335.762 287.427L335.653 287.318V287.327Z" fill="#F2F3F5"/>
<path d="M303.061 293.233L300.953 294.178L306.65 299.348C304.46 299.893 299.444 295.305 298.49 295.187C298.163 295.141 293.057 297.131 292.303 297.449C292.212 297.485 292.148 297.64 292.094 297.658C291.903 297.74 291.676 297.776 291.457 297.867C290.113 298.449 288.559 298.985 287.45 299.975C287.396 300.002 287.296 299.948 287.241 299.975C286.578 300.275 285.797 300.638 285.342 301.238C285.288 301.265 285.188 301.211 285.133 301.238C284.715 301.456 283.871 301.783 283.762 302.292H315.082C315.572 303.391 315.981 304.882 316.136 306.09C316.908 311.951 314.945 315.585 309.176 317.166C302.852 318.893 278.946 318.72 272.731 316.694C267.688 315.058 265.48 311.451 265.089 306.299C264.989 304.927 265.207 303.637 265.298 302.292C269.632 301.747 275.865 303.019 279.972 302.301C280.654 302.183 280.509 301.983 280.699 301.865C280.772 301.82 280.854 301.72 280.908 301.656C281.299 301.665 281.353 301.483 281.544 301.238C281.599 301.165 281.69 301.093 281.753 301.029L282.389 300.611C282.462 300.547 282.526 300.466 282.598 300.402C283.507 300.139 284.152 299.412 284.915 298.93C288.422 296.677 292.439 294.978 296.3 293.442C295.746 292.96 294.992 292.606 294.402 292.179C294.211 292.043 294.02 291.679 293.765 291.543C296.809 291.697 300.108 292.424 303.042 293.233H303.061Z" fill="#F2F3F5"/>
<path d="M214.061 303.146C213.089 306.399 211.29 310.315 209 312.85C206.946 315.122 204.484 316.303 201.831 317.702C188.265 304.981 179.969 305.581 163.541 299.993C153.774 296.668 144.597 289.48 133.493 289.862C135.047 288.263 135.765 285.201 138.136 285.228C151.629 285.537 155.173 287.718 167.494 290.78C172.7 292.07 179.351 292.397 184.085 293.805C186.511 294.532 190.346 297.176 193.053 298.339C199.941 301.283 206.574 302.701 214.079 303.155L214.061 303.146Z" fill="#F8A920"/>
<path d="M113.667 219.198C113.149 222.015 110.514 226.813 109.451 229.956C107.152 236.708 105.698 243.577 103.754 250.419C103.554 251.118 103.127 251.818 102.909 252.527C102.482 252.463 101.9 252.536 101.437 252.527L102.073 250.419L87.3078 247.248L86.2539 255.053C85.8814 254.771 85.5541 254.498 85.1997 254.208L85.3814 251.073L79.5026 248.511C78.7485 247.52 77.9672 246.448 77.3948 245.349L85.8266 249.774L88.9977 233.109L74.8688 232.682C74.8688 232.61 74.8688 232.546 74.8688 232.473C74.8688 231.983 74.8506 231.483 74.8688 231.001L89.6067 231.401L93.2139 221.615C93.2048 221.106 91.1512 221.515 90.8241 221.543C85.5359 222.106 79.4937 224.078 75.0778 226.994C75.0959 226.276 75.0141 225.577 75.2867 224.886C80.1024 219.925 84.9453 216.918 91.7327 215.291C93.4318 214.882 96.4849 214.928 97.7024 214.51C98.5202 214.228 99.0473 212.956 100.719 212.674C103.191 212.266 112.986 214.319 113.74 216.909C114.031 217.917 113.84 218.281 113.667 219.189V219.198ZM98.0569 216.663L111.868 219.834C112.377 218.58 112.504 217.072 111.187 216.3C110.305 215.773 103.209 213.956 102.128 213.956C100.147 213.956 99.0201 215.11 98.0478 216.672L98.0569 216.663ZM96.3668 216.036C90.6061 216.427 85 218.562 80.5568 222.26C84.8819 220.888 89.3613 220.071 93.9044 219.798L96.3668 216.036ZM110.914 221.742L96.9391 218.172L93.2048 225.522L107.834 229.302L110.914 221.733V221.742ZM107.543 230.592L92.5688 226.794L90.0519 235.308L105.09 238.834L107.543 230.592ZM104.808 240.506L89.4159 237.135L87.7076 245.648L102.482 249.156L104.808 240.506Z" fill="#5E72B5"/>
<path d="M215.533 263.703C216.868 266.974 217.977 269 214.27 270.872C214.234 270.89 213.934 270.59 213.852 270.663C213.77 270.726 213.579 272.117 213.061 272.571C211.68 273.797 209.163 272.816 208.573 271.299C208.282 270.536 208.228 268.673 207.737 267.392C207.083 265.711 206.338 264.039 205.511 262.44C204.993 262.358 205.193 262.83 205.247 263.13C205.593 265.093 208.228 269.436 208.146 271.299C208.137 271.571 208.155 271.826 207.946 272.044L206.928 272.734C203.557 273.443 202.44 266.847 201.386 264.766C200.913 269.718 197.306 267.882 195.316 265.038C194.089 263.285 191.727 258.86 192.109 256.752C192.49 254.644 195.098 254.08 196.915 253.862C204.902 252.881 212.398 256.061 215.524 263.712L215.533 263.703ZM211.099 262.649L213.625 270.872C214.997 271.172 211.39 263.303 211.099 262.649Z" fill="#F8E1D8"/>
<path d="M75.0686 227.003C75.0414 228.357 74.9142 229.675 74.8597 231.01C74.8415 231.501 74.8597 231.992 74.8597 232.482C74.2236 232.364 74.4508 232.8 74.4326 233.209C74.3145 236.762 74.7779 240.106 76.0136 243.449C76.1408 243.804 76.3042 244.267 76.7495 243.867C76.9675 244.367 77.1222 244.858 77.3857 245.339C77.9672 246.439 78.7394 247.511 79.4935 248.501C81.129 250.655 83.0917 252.499 85.1906 254.198C85.545 254.489 85.8722 254.762 86.2448 255.044C87.0444 255.643 87.9255 256.188 88.7796 256.734C89.6883 257.315 90.606 257.86 91.5237 258.424C91.3874 258.787 90.6969 262.812 90.6788 263.276C88.9887 262.403 87.2168 261.558 85.6176 260.532C85.2633 260.304 84.8091 260.068 84.5637 259.896C76.5587 254.48 69.1807 245.403 69.5896 235.217C69.635 234.054 69.844 232.982 70.0075 231.846C71.8248 228.984 72.8788 227.358 75.2776 224.886C75.005 225.577 75.0777 226.276 75.0686 226.994V227.003Z" fill="#D94A2E"/>
<path d="M69.5805 235.226C62.7113 246.975 73.5874 259.477 84.0275 264.121L84.5546 259.905C84.7999 260.068 85.2542 260.313 85.6085 260.541L85.1997 267.065L91.5146 268.346C91.6327 268.718 91.7965 269.272 91.9328 269.609L84.9725 268.346V277.205L99.974 279.186L100.374 277.623C100.846 277.759 101.364 277.759 101.846 277.832C101.646 278.504 101.473 279.785 101.21 280.367C100.964 280.912 99.7104 282.602 99.2106 282.902C96.9663 284.219 86.6717 282.575 85.0089 280.439C84.1912 279.385 84.382 277.759 83.9368 277.078C83.7642 276.814 79.5027 274.361 78.6667 273.697C76.6496 272.107 74.8505 270.499 73.1604 268.546C70.0893 265.011 67.7632 261.022 66.4094 256.524L65.3555 242.395C66.1005 237.643 67.5451 235.708 69.9984 231.846C69.8258 232.991 69.6259 234.054 69.5805 235.217V235.226ZM83.9095 265.193C75.641 262.203 68.0813 255.152 66.4185 246.202C65.8461 258.287 73.315 269.681 83.7097 275.306L83.9095 265.193ZM99.1108 280.794L85.6085 278.686C86.6898 280.83 90.3153 281.248 92.5324 281.566C94.4132 281.839 98.1295 282.802 99.1108 280.794Z" fill="#6179B8"/>
<path d="M211.953 312.632C211.29 311.769 211.299 311.351 212.362 311.033C214.27 310.47 219.676 310.869 222.329 310.461C241.238 307.526 248.489 282.92 256.639 268.473L258.347 268.128L256.158 256.125L256.875 256.207L265.062 293.914C264.399 294.969 263.944 294.478 263.554 293.615C260.864 287.681 260.81 275.651 258.556 269.082L258.138 268.773C251.76 280.212 245.418 298.094 235.141 306.526C231.47 309.534 226.727 311.333 222.066 312.014L212.58 312.232L213.425 312.65C212.934 312.678 212.434 312.623 211.953 312.65V312.632Z" fill="#5E72B5"/>
<path d="M337.861 253.581L339.333 253.154C339.215 253.499 339.496 253.781 339.542 253.999C339.569 254.117 339.533 254.28 339.542 254.417L338.497 260.032L338.906 260.95C338.897 261.086 338.915 261.231 338.906 261.368C338.043 261.295 338.007 263.612 338.697 263.267C338.688 263.403 338.706 263.548 338.697 263.685C338.007 263.685 337.607 267.583 338.279 267.692C338.27 267.828 338.288 267.973 338.279 268.11C337.598 267.91 337.288 270.317 338.07 270.009C338.061 270.145 338.079 270.29 338.07 270.427C337.325 270.354 337.225 272.017 337.861 272.117C337.852 272.253 337.879 272.398 337.861 272.535C336.925 272.362 337.634 273.798 337.652 274.225C337.652 274.361 337.652 274.506 337.652 274.643C337.043 274.406 336.87 276.214 337.443 276.542C337.443 276.678 337.443 276.823 337.443 276.96C336.789 276.787 336.498 278.622 337.234 278.859C337.225 278.995 337.243 279.14 337.234 279.277C336.298 279.095 337.016 280.73 337.025 281.176C337.025 281.312 337.025 281.457 337.025 281.594L335.762 282.648C334.617 277.15 331.446 271.426 332.173 265.774C332.818 264.075 333.781 262.476 334.281 260.713L331.328 263.457C332.991 258.605 333.527 256.652 337.87 253.544L337.861 253.581Z" fill="#322926"/>
<path d="M142.343 260.541L146.559 263.703C145.85 263.875 145.105 263.666 144.451 264.339C144.324 264.257 144.16 264.211 144.033 264.13C141.571 262.594 139.072 261.14 136.437 259.914C136.646 259.496 137.218 258.587 137.282 258.442C139.099 258.905 140.517 260.05 142.343 260.55V260.541Z" fill="#E75134"/>
<path d="M329.638 269.818L333.227 282.475L329.429 271.935C328.493 275.369 329.702 278.84 329.638 282.357C329.584 285.637 328.911 290.725 328.484 294.087C328.457 294.314 328.212 296.122 327.739 295.977C328.293 289.98 330.038 281.275 328.584 275.515C328.548 275.378 328.42 275.233 328.375 275.097C328.884 273.37 329.265 271.589 329.638 269.827V269.818Z" fill="#211A1A"/>
<path d="M136.437 243.031C136.546 243.25 136.764 243.459 136.855 243.668C136.083 244.794 135.401 246.066 134.438 247.057C134.102 247.402 129.777 250.755 131.403 248.129C131.494 247.983 133.439 246.839 134.12 246.103C135.001 245.149 135.556 243.958 136.437 243.041V243.031Z" fill="#F8E1D8"/>
<path d="M66.4185 256.534C64.9283 251.563 64.5556 247.575 65.3643 242.405L66.4185 256.534Z" fill="#6179B8"/>
<path d="M326.476 301.665C326.503 301.919 326.794 302.71 327.021 302.91C327.848 303.664 332.9 305.136 334.027 304.991L334.708 303.355C334.708 303.564 334.726 303.782 334.708 303.991C334.699 304.127 334.735 304.291 334.708 304.409C334.626 304.818 334.59 305.245 334.481 305.654C333.818 306.126 327.03 303.555 326.067 302.719C326.185 302.365 326.358 302.019 326.485 301.665H326.476Z" fill="#282424"/>
<path d="M222.075 312.005C219.222 312.423 216.305 312.478 213.425 312.641L212.58 312.223L222.066 312.005H222.075Z" fill="#546DB2"/>
<path d="M339.969 252.318L339.551 254.008C339.506 253.79 339.224 253.508 339.342 253.163L337.87 253.59C338.706 252.99 339.06 252.781 339.978 252.327L339.969 252.318Z" fill="#282424"/>
<path d="M126.524 280.158C131.839 285.537 139.753 282.857 146.459 283.311C158.008 284.111 168.957 291.08 180.623 291.116C179.233 290.08 177.87 289.017 176.507 287.954L177.143 287.845L176.934 286.055C188.547 294.378 199.332 301.456 214.479 301.238C214.324 301.865 214.243 302.51 214.061 303.137C206.565 302.683 199.923 301.265 193.035 298.321C190.327 297.167 186.493 294.514 184.067 293.787C179.342 292.379 172.691 292.052 167.476 290.762C155.155 287.7 151.62 285.519 138.118 285.21C137.346 285.192 136.564 285.246 135.801 285.21C130.458 284.983 128.105 284.501 124.416 280.567L125.733 281.167L126.524 280.149V280.158Z" fill="#D94A2E"/>
<path d="M291.04 291.543L294.411 292.179C295.001 292.606 295.755 292.96 296.31 293.442C292.448 294.977 288.423 296.677 284.925 298.93C284.089 298.775 283.135 299.966 282.608 300.402C282.535 300.465 282.472 300.547 282.399 300.611C282.335 300.665 282.244 300.575 281.763 301.029C281.699 301.092 281.608 301.165 281.554 301.238C280.69 301.056 280.999 301.574 280.917 301.656C280.863 301.719 280.772 301.828 280.708 301.865L265.525 301.656L265.943 298.285C265.971 298.158 265.907 297.976 265.943 297.867C267.043 297.113 266.134 295.722 267.843 295.332C268.024 295.286 268.288 295.368 268.478 295.332C268.388 295.986 268.715 295.75 269.124 295.659C271.186 295.223 273.095 295.368 275.112 295.105C275.402 295.068 277.528 294.696 277.546 294.278C277.683 294.26 277.828 294.296 277.964 294.278C277.719 294.85 279.818 294.45 279.918 294.432C280.727 294.287 281.908 294.06 282.608 293.642C282.681 293.642 282.753 293.642 282.817 293.642C282.953 293.651 283.562 294.305 283.453 293.433C283.916 293.333 283.871 293.433 284.089 293.433C286.06 293.396 289.041 292.933 290.631 291.743C290.758 291.661 290.903 291.552 291.049 291.534L291.04 291.543Z" fill="#322926"/>
<path d="M333.227 282.475C333.254 282.602 333.191 282.784 333.227 282.893C333.536 283.901 333.89 286.028 334.917 286.482C335.008 286.691 335.044 286.909 335.126 287.118L335.971 290.707C335.953 290.843 335.971 290.989 335.971 291.125C335.172 291.043 335.063 292.933 335.762 292.597C335.744 292.806 335.762 293.024 335.762 293.233C334.899 293.169 334.836 294.959 335.553 294.705C335.535 294.841 335.553 294.987 335.553 295.123C334.899 294.923 334.572 297.122 335.344 296.813C335.326 296.949 335.344 297.095 335.344 297.231C334.644 297.077 334.281 300.82 334.926 300.82C334.908 300.956 334.926 301.102 334.926 301.238C334.426 300.893 333.908 303.182 334.717 302.928C334.699 303.064 334.717 303.21 334.717 303.346L334.036 304.982C332.909 305.127 327.857 303.655 327.03 302.901C326.803 302.692 326.512 301.91 326.485 301.656C326.485 301.583 326.485 301.511 326.485 301.447C327.539 301.256 327.257 299.157 327.33 298.494C327.348 298.358 327.321 298.212 327.33 298.076C328.22 298.249 327.73 296.722 327.748 296.386C327.757 296.25 327.739 296.104 327.748 295.968C328.22 296.113 328.466 294.305 328.493 294.078C328.929 290.716 329.602 285.628 329.647 282.348C329.702 278.831 328.493 275.36 329.438 271.926L333.236 282.466L333.227 282.475Z" fill="#322926"/>
<path d="M313.61 299.766C313.437 300.756 314.155 300.729 314.246 300.82C314.437 301.02 314.401 301.156 314.455 301.238C314.301 301.71 313.901 301.647 313.519 301.674C305.587 302.137 293.466 302.465 285.661 301.883C285.007 301.838 285.106 301.965 285.134 301.238C285.188 301.211 285.288 301.265 285.343 301.238C285.933 300.92 287.133 300.811 287.242 299.975C287.296 299.948 287.396 300.002 287.451 299.975C288.713 299.421 290.604 299.003 291.458 297.867C291.676 297.776 291.903 297.74 292.094 297.658L292.303 297.449C293.057 297.131 298.164 295.15 298.491 295.186C299.436 295.305 304.46 299.884 306.65 299.348L300.953 294.178L303.061 293.233C308.513 294.723 309.957 295.468 313.61 299.775V299.766Z" fill="#312826"/>
<path d="M285.134 301.247C285.106 301.965 285.006 301.838 285.661 301.892C293.466 302.474 305.578 302.147 313.519 301.683C313.901 301.665 314.3 301.729 314.455 301.247C314.773 301.729 314.664 301.338 315.091 302.301H283.771C283.88 301.792 284.715 301.465 285.142 301.247H285.134Z" fill="#4C494A"/>
<path d="M280.5 293.86C279.655 293.951 278.791 294.187 277.964 294.278C277.828 294.296 277.683 294.26 277.547 294.278C274.548 294.623 271.431 294.769 268.478 295.332C268.288 295.368 268.024 295.286 267.843 295.332C267.525 295.414 266.997 295.168 266.679 295.541C266.252 296.259 266.171 297.086 265.943 297.867C265.907 297.985 265.971 298.167 265.943 298.285C265.534 299.902 265.435 300.62 265.308 302.292H264.89L266.588 295.232L280.5 293.851V293.86Z" fill="#B0D4ED"/>
<path d="M327.739 295.977C327.73 296.113 327.748 296.259 327.739 296.395C327.621 296.595 327.585 296.813 327.53 297.031L328.584 275.515C330.047 281.266 328.293 289.98 327.739 295.977Z" fill="#B0D4ED"/>
<path d="M290.622 291.752C289.032 292.942 286.051 293.406 284.079 293.442L290.622 291.752Z" fill="#312826"/>
<path d="M282.608 293.651C281.908 294.069 280.727 294.287 279.918 294.441C279.818 294.46 277.719 294.859 277.964 294.287C278.791 294.187 279.645 293.96 280.499 293.869C281.254 293.787 281.826 293.642 282.608 293.66V293.651Z" fill="#312826"/>
<path d="M293.784 291.543C294.038 291.679 294.229 292.043 294.42 292.179L291.048 291.543C292.321 291.352 292.611 291.488 293.793 291.543H293.784Z" fill="#312826"/>
<path d="M327.321 298.503C327.249 299.166 327.53 301.265 326.476 301.456C326.467 300.784 327.076 299.212 327.321 298.503Z" fill="#211A1A"/>
<path d="M327.739 296.395C327.712 296.722 328.212 298.249 327.321 298.085C327.348 297.713 327.439 297.385 327.53 297.031C327.585 296.813 327.621 296.595 327.739 296.395Z" fill="#211A1A"/>
<path d="M314.246 300.82C314.155 300.729 313.437 300.756 313.61 299.766C313.719 299.893 314.7 299.984 314.246 300.82Z" fill="#4C494A"/>
<path d="M283.453 293.442C283.562 294.314 282.962 293.66 282.817 293.651C282.962 293.387 283.225 293.487 283.453 293.442Z" fill="#312826"/>
<path d="M121.463 276.778C120.127 277.804 118.882 278.995 117.665 280.149L117.138 277.405C112.095 279.422 106.625 280.112 101.219 280.358C101.473 279.776 101.646 278.504 101.855 277.823C107.252 278.613 112.477 276.123 114.085 270.654C117.338 271.708 119.31 274.361 121.463 276.769V276.778Z" fill="#F8E1D8"/>
<path d="M123.153 275.306C123.217 275.378 123.244 275.597 123.362 275.724C124.407 276.914 125.379 278.995 126.524 280.149L125.733 281.166L124.416 280.567C123.426 279.504 122.662 278.277 121.672 277.196C121.608 277.132 121.581 276.905 121.463 276.778C119.31 274.37 117.329 271.708 114.085 270.663C114.121 270.535 114.494 268.864 114.503 268.764C117.974 269.909 120.809 272.607 123.153 275.306Z" fill="#DF4828"/>
<path d="M156.69 327.824L154.201 327.679C143.661 324.953 132.648 320.374 125.27 312.105C134.429 319.583 145.314 324.653 156.69 327.824Z" fill="#ED9604"/>
<path d="M121.681 277.205C117.765 281.448 114.394 285.819 108.488 287.309C104.581 288.299 97.7387 289.235 97.0118 283.738C98.1294 284.665 98.1113 286.273 99.7104 286.836C106.062 289.072 113.449 284.183 117.683 280.149C118.901 278.986 120.145 277.805 121.481 276.778C121.599 276.914 121.636 277.132 121.69 277.196L121.681 277.205Z" fill="#ED9604"/>
<path d="M201.822 317.693C188.256 304.972 179.96 305.572 163.532 299.984C153.764 296.659 144.587 289.471 133.484 289.853C135.038 288.254 135.756 285.192 138.127 285.219C137.355 285.201 136.573 285.255 135.81 285.219C136.791 285.764 135.737 285.519 135.274 286.046C134.774 286.618 132.675 289.853 132.439 289.962C131.721 290.271 128.814 290.298 127.587 290.598C116.956 293.197 113.322 299.575 118.31 309.897C114.521 298.939 117.901 292.406 129.622 291.161C142.97 289.735 151.184 297.049 162.705 301.047C171.128 303.964 197.115 309.879 201.295 318.138C201.367 318.293 201.422 318.429 201.458 318.556L202.449 318.257C202.312 318.147 202.122 317.975 201.831 317.702L201.822 317.693Z" fill="#ED9604"/>
<path d="M149.939 266.02C159.062 272.526 167.839 279.54 176.934 286.055L177.143 287.845L176.507 287.954C167.557 280.958 157.59 273.234 148.249 266.865L149.512 266.329L149.085 265.593C149.249 265.711 149.621 265.802 149.93 266.011L149.939 266.02Z" fill="#D94A2E"/>
<path d="M146.777 263.703C152.529 262.285 157.363 261.813 163.014 264.23L163.223 264.966C158.798 264.702 154.182 264.439 149.939 266.02C149.639 265.802 149.258 265.711 149.094 265.602C148.313 265.048 147.504 264.33 146.777 263.703Z" fill="#F19205"/>
<path d="M199.714 268.346C203.848 277.159 202.24 287.69 199.141 296.559L198.56 296.822C197.878 296.431 200.277 288.935 200.504 287.59C201.577 281.094 201.34 274.742 199.296 268.464L199.714 268.355V268.346Z" fill="#ED9604"/>
<path d="M146.568 263.703C146.632 263.684 146.714 263.721 146.777 263.703C147.513 264.329 148.322 265.047 149.094 265.602L149.521 266.338L148.258 266.874C148.177 266.819 148.122 266.719 148.049 266.665L147.631 266.456C147.431 266.319 147.104 266.319 146.995 266.247C146.15 265.683 145.342 264.902 144.46 264.348C145.114 263.675 145.86 263.893 146.568 263.712V263.703Z" fill="#E75228"/>
<path d="M208.155 271.299C208.228 269.427 205.593 265.093 205.256 263.13C205.202 262.83 205.002 262.358 205.52 262.44C206.337 264.039 207.092 265.711 207.746 267.392C208.246 268.673 208.291 270.535 208.582 271.299H208.164H208.155Z" fill="#F8E1D8"/>
<path d="M144.033 264.121C142.67 264.539 141.344 264.811 140.026 265.384L137.764 265.32C135.501 267.256 138.382 269.682 140.026 267.492C141.934 267.592 145.096 266.756 146.986 266.229C147.095 266.302 147.422 266.302 147.622 266.438C147.813 266.565 147.977 266.601 148.04 266.647C148.122 266.701 148.168 266.801 148.249 266.856C157.599 273.225 167.557 280.949 176.507 287.945C177.87 289.008 179.233 290.071 180.624 291.107C168.957 291.062 158.008 284.092 146.459 283.302C139.744 282.838 131.839 285.528 126.524 280.149C125.379 278.986 124.407 276.914 123.362 275.724C129.886 271.762 136.174 268.519 143.397 273.407C140.708 269.245 134.156 271.426 132.639 265.602C133.838 264.266 135.629 261.513 136.437 259.905C139.063 261.131 141.571 262.594 144.033 264.121ZM135.601 276.151C130.74 273.907 131.276 280.976 135.81 278.686C137.291 278.795 138.909 278.286 140.235 278.686L137.282 283.011L137.6 283.329C138.363 283.365 140.535 279.649 140.653 278.686L140.789 278.25C146.977 276.66 153.419 276.814 159.525 278.677C162.842 278.177 154.746 275.506 154.201 275.37C148.422 273.907 141.307 274.515 135.592 276.151H135.601Z" fill="#F8A920"/>
<path d="M101.428 252.526C101.891 252.535 102.482 252.463 102.9 252.526C103.826 252.663 105.598 253.544 106.489 253.998C111.577 256.652 115.112 262.985 114.503 268.763C114.494 268.863 114.121 270.535 114.085 270.663C112.477 276.132 107.243 278.622 101.855 277.832C101.373 277.759 100.846 277.75 100.383 277.623C97.0571 276.687 93.25 272.743 91.9506 269.609C91.8143 269.272 91.6417 268.718 91.5327 268.346C91.0693 266.864 90.6332 264.838 90.6877 263.284C90.7059 262.821 91.3964 258.796 91.5327 258.432C91.5599 258.369 92.078 257.896 92.3779 257.378C94.3042 254.053 97.657 252.445 101.446 252.526H101.428ZM100.319 258.905C94.0497 259.968 96.6302 271.726 103.681 271.907C111.686 272.116 109.069 257.415 100.319 258.905Z" fill="#D94A2E"/>
<path d="M132.648 265.602C134.156 271.417 140.708 269.245 143.406 273.407C136.183 268.528 129.895 271.771 123.371 275.724C123.253 275.588 123.226 275.37 123.162 275.306C126.333 273.08 129.822 271.462 133.493 270.245C133.757 270.154 134.32 270.308 134.656 270.245L132.021 266.029C132.23 265.82 132.575 265.693 132.657 265.611L132.648 265.602Z" fill="#ED9604"/>
<path d="M132.012 266.02L134.647 270.236C134.32 270.299 133.757 270.145 133.484 270.236L130.54 267.174C130.54 267.083 131.776 266.256 132.012 266.01V266.02Z" fill="#F8A920"/>
<path d="M106.489 253.998C105.607 253.535 103.826 252.663 102.9 252.526C103.118 251.818 103.545 251.118 103.745 250.418C104.881 251.327 106.08 252.545 106.489 254.008V253.998Z" fill="#312826"/>
<path d="M114.085 222.996C114.612 223.223 114.103 223.378 114.085 223.414C114.112 223.287 114.049 223.096 114.085 222.996Z" fill="#F8E1D8"/>
<path d="M332.173 265.811C331.446 271.462 334.617 277.187 335.762 282.684L337.025 281.63C337.025 282.738 336.807 283.792 336.816 284.901L336.398 285.21C335.735 284.519 331.328 269.182 331.346 267.773C331.364 266.656 331.91 266.501 332.173 265.802V265.811ZM336.28 283.529V283.738L336.389 283.629L336.28 283.52V283.529Z" fill="#282424"/>
<path d="M339.551 254.426C339.733 256.552 339.079 258.851 338.915 260.968L338.506 260.05L339.551 254.435V254.426Z" fill="#282424"/>
<path d="M338.706 263.703C338.588 265.047 338.406 266.383 338.288 267.71C337.616 267.601 338.016 263.703 338.706 263.703Z" fill="#282424"/>
<path d="M335.126 287.118C335.262 287.445 335.653 287.863 335.762 288.172L335.971 288.381C335.989 288.445 335.953 288.526 335.971 288.59L336.18 288.799C336.198 288.863 336.162 288.944 336.18 289.008C336.208 289.126 336.162 289.299 336.18 289.426C336.226 289.68 336.162 289.998 336.18 290.271C335.989 290.353 335.989 290.516 335.971 290.689L335.126 287.1V287.118Z" fill="#282424"/>
<path d="M335.335 297.24C335.335 297.376 335.326 297.522 335.335 297.658C335.353 297.867 335.335 298.085 335.335 298.294C334.99 298.612 335.099 299.339 335.126 299.766C335.135 299.975 335.126 300.193 335.126 300.402C334.935 300.484 334.935 300.647 334.917 300.82C334.272 300.82 334.636 297.077 335.335 297.231V297.24Z" fill="#282424"/>
<path d="M334.908 286.482C333.89 286.028 333.536 283.91 333.218 282.893C334.063 283.883 334.381 285.31 334.908 286.482Z" fill="#211A1A"/>
<path d="M338.915 261.386C338.87 262.031 338.751 262.667 338.706 263.285C338.015 263.639 338.061 261.313 338.915 261.386Z" fill="#282424"/>
<path d="M337.443 276.987C337.407 277.696 337.28 278.304 337.234 278.886C336.498 278.65 336.789 276.814 337.443 276.987Z" fill="#282424"/>
<path d="M338.288 268.137C338.225 268.773 338.134 269.418 338.079 270.036C337.307 270.345 337.607 267.937 338.288 268.137Z" fill="#282424"/>
<path d="M338.079 270.454C338.024 271.026 337.906 271.662 337.87 272.144C337.234 272.044 337.343 270.39 338.079 270.454Z" fill="#282424"/>
<path d="M337.652 274.67C337.652 275.406 337.461 276.042 337.443 276.569C336.871 276.242 337.052 274.433 337.652 274.67Z" fill="#282424"/>
<path d="M335.544 295.132C335.544 295.268 335.544 295.414 335.544 295.55C335.562 295.832 335.526 296.113 335.544 296.395C335.353 296.477 335.353 296.64 335.335 296.813C334.563 297.122 334.899 294.923 335.544 295.123V295.132Z" fill="#282424"/>
<path d="M335.753 293.233C335.753 293.369 335.744 293.515 335.753 293.651C335.771 293.86 335.744 294.078 335.753 294.287C335.562 294.369 335.562 294.532 335.544 294.705C334.836 294.95 334.89 293.16 335.753 293.233Z" fill="#282424"/>
<path d="M334.908 301.247C334.908 301.456 334.89 301.674 334.908 301.883C334.926 302.092 334.899 302.31 334.908 302.519C334.717 302.601 334.717 302.764 334.699 302.937C333.89 303.191 334.408 300.902 334.908 301.247Z" fill="#282424"/>
<path d="M337.234 279.313C337.18 279.94 337.434 280.658 337.025 281.212C337.016 280.767 336.298 279.131 337.234 279.313Z" fill="#282424"/>
<path d="M335.962 291.125C335.962 291.261 335.953 291.407 335.962 291.543C335.98 291.752 335.962 291.97 335.962 292.179C335.771 292.261 335.771 292.424 335.753 292.597C335.053 292.924 335.162 291.034 335.962 291.125Z" fill="#282424"/>
<path d="M337.861 272.562C337.806 273.116 338.043 273.743 337.652 274.252C337.634 273.834 336.934 272.389 337.861 272.562Z" fill="#282424"/>
<path d="M335.126 300.402C335.144 300.793 335.853 302.038 334.917 301.874C334.899 301.665 334.917 301.447 334.917 301.238C334.917 301.102 334.899 300.956 334.917 300.82C334.935 300.647 334.935 300.475 335.126 300.402Z" fill="white"/>
<path d="M335.962 292.179C335.98 292.579 336.689 293.814 335.753 293.651C335.744 293.515 335.753 293.369 335.753 293.233C335.753 293.024 335.735 292.806 335.753 292.597C335.771 292.424 335.771 292.252 335.962 292.179Z" fill="white"/>
<path d="M334.908 302.51C334.926 302.91 335.626 304.146 334.699 303.982C334.717 303.773 334.699 303.555 334.699 303.346C334.699 303.21 334.681 303.064 334.699 302.928C334.717 302.755 334.717 302.583 334.908 302.51Z" fill="white"/>
<path d="M335.335 298.294C335.353 298.694 336.062 299.93 335.126 299.766C335.099 299.33 334.99 298.612 335.335 298.294Z" fill="white"/>
<path d="M336.18 290.28C336.208 290.653 336.889 291.688 335.971 291.543C335.962 291.407 335.971 291.261 335.971 291.125C335.971 290.989 335.953 290.843 335.971 290.707C335.99 290.534 335.99 290.362 336.18 290.289V290.28Z" fill="white"/>
<path d="M335.753 294.287C335.771 294.65 336.462 295.695 335.544 295.55C335.544 295.414 335.544 295.268 335.544 295.132C335.544 294.996 335.526 294.85 335.544 294.714C335.562 294.541 335.562 294.369 335.753 294.296V294.287Z" fill="white"/>
<path d="M335.544 296.395C335.562 296.758 336.253 297.803 335.335 297.658C335.326 297.522 335.335 297.376 335.335 297.24C335.335 297.104 335.317 296.958 335.335 296.822C335.353 296.649 335.353 296.477 335.544 296.404V296.395Z" fill="white"/>
<path d="M336.18 289.017C336.853 288.908 336.789 289.58 336.18 289.435C336.162 289.308 336.207 289.135 336.18 289.017Z" fill="white"/>
<path d="M335.962 288.381L335.753 288.172C335.771 288.217 335.935 288.29 335.962 288.381Z" fill="white"/>
<path d="M335.653 287.327L335.753 287.427L335.653 287.536V287.327Z" fill="white"/>
<path d="M336.18 288.799L335.971 288.59C335.971 288.59 336.153 288.681 336.18 288.799Z" fill="white"/>
<path d="M265.943 298.294L265.525 301.665L280.708 301.874C280.518 301.992 280.663 302.192 279.982 302.31C275.875 303.028 269.642 301.756 265.307 302.301C265.426 300.629 265.525 299.912 265.943 298.294Z" fill="#312826"/>
<path d="M291.467 297.867C290.613 299.012 288.723 299.421 287.46 299.975C288.568 298.985 290.122 298.448 291.467 297.867Z" fill="#4C494A"/>
<path d="M287.241 299.984C287.132 300.82 285.933 300.929 285.343 301.247C285.797 300.647 286.578 300.284 287.241 299.984Z" fill="#4C494A"/>
<path d="M282.39 300.611L281.753 301.029C282.235 300.566 282.326 300.657 282.39 300.611Z" fill="#312826"/>
<path d="M281.554 301.247C281.363 301.492 281.317 301.683 280.917 301.665C280.99 301.574 280.681 301.056 281.554 301.247Z" fill="#312826"/>
<path d="M284.925 298.93C284.161 299.421 283.516 300.148 282.608 300.402C283.144 299.966 284.089 298.776 284.925 298.93Z" fill="#312826"/>
<path d="M292.094 297.658C292.148 297.64 292.212 297.486 292.303 297.449L292.094 297.658Z" fill="#4C494A"/>
<path d="M74.8506 232.7L88.9798 233.127L85.8085 249.791L77.3766 245.366C77.1222 244.876 76.9585 244.394 76.7404 243.894C74.7959 239.388 74.8415 237.47 74.8415 232.718L74.8506 232.7Z" fill="#9BB5DF"/>
<path d="M104.808 240.506L102.482 249.156L87.7075 245.648L89.4159 237.135L104.808 240.506Z" fill="#9BB5DF"/>
<path d="M107.543 230.592L105.099 238.833L90.0609 235.308L92.5778 226.794L107.543 230.592Z" fill="#9BB5DF"/>
<path d="M110.914 221.743L107.834 229.302L93.2047 225.522L96.939 218.172L110.914 221.743Z" fill="#9BB5DF"/>
<path d="M75.0686 227.003C79.4845 224.087 85.5176 222.115 90.8149 221.551C91.142 221.515 93.1956 221.115 93.2047 221.624L89.5975 231.41L74.8596 231.01C74.9141 229.675 75.0413 228.357 75.0686 227.003Z" fill="#9BB5DF"/>
<path d="M86.2447 255.053L87.2986 247.248L102.064 250.419L101.428 252.527C97.6297 252.445 94.286 254.053 92.3597 257.379L88.7705 256.743C87.9255 256.207 87.0443 255.652 86.2356 255.053H86.2447Z" fill="#9BB5DF"/>
<path d="M98.0569 216.663C99.02 215.1 100.147 213.955 102.137 213.946C103.209 213.946 110.305 215.764 111.196 216.291C112.513 217.072 112.377 218.58 111.877 219.825L98.066 216.654L98.0569 216.663Z" fill="#9BB5DF"/>
<path d="M79.4934 248.52L85.3722 251.082L85.1905 254.217C83.0916 252.527 81.138 250.673 79.4934 248.52Z" fill="#A0BFE5"/>
<path d="M74.8504 232.491C74.8504 232.564 74.8504 232.628 74.8504 232.7C74.8504 237.452 74.8048 239.379 76.7493 243.876C76.3041 244.276 76.1407 243.804 76.0135 243.458C74.7778 240.115 74.3144 236.771 74.4325 233.218C74.4507 232.818 74.2235 232.373 74.8595 232.491H74.8504Z" fill="#D94A2E"/>
<path d="M96.3668 216.036L93.9044 219.798C89.3613 220.08 84.8818 220.897 80.5568 222.26C84.9999 218.562 90.6152 216.427 96.3668 216.036Z" fill="#9BB5DF"/>
<path d="M211.099 262.649C211.39 263.294 214.997 271.172 213.625 270.872L211.099 262.649Z" fill="#F8E1D8"/>
<path d="M84.5545 259.905L84.0275 264.121C73.5783 259.478 62.7021 246.984 69.5804 235.226C69.1715 245.412 76.5495 254.48 84.5545 259.905Z" fill="#9BB5DF"/>
<path d="M90.6696 263.285C90.6151 264.839 91.0512 266.865 91.5146 268.346L85.1997 267.065L85.6085 260.541C87.2077 261.568 88.9796 262.413 90.6696 263.285Z" fill="#9BB5DF"/>
<path d="M92.3598 257.379C92.0599 257.897 91.5418 258.369 91.5146 258.433C90.5969 257.869 89.6791 257.324 88.7705 256.743L92.3598 257.379Z" fill="#6179B8"/>
<path d="M83.9094 265.193L83.7095 275.306C73.3149 269.682 65.8459 258.287 66.4184 246.203C68.0721 255.162 75.6409 262.204 83.9094 265.193Z" fill="#9BB5DF"/>
<path d="M91.9416 269.609C93.241 272.743 97.0481 276.687 100.374 277.623L99.9739 279.186L84.9725 277.205V268.346L91.9327 269.609H91.9416Z" fill="#9BB5DF"/>
<path d="M99.1108 280.794C98.1295 282.802 94.4223 281.839 92.5324 281.566C90.3244 281.248 86.6898 280.83 85.6085 278.686L99.1108 280.794Z" fill="#A0BFE5"/>
<path d="M144.46 264.339C145.332 264.893 146.141 265.665 146.995 266.238C145.105 266.765 141.943 267.601 140.035 267.501C139.454 267.473 138.89 267.392 138.345 267.192L138.118 266.347C138.182 265.91 139.535 265.62 140.035 265.402C141.353 264.82 142.679 264.557 144.042 264.139C144.178 264.22 144.333 264.266 144.46 264.348V264.339Z" fill="#F19205"/>
<path d="M277.547 294.287C277.528 294.705 275.403 295.077 275.112 295.114C273.095 295.377 271.186 295.232 269.124 295.668C268.715 295.759 268.388 295.986 268.479 295.341C271.432 294.768 274.557 294.632 277.547 294.287Z" fill="#312826"/>
<path d="M267.843 295.341C266.134 295.723 267.043 297.113 265.943 297.876C266.171 297.095 266.252 296.268 266.679 295.55C266.997 295.187 267.525 295.423 267.843 295.341Z" fill="#312826"/>
<path d="M148.04 266.656C147.977 266.61 147.804 266.574 147.622 266.447L148.04 266.656Z" fill="#E85339"/>
<path d="M135.601 276.151C141.316 274.515 148.431 273.907 154.21 275.37C154.755 275.506 162.86 278.177 159.534 278.677C153.428 276.814 146.986 276.651 140.798 278.25L140.662 278.686C140.535 278.659 140.353 278.722 140.244 278.686C138.918 278.286 137.291 278.795 135.819 278.686C132.548 278.441 132.312 277.096 135.61 276.151H135.601Z" fill="#ED9604"/>
<path d="M135.601 276.151C132.303 277.096 132.539 278.431 135.81 278.686C131.276 280.976 130.74 273.907 135.601 276.151Z" fill="#E85498"/>
<path d="M140.026 265.393C139.527 265.611 138.173 265.911 138.109 266.338L138.336 267.183C138.881 267.383 139.445 267.464 140.026 267.492C138.373 269.681 135.492 267.255 137.764 265.32L140.026 265.384V265.393Z" fill="#E85498"/>
<path d="M140.662 278.677C140.535 279.64 138.363 283.356 137.609 283.32L137.291 283.002L140.244 278.677C140.353 278.713 140.535 278.649 140.662 278.677Z" fill="#ED9604"/>
<path d="M100.319 258.905C109.06 257.424 111.686 272.116 103.681 271.907C96.6301 271.726 94.0497 259.968 100.319 258.905ZM100.964 259.532C94.931 260.095 97.4388 270.626 103.227 271.081C110.696 271.671 108.188 258.85 100.964 259.532Z" fill="#9BB5DF"/>
<path d="M336.28 283.529L336.389 283.638L336.28 283.738V283.529Z" fill="#322926"/>
<path d="M100.964 259.532C108.188 258.86 110.696 271.671 103.227 271.081C97.4479 270.627 94.9401 260.096 100.964 259.532Z" fill="#D94A2E"/>
<path d="M135.41 243.958C135.301 244.24 135.074 244.74 133.566 246.693C131.739 249.056 130.831 250.246 130.44 250.146C129.441 249.91 129.041 245.412 131.294 242.195C132.394 240.633 134.384 238.97 135.347 239.442C136.273 239.897 136.074 242.314 135.41 243.958Z" fill="#2E2A23"/>
<path d="M132.821 249.11C132.821 249.11 132.821 249.128 132.839 249.138C133.057 249.319 134.965 247.429 136.791 244.731L136.21 243.313C136.01 244.603 135.565 245.485 135.165 246.066C134.302 247.32 132.712 248.592 132.821 249.101V249.11Z" stroke="#F4BBD6" stroke-miterlimit="10"/>
<path d="M160.597 237.216C160.77 237.752 160.797 238.043 160.943 238.634C161.161 239.524 161.588 240.769 162.533 242.214C163.85 244.04 164.714 246.148 164.786 248.429C164.895 252.145 162.915 254.771 160.225 257.061L160.57 257.342C163.005 255.979 165.268 252.445 165.477 249.655C165.495 249.355 165.695 248.183 164.995 248.41C167.63 246.657 171.238 244.731 174.318 243.995C185.639 241.314 195.461 244.585 202.222 253.98C202.576 254.471 203.439 255.561 203.648 255.916C205.011 258.151 206.828 262.549 207.219 265.111C207.292 265.574 207.328 266.074 207.355 266.547C207.392 267.192 207.41 267.773 207.328 268.418C206.22 276.841 187.238 280.621 180.415 280.494C177.861 280.449 175.426 279.731 177.116 276.687L182.205 274.552C179.27 274.57 175.753 275.215 173.109 273.761C165.304 273.979 154.101 277.55 146.714 277.314C145.732 277.287 143.97 276.987 143.57 275.96C143.07 272.316 158.39 269.282 157.281 267.501C153.901 269.636 149.649 270.163 146.25 272.207C144.887 273.025 143.197 273.943 143.552 275.751C142.016 275.015 133.021 277.668 133.13 274.252C133.212 271.644 141.044 269.018 142.916 266.801C144.542 264.875 144.742 261.622 146.368 259.623C143.579 257.978 140.271 255.961 139.872 252.354C139.735 251.127 141.653 238.325 142.216 237.452C144.106 234.536 146.787 241.032 147.559 241.341C147.859 241.459 149.612 240.796 150.166 240.705C150.893 240.587 154.446 240.106 154.655 239.969C155.055 239.715 156.799 234.481 158.608 234.354C159.126 234.009 160.498 236.871 160.607 237.216H160.597ZM145.224 252.163C146.341 252.608 148.159 252.581 148.895 251.5C148.876 250.864 146.941 251.273 146.178 251.245C145.696 251.227 144.506 250.755 144.379 250.791C143.543 251.064 144.851 252.009 145.233 252.163H145.224ZM157.826 249.51C157.644 249.374 153.465 250.446 153.383 250.655C152.829 252.136 159.298 250.591 157.826 249.51ZM150.457 254.771C150.657 255.171 151.457 255.461 151.193 256.225C150.839 257.27 148.495 255.689 149.103 256.979C149.658 258.151 151.502 257.015 151.975 256.952C152.856 256.824 154.255 257.651 154.891 255.698C153.928 254.953 153.238 257.097 152.147 256.052C151.348 255.289 152.747 254.989 152.665 254.026C152.574 252.845 149.367 252.617 150.457 254.771ZM186.075 256.561C181.959 258.442 177.216 263.521 178.688 268.446C176.944 268.482 170.983 271.108 172.973 273.57C173.618 274.37 173.364 272.189 173.582 271.699C174.381 269.881 179.115 269.227 179.333 268.782C179.488 268.473 179.025 266.21 179.097 265.465C179.461 261.631 186.539 256.897 186.075 256.561ZM199.25 268.573C194.153 272.952 186.43 273.007 180.987 275.733C180.66 275.896 179.933 276.096 180.115 276.614C186.312 274.115 194.653 273.779 199.25 268.573Z" fill="#77736D"/>
<path d="M143.542 275.751C143.188 273.943 144.878 273.025 146.241 272.207C149.639 270.163 153.892 269.636 157.272 267.501C158.38 269.282 143.061 272.316 143.561 275.96C143.543 275.906 143.561 275.824 143.542 275.751Z" fill="black"/>
<path d="M186.075 256.561C186.548 256.897 179.469 261.631 179.097 265.466C179.024 266.211 179.479 268.473 179.333 268.782C179.115 269.227 174.381 269.881 173.582 271.699C173.363 272.189 173.618 274.361 172.973 273.57C170.983 271.108 176.944 268.482 178.688 268.446C177.207 263.521 181.959 258.442 186.075 256.561Z" fill="black"/>
<path d="M199.25 268.573C194.653 273.779 186.32 274.116 180.115 276.614C179.933 276.087 180.66 275.897 180.987 275.733C186.429 273.007 194.153 272.953 199.25 268.573Z" fill="black"/>
<path d="M150.457 254.771C150.893 255.462 152.629 254.68 152.211 253.572L150.357 253.744C150.439 253.999 150.357 254.626 150.457 254.771C149.367 252.618 152.574 252.845 152.665 254.026C152.738 254.98 151.347 255.289 152.147 256.052C153.246 257.097 153.928 254.962 154.891 255.698C154.255 257.66 152.865 256.825 151.974 256.952C151.502 257.015 149.657 258.151 149.103 256.979C148.485 255.68 150.839 257.261 151.193 256.225C151.448 255.462 150.657 255.171 150.457 254.771Z" fill="black"/>
<path d="M164.977 248.41C165.668 248.192 165.477 249.364 165.459 249.655C165.25 252.436 162.978 255.979 160.552 257.342L160.207 257.061C162.905 254.78 164.886 252.154 164.768 248.429L164.977 248.41Z" fill="black"/>
<path d="M157.826 249.51C159.298 250.591 152.829 252.145 153.383 250.655C153.465 250.437 157.644 249.374 157.826 249.51Z" fill="black"/>
<path d="M146.178 251.236L145.905 251.682C146.505 251.827 148.467 250.973 148.513 251.845L145.223 252.163C144.842 252.009 143.533 251.064 144.369 250.791C144.497 250.746 145.687 251.227 146.168 251.245L146.178 251.236Z" fill="black"/>
<path d="M145.224 252.163L148.513 251.845C148.467 250.973 146.505 251.827 145.905 251.682L146.178 251.236C146.941 251.264 148.876 250.855 148.894 251.491C148.158 252.581 146.341 252.599 145.224 252.154V252.163Z" fill="black"/>
<path d="M150.457 254.771C150.366 254.626 150.439 253.999 150.357 253.744L152.211 253.572C152.629 254.68 150.893 255.461 150.457 254.771Z" fill="black"/>
<path d="M220.612 334.494C215.324 339.646 209.127 338.174 208.037 337.91C202.721 336.647 196.906 331.577 197.842 327.488C199.132 321.864 212.843 319.665 213.307 321.673C213.552 322.727 210.081 324.844 210.354 326.016C210.881 328.251 223.702 321.755 225.228 325.426C226.082 327.488 223.102 332.059 220.612 334.494Z" fill="#F2DDD6"/>
<path d="M119.398 238.655C121.24 235.89 121.781 233.015 120.608 232.233C119.434 231.452 116.99 233.059 115.148 235.824C113.306 238.589 112.764 241.464 113.938 242.246C115.112 243.027 117.556 241.42 119.398 238.655Z" fill="#F9F6F2"/>
<path d="M118.083 239.088C119.106 239.088 119.936 238.258 119.936 237.234C119.936 236.211 119.106 235.381 118.083 235.381C117.059 235.381 116.229 236.211 116.229 237.234C116.229 238.258 117.059 239.088 118.083 239.088Z" fill="#2D2A23"/>
<path d="M120.136 231.91C120.4 232.237 118.764 233.446 116.556 236.753C114.348 240.06 113.867 242.032 113.467 241.923C112.949 241.778 112.84 238.27 114.676 235.508C116.511 232.746 119.8 231.501 120.136 231.919V231.91Z" fill="#F2DDD6"/>
<path d="M202.449 318.484C203.757 319.047 204.32 320.682 203.702 322.118L198.905 333.312C198.287 334.748 196.715 335.466 195.416 334.902C194.107 334.339 193.544 332.704 194.162 331.268L198.959 320.074C199.577 318.638 201.149 317.92 202.449 318.484Z" fill="#ED9607"/>
<path d="M202.467 324.962L197.742 322.918" stroke="#F8AA20" stroke-width="0.5" stroke-miterlimit="10"/>
<path d="M200.84 328.76L196.116 326.716" stroke="#F8AA20" stroke-width="0.5" stroke-miterlimit="10"/>
<path d="M199.205 332.558L194.48 330.514" stroke="#F8AA20" stroke-width="0.5" stroke-miterlimit="10"/>
<path d="M203.303 323.045L198.578 321.01" stroke="#F8AA20" stroke-width="0.5" stroke-miterlimit="10"/>
<path d="M201.667 326.843L196.942 324.808" stroke="#F8AA20" stroke-width="0.5" stroke-miterlimit="10"/>
<path d="M200.041 330.641L195.316 328.606" stroke="#F8AA20" stroke-width="0.5" stroke-miterlimit="10"/>
</g>
</svg>
